SplineFontDB: 3.2
FontName: Alfabetoida
FullName: Alfabetoida 1.004
FamilyName: Alfabetoida
Weight: Regular
Copyright: SIL Open Font License, (C) jan Melon (2023)
FontLog: "1.001: unicase ASCII Latin and Greek.+AAoA-1.002: Latin kerning fixed.+AAoA-1.003: Latin digraph replacement with ligature.+AAoA-1.004: i-breve kerning and w height fixed."
Version: 001.004
ItalicAngle: 0
UnderlinePosition: -100
UnderlineWidth: 50
Ascent: 800
Descent: 200
InvalidEm: 0
sfntRevision: 0x00010000
LayerCount: 2
Layer: 0 0 "Back" 1
Layer: 1 0 "Fore" 0
XUID: [1021 16 1011222284 658]
StyleMap: 0x0040
FSType: 0
OS2Version: 4
OS2_WeightWidthSlopeOnly: 0
OS2_UseTypoMetrics: 0
CreationTime: 1690348127
ModificationTime: 1690380003
PfmFamily: 17
TTFWeight: 400
TTFWidth: 5
LineGap: 90
VLineGap: 0
Panose: 2 0 5 3 0 0 0 0 0 0
OS2TypoAscent: 800
OS2TypoAOffset: 0
OS2TypoDescent: -200
OS2TypoDOffset: 0
OS2TypoLinegap: 90
OS2WinAscent: 666
OS2WinAOffset: 0
OS2WinDescent: 95
OS2WinDOffset: 0
HheadAscent: 666
HheadAOffset: 0
HheadDescent: -95
HheadDOffset: 0
OS2SubXSize: 650
OS2SubYSize: 700
OS2SubXOff: 0
OS2SubYOff: 140
OS2SupXSize: 650
OS2SupYSize: 700
OS2SupXOff: 0
OS2SupYOff: 480
OS2StrikeYSize: 49
OS2StrikeYPos: 258
OS2CapHeight: 619
OS2XHeight: 449
OS2Vendor: 'CLGR'
OS2CodePages: 00000001.00000000
OS2UnicodeRanges: 00000003.00000000.00000000.00000000
Lookup: 4 0 1 "'rlig' Required Ligatures lookup 0" { "'rlig' Required Ligatures lookup 0 subtable"  } ['rlig' ('DFLT' <'dflt' > 'grek' <'dflt' > 'latn' <'dflt' > ) ]
Lookup: 258 0 0 "'kern' Horizontal Kerning lookup 0" { "'kern' Horizontal Kerning lookup 0 subtable" [150,0,0] } ['kern' ('DFLT' <'dflt' > 'cyrl' <'dflt' > 'grek' <'dflt' > 'latn' <'dflt' > ) ]
MarkAttachClasses: 1
DEI: 91125
KernClass2: 8 5 "'kern' Horizontal Kerning lookup 0 subtable"
 3 L l
 3 G g
 23 C K P T X Z c k p t x z
 31 B D E F O Q R S b d e f o q r s
 7 V W v w
 3 J j
 17 Y y Ibreve ibreve
 35 A C D E F G O Q S a c d e f g o q s
 3 L l
 23 J P T V W X j p t v w x

StartChar: .notdef
Encoding: 65536 -1 0
Width: 364
Flags: W
LayerCount: 2
Fore
SplineSet
33 0 m 1
 33 666 l 1
 298 666 l 1
 298 0 l 1
 33 0 l 1
66 33 m 1
 265 33 l 1
 265 633 l 1
 66 633 l 1
 66 33 l 1
EndSplineSet
Validated: 1
EndChar

StartChar: exclam
Encoding: 33 33 4
Width: 179
GlyphClass: 2
Flags: W
LayerCount: 2
Fore
SplineSet
124 588 m 2
 124 585.333007812 121.499023438 532.5 116.499023438 429.5 c 0
 111.499023438 326.5 108.999023438 273.333007812 108.999023438 270 c 2
 108.999023438 253 l 1
 104.999023438 253.666992188 98.83203125 254 90.4990234375 254 c 0
 82.166015625 254 75.9990234375 254.333007812 71.9990234375 255 c 2
 65.9990234375 385 l 2
 64.666015625 413 62.8330078125 447.833007812 60.5 489.5 c 0
 58.1669921875 531.166992188 57 553.666992188 57 557 c 2
 54 598 l 1
 124 598 l 1
 124 588 l 2
59.9990234375 186 m 0
 65.33203125 192 74.998046875 195.000976562 88.998046875 195.000976562 c 0
 101.665039062 195.000976562 111.33203125 191.66796875 117.999023438 185.000976562 c 0
 125.33203125 176.333984375 128.999023438 165.666992188 128.999023438 153 c 0
 128.999023438 136.333007812 123.666015625 123.666015625 112.999023438 114.999023438 c 0
 108.33203125 111.666015625 98.9990234375 109.999023438 84.9990234375 109.999023438 c 0
 78.9990234375 109.999023438 73.33203125 110.666015625 67.9990234375 111.999023438 c 0
 55.9990234375 117.33203125 49.9990234375 131.33203125 49.9990234375 153.999023438 c 0
 49.9990234375 168.666015625 53.33203125 179.333007812 59.9990234375 186 c 0
EndSplineSet
Validated: 524289
EndChar

StartChar: quotedbl
Encoding: 34 34 5
AltUni2: 00201c.ffffffff.0 00201d.ffffffff.0 00201e.ffffffff.0
Width: 283
GlyphClass: 2
Flags: W
LayerCount: 2
Fore
SplineSet
63 431 m 0
 63 434.333007812 61 460.166992188 57 508.5 c 0
 53 556.833007812 51 582.666015625 51 585.999023438 c 0
 51 589.999023438 52.5 592.499023438 55.5 593.499023438 c 0
 58.5 594.499023438 66.6669921875 594.999023438 80 594.999023438 c 2
 109 594.999023438 l 1
 109 579.999023438 l 2
 109 576.666015625 107.166992188 551.333007812 103.5 504 c 0
 99.8330078125 456.666992188 98 431 98 427 c 0
 98 422.333007812 92 420 80 420 c 0
 72 420 67.1669921875 420.5 65.5 421.5 c 0
 63.8330078125 422.5 63 425.666992188 63 431 c 0
187 427.000976562 m 0
 187 430.333984375 185 456.333984375 181 505.000976562 c 0
 177 553.66796875 175 579.334960938 175 582.001953125 c 2
 175 595.001953125 l 1
 204 595.001953125 l 2
 217.333007812 595.001953125 225.5 594.501953125 228.5 593.501953125 c 0
 231.5 592.501953125 233 590.001953125 233 586.001953125 c 0
 233 583.334960938 231.166992188 557.66796875 227.5 509.000976562 c 0
 223.833007812 460.333984375 222 434.333984375 222 431.000976562 c 0
 222 426.333984375 221 423.333984375 219 422.000976562 c 0
 217 420.66796875 212 420.000976562 204 420.000976562 c 0
 192.666992188 420.000976562 187 422.333984375 187 427.000976562 c 0
EndSplineSet
Validated: 524289
EndChar

StartChar: numbersign
Encoding: 35 35 6
Width: 512
GlyphClass: 2
Flags: W
LayerCount: 2
Fore
SplineSet
311 379 m 2
 317.000976562 409 l 1
 267.000976562 409 l 2
 243.66796875 409 229.500976562 408.5 224.500976562 407.5 c 0
 219.500976562 406.5 216.333984375 404 215.000976562 400 c 0
 203.000976562 346.666992188 197.000976562 315 197.000976562 305 c 0
 197.000976562 302.333007812 205.66796875 301 223.000976562 301 c 2
 247.000976562 301 l 1
 296.000976562 302 l 1
 301.000976562 325 l 2
 302.333984375 331 305.666992188 349 311 379 c 2
360.000976562 407 m 2
 341.000976562 303 l 2
 341.000976562 301 356.333984375 300 387.000976562 300 c 2
 434.000976562 300 l 1
 434.000976562 253 l 1
 330.000976562 253 l 1
 327.333984375 237.666992188 323.166992188 214.5 317.5 183.5 c 0
 311.833007812 152.5 307.333007812 129.333007812 304 114 c 1
 282 114 l 2
 272 114 265.833007812 114.333007812 263.5 115 c 0
 261.166992188 115.666992188 260.333984375 117.666992188 261.000976562 121 c 0
 262.333984375 125 267.000976562 147.333007812 275.000976562 188 c 0
 283.000976562 228.666992188 287.000976562 250 287.000976562 252 c 0
 287.000976562 252.666992188 270.000976562 253 236.000976562 253 c 0
 202.66796875 253 186.000976562 252.333007812 186.000976562 251 c 0
 186.000976562 249 181.66796875 225.666992188 173.000976562 181 c 2
 161.000976562 114 l 1
 117.000976562 114 l 1
 128.000976562 173 l 2
 136.000976562 215.666992188 140.333984375 239 141.000976562 243 c 2
 143.000976562 253 l 1
 54.0009765625 253 l 1
 54.0009765625 300 l 1
 64.66796875 300 81.0009765625 300.333007812 103.000976562 301 c 0
 125.000976562 301.666992188 141.333984375 302 152.000976562 302 c 1
 163.000976562 355 l 1
 173.000976562 409 l 1
 81.0009765625 409 l 1
 81.0009765625 451 l 1
 181.000976562 451 l 1
 183.000976562 462 l 2
 183.66796875 464.666992188 187.66796875 485.666992188 195.000976562 525 c 0
 202.333984375 564.333007812 206.333984375 585.333007812 207.000976562 588 c 0
 209.000976562 592.666992188 217.000976562 595 231.000976562 595 c 0
 245.000976562 595 252.000976562 593.666992188 252.000976562 591 c 0
 252.000976562 590.333007812 247.833984375 569 239.500976562 527 c 0
 231.16796875 485 227.000976562 461.333007812 227.000976562 456 c 0
 227.000976562 453.333007812 235.000976562 452 251.000976562 452 c 2
 276.000976562 452 l 1
 327.000976562 453 l 1
 330.000976562 467 l 2
 330.66796875 469 331.66796875 473.5 333.000976562 480.5 c 0
 334.333984375 487.5 336.000976562 496.666992188 338.000976562 508 c 0
 340.000976562 519.333007812 341.66796875 529.333007812 343.000976562 538 c 2
 354.000976562 595 l 1
 375.000976562 595 l 2
 388.333984375 595 395.000976562 593.333007812 395.000976562 590 c 0
 395.000976562 586.666992188 390.66796875 562.666992188 382.000976562 518 c 2
 369.000976562 451 l 1
 457.000976562 451 l 1
 457.000976562 409 l 1
 409.000976562 409 l 2
 376.333984375 409 360.000976562 408.333007812 360.000976562 407 c 2
EndSplineSet
Validated: 524289
EndChar

StartChar: dollar
Encoding: 36 36 7
Width: 404
GlyphClass: 2
Flags: W
LayerCount: 2
Fore
SplineSet
278 302 m 0
 272 308 261.000976562 314.665039062 245.000976562 321.998046875 c 2
 226.000976562 330.998046875 l 1
 226.000976562 201.998046875 l 1
 236.000976562 204.998046875 l 2
 239.333984375 205.665039062 248.666992188 209.33203125 264 215.999023438 c 0
 284 225.33203125 294 241.33203125 294 263.999023438 c 0
 294 278.666015625 288.666992188 291.333007812 278 302 c 0
183.000976562 462.998046875 m 0
 183.000976562 504.331054688 181.333007812 524.997070312 178 524.997070312 c 0
 172 524.997070312 162.833007812 521.330078125 150.5 513.997070312 c 0
 138.166992188 506.6640625 130.333984375 500.331054688 127.000976562 494.998046875 c 0
 122.333984375 488.331054688 120.000976562 478.331054688 120.000976562 464.998046875 c 0
 120.000976562 454.331054688 122.000976562 444.998046875 126.000976562 436.998046875 c 0
 129.333984375 430.998046875 137.500976562 423.498046875 150.500976562 414.498046875 c 0
 163.500976562 405.498046875 172.66796875 400.998046875 178.000976562 400.998046875 c 0
 181.333984375 400.998046875 183.000976562 421.665039062 183.000976562 462.998046875 c 0
183 599.997070312 m 2
 183.000976562 629 l 1
 225.000976562 629 l 1
 225.66796875 622.333007812 226.000976562 612.333007812 226.000976562 599 c 0
 226.000976562 585.666992188 226.333984375 575.666992188 227.000976562 569 c 1
 257.000976562 567 l 2
 281.000976562 564.333007812 299.333984375 560.666015625 312.000976562 555.999023438 c 0
 327.333984375 550.666015625 335.000976562 545.999023438 335.000976562 541.999023438 c 0
 335.000976562 539.33203125 334.66796875 536.999023438 334.000976562 534.999023438 c 0
 329.333984375 516.33203125 325.333984375 506.999023438 322.000976562 506.999023438 c 2
 319.000976562 506.999023438 l 1
 275.66796875 518.999023438 248.66796875 524.999023438 238.000976562 524.999023438 c 2
 226.000976562 524.999023438 l 1
 226.000976562 382.999023438 l 1
 242.000976562 377.999023438 l 2
 272.66796875 367.999023438 298.334960938 354.666015625 319.001953125 337.999023438 c 0
 339.668945312 321.33203125 350.001953125 297.999023438 350.001953125 267.999023438 c 0
 350.001953125 244.666015625 343.668945312 224.333007812 331.001953125 207 c 0
 314.334960938 185 282.66796875 169 236.000976562 159 c 2
 226.000976562 157 l 1
 226.000976562 83 l 1
 183.000976562 83 l 1
 183.000976562 118 l 1
 183.000976562 132 l 2
 183.000976562 144 181.000976562 151 177.000976562 153 c 0
 173.000976562 155 158.66796875 157 134.000976562 159 c 0
 116.000976562 160.333007812 101.333984375 161.666015625 90.0009765625 162.999023438 c 0
 83.333984375 162.999023438 75.0009765625 164.666015625 65.0009765625 167.999023438 c 0
 60.333984375 169.999023438 57.5009765625 172.33203125 56.5009765625 174.999023438 c 0
 55.5009765625 177.666015625 55.0009765625 184.999023438 55.0009765625 196.999023438 c 2
 55.0009765625 221.999023438 l 1
 66.0009765625 220.999023438 l 2
 73.333984375 219.666015625 88.6669921875 216.499023438 112 211.499023438 c 0
 135.333007812 206.499023438 151 203.33203125 159 201.999023438 c 2
 183 198.999023438 l 1
 183 345.999023438 l 1
 172 347.999023438 l 2
 161.333007812 350.666015625 147.333007812 356.666015625 130 365.999023438 c 0
 112.666992188 375.33203125 100 383.665039062 92 390.998046875 c 0
 72 410.331054688 62 434.6640625 62 463.997070312 c 0
 62 514.6640625 92.6669921875 547.997070312 154 563.997070312 c 0
 162.666992188 565.330078125 170.666992188 567.330078125 178 569.997070312 c 0
 181.333007812 571.330078125 183 581.330078125 183 599.997070312 c 2
EndSplineSet
Validated: 524289
EndChar

StartChar: percent
Encoding: 37 37 8
Width: 597
GlyphClass: 2
Flags: W
LayerCount: 2
Fore
SplineSet
174 557 m 0
 166 561.666992188 157.333984375 563.997070312 148.000976562 563.997070312 c 0
 131.333984375 563.997070312 119.333984375 555.6640625 112.000976562 538.997070312 c 0
 104.66796875 522.330078125 101.000976562 494.330078125 101.000976562 454.997070312 c 0
 101.000976562 415.6640625 104.66796875 387.831054688 112.000976562 371.498046875 c 0
 119.333984375 355.165039062 131.666992188 346.998046875 149 346.998046875 c 0
 183.666992188 346.998046875 201 380.331054688 201 446.998046875 c 2
 201 465.998046875 l 2
 199.666992188 494.665039062 197.166992188 515.33203125 193.5 527.999023438 c 0
 189.833007812 540.666015625 183.333007812 550.333007812 174 557 c 0
134.000976562 601.997070312 m 0
 137.333984375 602.6640625 142.666992188 602.99609375 150 602.99609375 c 0
 173.333007812 602.99609375 193.333007812 595.163085938 210 579.49609375 c 0
 226.666992188 563.829101562 238.333984375 541.662109375 245.000976562 512.995117188 c 0
 247.66796875 499.662109375 249.000976562 479.662109375 249.000976562 452.995117188 c 0
 249.000976562 364.328125 222.000976562 315.995117188 168.000976562 307.995117188 c 0
 164.000976562 307.328125 158.333984375 306.995117188 151.000976562 306.995117188 c 0
 105.000976562 306.995117188 74.66796875 333.662109375 60.0009765625 386.995117188 c 0
 56.0009765625 401.662109375 54.0009765625 426.329101562 54.0009765625 460.99609375 c 0
 54.0009765625 487.663085938 55.333984375 506.330078125 58.0009765625 516.997070312 c 0
 70.0009765625 567.6640625 95.333984375 595.997070312 134.000976562 601.997070312 c 0
280.000976562 366.99609375 m 2
 408.002929688 597.99609375 l 1
 431.002929688 597.99609375 l 2
 446.3359375 597.99609375 453.668945312 596.99609375 453.001953125 594.99609375 c 0
 453.001953125 594.329101562 447.668945312 584.329101562 437.001953125 564.99609375 c 0
 426.334960938 545.663085938 408.66796875 514.163085938 384.000976562 470.49609375 c 0
 359.333984375 426.829101562 338.000976562 388.329101562 320.000976562 354.99609375 c 2
 189.000976562 117.99609375 l 1
 166.000976562 117.99609375 l 2
 152.66796875 117.99609375 145.66796875 118.99609375 145.000976562 120.99609375 c 2
 148.000976562 126.99609375 l 2
 150.000976562 131.663085938 194.000976562 211.663085938 280.000976562 366.99609375 c 2
468.002929688 363.99609375 m 0
 461.3359375 367.99609375 453.001953125 369.994140625 443.001953125 369.994140625 c 0
 425.668945312 369.994140625 413.3359375 361.494140625 406.002929688 344.494140625 c 0
 398.669921875 327.494140625 395.002929688 299.661132812 395.002929688 260.994140625 c 0
 395.002929688 221.661132812 398.669921875 193.828125 406.002929688 177.495117188 c 0
 413.3359375 161.162109375 426.002929688 152.995117188 444.002929688 152.995117188 c 0
 456.002929688 152.995117188 466.3359375 157.328125 475.002929688 165.995117188 c 0
 488.3359375 179.328125 495.002929688 207.328125 495.002929688 249.995117188 c 2
 495.002929688 273.995117188 l 2
 493.669921875 301.995117188 491.169921875 322.328125 487.502929688 334.995117188 c 0
 483.8359375 347.662109375 477.3359375 357.329101562 468.002929688 363.99609375 c 0
428.001953125 408.994140625 m 0
 432.001953125 409.661132812 437.668945312 409.994140625 445.001953125 409.994140625 c 0
 475.668945312 409.994140625 499.668945312 396.994140625 517.001953125 370.994140625 c 0
 534.334960938 344.994140625 543.001953125 308.661132812 543.001953125 261.994140625 c 0
 543.001953125 247.327148438 542.668945312 236.327148438 542.001953125 228.994140625 c 0
 534.668945312 152.327148438 503.001953125 113.994140625 447.001953125 113.994140625 c 0
 399.668945312 113.994140625 369.001953125 140.661132812 355.001953125 193.994140625 c 0
 350.334960938 211.327148438 348.001953125 237.66015625 348.001953125 272.993164062 c 0
 348.001953125 291.66015625 349.334960938 308.327148438 352.001953125 322.994140625 c 0
 364.001953125 374.327148438 389.334960938 402.994140625 428.001953125 408.994140625 c 0
EndSplineSet
Validated: 524289
EndChar

StartChar: ampersand
Encoding: 38 38 9
Width: 562
GlyphClass: 2
Flags: W
LayerCount: 2
Fore
SplineSet
327 206 m 0
 329 208 330 209.666992188 330 211 c 0
 330 215.666992188 307.666992188 239.333984375 263 282.000976562 c 2
 192 350.000976562 l 1
 175 339.000976562 l 2
 151.666992188 324.333984375 135.166992188 310.166992188 125.5 296.5 c 0
 115.833007812 282.833007812 111 266 111 246 c 0
 111 222 119 202.333007812 135 187 c 0
 150.333007812 171.666992188 174.333007812 164 207 164 c 0
 230.333007812 164 253.333007812 168 276 176 c 0
 298.666992188 184 315.666992188 194 327 206 c 0
280 503 m 0
 280 530.333007812 266.33203125 547.665039062 238.999023438 554.998046875 c 0
 236.33203125 555.665039062 233.165039062 556.33203125 229.498046875 556.999023438 c 0
 225.831054688 557.666015625 222.831054688 558.333007812 220.498046875 559 c 0
 218.165039062 559.666992188 216.33203125 560 214.999023438 560 c 0
 207.666015625 560 198.999023438 557.5 188.999023438 552.5 c 0
 178.999023438 547.5 171.33203125 542 165.999023438 536 c 0
 158.666015625 528.666992188 154.999023438 517.666992188 154.999023438 503 c 0
 154.999023438 476.333007812 166.33203125 450 188.999023438 424 c 2
 203.999023438 407 l 1
 225.999023438 422 l 2
 252.666015625 440 269.333007812 457 276 473 c 0
 278.666992188 479.666992188 280 489.666992188 280 503 c 0
100.999023438 501.999023438 m 0
 100.999023438 531.33203125 109.5 554.666015625 126.5 571.999023438 c 0
 143.5 589.33203125 166.333007812 599.33203125 195 601.999023438 c 0
 207 603.33203125 216 603.999023438 222 603.999023438 c 0
 257.333007812 603.999023438 284.833007812 595.166015625 304.5 577.499023438 c 0
 324.166992188 559.83203125 334 535.33203125 334 503.999023438 c 0
 334 463.999023438 310.666992188 427.33203125 264 393.999023438 c 2
 239 375.999023438 l 1
 305 312.999023438 l 2
 346.333007812 273.666015625 369 253.999023438 373 253.999023438 c 0
 374.333007812 253.999023438 375.666015625 254.666015625 376.999023438 255.999023438 c 0
 388.33203125 265.999023438 400.665039062 291.999023438 413.998046875 333.999023438 c 2
 420.998046875 357.999023438 l 1
 448.998046875 357.999023438 l 2
 466.998046875 357.999023438 475.665039062 356.33203125 474.998046875 352.999023438 c 0
 457.665039062 296.33203125 439.665039062 255.999023438 420.998046875 231.999023438 c 2
 405.998046875 212.999023438 l 1
 428.665039062 192.33203125 461.998046875 160.665039062 505.998046875 117.998046875 c 1
 430.998046875 117.998046875 l 1
 409.665039062 136.665039062 389.33203125 155.998046875 369.999023438 175.998046875 c 1
 339.999023438 154.998046875 l 2
 313.999023438 136.998046875 284.33203125 123.998046875 250.999023438 115.998046875 c 0
 242.999023438 114.665039062 226.666015625 113.998046875 201.999023438 113.998046875 c 0
 153.999023438 113.998046875 117.33203125 125.665039062 91.9990234375 148.998046875 c 0
 66.666015625 171.665039062 53.9990234375 202.33203125 53.9990234375 240.999023438 c 0
 53.9990234375 268.33203125 59.83203125 291.33203125 71.4990234375 309.999023438 c 0
 83.166015625 328.666015625 103.999023438 347.999023438 133.999023438 367.999023438 c 0
 148.666015625 377.999023438 155.999023438 383.666015625 155.999023438 384.999023438 c 0
 155.999023438 386.999023438 149.666015625 395.666015625 136.999023438 410.999023438 c 0
 112.999023438 441.666015625 100.999023438 471.999023438 100.999023438 501.999023438 c 0
EndSplineSet
Validated: 524289
EndChar

StartChar: quotesingle
Encoding: 39 39 10
AltUni2: 002018.ffffffff.0 002019.ffffffff.0 00201a.ffffffff.0
Width: 159
GlyphClass: 2
Flags: W
LayerCount: 2
Fore
SplineSet
63 431 m 0
 63 434.333007812 61 460.166992188 57 508.5 c 0
 53 556.833007812 51 582.666015625 51 585.999023438 c 0
 51 589.999023438 52.5 592.499023438 55.5 593.499023438 c 0
 58.5 594.499023438 66.6669921875 594.999023438 80 594.999023438 c 2
 109 594.999023438 l 1
 109 579.999023438 l 2
 109 576.666015625 107.166992188 551.333007812 103.5 504 c 0
 99.8330078125 456.666992188 98 431 98 427 c 0
 98 422.333007812 92 420 80 420 c 0
 72 420 67.1669921875 420.5 65.5 421.5 c 0
 63.8330078125 422.5 63 425.666992188 63 431 c 0
EndSplineSet
Validated: 524289
EndChar

StartChar: parenleft
Encoding: 40 40 11
Width: 257
GlyphClass: 2
Flags: W
LayerCount: 2
Fore
SplineSet
137 578 m 2
 151.999023438 598 l 1
 175.999023438 598 l 2
 192.666015625 598 200.999023438 597.333007812 200.999023438 596 c 0
 200.999023438 594.666992188 197.33203125 588.666992188 189.999023438 578 c 0
 146.666015625 514.666992188 120.666015625 438 111.999023438 348 c 0
 110.666015625 337.333007812 109.999023438 321.666015625 109.999023438 300.999023438 c 0
 109.999023438 198.999023438 137.999023438 105.33203125 193.999023438 19.9990234375 c 2
 200.999023438 8.9990234375 l 1
 150.999023438 8.9990234375 l 1
 133.999023438 32.9990234375 l 2
 79.9990234375 104.999023438 52.9990234375 193.999023438 52.9990234375 299.999023438 c 0
 52.9990234375 357.33203125 60.33203125 409.33203125 74.9990234375 455.999023438 c 0
 89.666015625 500.666015625 110.333007812 541.333007812 137 578 c 2
EndSplineSet
Validated: 524289
EndChar

StartChar: parenright
Encoding: 41 41 12
Width: 259
GlyphClass: 2
Flags: W
LayerCount: 2
Fore
SplineSet
69 582 m 2
 54.9990234375 601.999023438 l 1
 106.999023438 601.999023438 l 1
 121.999023438 580.999023438 l 2
 177.999023438 503.666015625 205.999023438 411.999023438 205.999023438 305.999023438 c 0
 205.999023438 198.666015625 178.999023438 109.333007812 124.999023438 38 c 2
 106.999023438 13 l 1
 82.9990234375 13 l 2
 66.33203125 13 57.9990234375 14 57.9990234375 16 c 0
 57.9990234375 17.3330078125 62.33203125 23.666015625 70.9990234375 34.9990234375 c 0
 97.666015625 73.666015625 118.333007812 121.666015625 133 178.999023438 c 0
 139 200.33203125 142.5 216.83203125 143.5 228.499023438 c 0
 144.5 240.166015625 145 265.333007812 145 304 c 0
 145 358 142.666992188 394.666992188 138 414 c 0
 122.666992188 480 99.6669921875 536 69 582 c 2
EndSplineSet
Validated: 524289
EndChar

StartChar: asterisk
Encoding: 42 42 13
Width: 420
GlyphClass: 2
Flags: W
LayerCount: 2
Fore
SplineSet
67 536 m 2
 97.9990234375 528.001953125 l 2
 118.666015625 522.001953125 139.333007812 516.334960938 160 511.001953125 c 2
 191 503.001953125 l 1
 188 533.001953125 l 2
 186.666992188 553.001953125 185 573.334960938 183 594.001953125 c 2
 180 624.001953125 l 2
 180 628.668945312 181.333007812 631.3359375 184 632.002929688 c 0
 186.666992188 632.669921875 195 633.002929688 209 633.002929688 c 2
 238 633.002929688 l 1
 238 622.002929688 l 1
 235 592.002929688 l 2
 233 571.3359375 231 551.3359375 229 532.002929688 c 0
 227 512.669921875 226.333007812 503.002929688 227 503.002929688 c 0
 229 503.002929688 250.666992188 508.669921875 292 520.002929688 c 2
 354 536.002929688 l 2
 356 536.002929688 358.166992188 528.8359375 360.5 514.502929688 c 0
 362.833007812 500.169921875 364 490.669921875 364 486.002929688 c 0
 364 482.002929688 344.333007812 478.3359375 305 475.002929688 c 0
 263.666992188 472.3359375 243 470.3359375 243 469.002929688 c 0
 243 468.3359375 255.333007812 450.668945312 280 416.001953125 c 0
 303.333007812 386.001953125 315 368.668945312 315 364.001953125 c 0
 315 361.334960938 314 359.66796875 312 359.000976562 c 0
 308.666992188 356.333984375 300.666992188 351.666992188 288 345 c 0
 275.333007812 338.333007812 268.333007812 335 267 335 c 2
 238 391 l 2
 218.666992188 428.333007812 208.666992188 447 208 447 c 0
 206.666992188 447 202 438 194 420 c 2
 170 366 l 2
 162 348 157.666992188 338.666992188 157 338 c 2
 156 338 l 2
 152 338 142 341.5 126 348.5 c 0
 110 355.5 102 360.333007812 102 363 c 0
 102 366.333007812 114.333007812 384.333007812 139 417 c 0
 163 449.666992188 175 467 175 469 c 2
 114 475 l 1
 55 479 l 1
 57 499 l 2
 59.6669921875 523.666992188 63 536 67 536 c 2
EndSplineSet
Validated: 524289
EndChar

StartChar: plus
Encoding: 43 43 14
Width: 426
GlyphClass: 2
Flags: W
LayerCount: 2
Fore
SplineSet
190 378 m 1
 190 517 l 1
 236 517 l 1
 236 378 l 1
 372 378 l 1
 372 331 l 1
 236 331 l 1
 236 191 l 1
 190 191 l 1
 190 331 l 1
 54 331 l 1
 54 378 l 1
 190 378 l 1
EndSplineSet
Validated: 1
EndChar

StartChar: comma
Encoding: 44 44 15
Width: 201
GlyphClass: 2
Flags: W
LayerCount: 2
Fore
SplineSet
80 160 m 2
 86 198.999023438 l 1
 116 198.999023438 l 2
 137.333007812 198.999023438 148 196.999023438 148 192.999023438 c 0
 148 187.666015625 143 169.499023438 133 138.499023438 c 0
 123 107.499023438 113.666992188 81.9990234375 105 61.9990234375 c 2
 94 33.9990234375 l 1
 74 32.9990234375 l 2
 60.6669921875 31.666015625 54 32.666015625 54 35.9990234375 c 0
 54 38.666015625 57 53.3330078125 63 80 c 0
 71 116 76.6669921875 142.666992188 80 160 c 2
EndSplineSet
Validated: 524289
EndChar

StartChar: hyphen
Encoding: 45 45 16
Width: 269
GlyphClass: 2
Flags: W
LayerCount: 2
Fore
SplineSet
53 273 m 1
 53 327 l 1
 216 327 l 1
 216 273 l 1
 53 273 l 1
EndSplineSet
Validated: 1
EndChar

StartChar: period
Encoding: 46 46 17
Width: 184
GlyphClass: 2
Flags: W
LayerCount: 2
Fore
SplineSet
63 190 m 0
 68.3330078125 196 78 198.999023438 92 198.999023438 c 0
 118 198.999023438 131 185.999023438 131 159.999023438 c 0
 131 129.33203125 118.333007812 113.999023438 93 113.999023438 c 0
 75 113.999023438 63.6669921875 118.999023438 59 128.999023438 c 0
 54.3330078125 137.666015625 52 147.333007812 52 158 c 0
 52 172 55.6669921875 182.666992188 63 190 c 0
EndSplineSet
Validated: 524289
EndChar

StartChar: slash
Encoding: 47 47 18
Width: 343
GlyphClass: 2
Flags: W
LayerCount: 2
Fore
SplineSet
200 506 m 2
 235.000976562 602.000976562 l 1
 262.000976562 602.000976562 l 2
 279.333984375 602.000976562 288.000976562 601.333984375 288.000976562 600.000976562 c 0
 288.000976562 597.333984375 258.333984375 517.333984375 199.000976562 360.000976562 c 2
 111.000976562 124.000976562 l 1
 84.0009765625 122.000976562 l 1
 56.0009765625 121.000976562 l 1
 110.000976562 266.000976562 l 2
 121.333984375 296.000976562 138.166992188 340.66796875 160.5 400.000976562 c 0
 182.833007812 459.333984375 196 494.666992188 200 506 c 2
EndSplineSet
Validated: 524289
EndChar

StartChar: zero
Encoding: 48 48 19
Width: 416
GlyphClass: 2
Flags: W
LayerCount: 2
Fore
SplineSet
256 543 m 0
 244 551 226.999023438 554.999023438 204.999023438 554.999023438 c 0
 188.999023438 554.999023438 176.666015625 552.666015625 167.999023438 547.999023438 c 0
 146.666015625 536.666015625 131.499023438 516.333007812 122.499023438 487 c 0
 113.499023438 457.666992188 108.999023438 414 108.999023438 356 c 0
 108.999023438 291.333007812 115.166015625 244.166015625 127.499023438 214.499023438 c 0
 139.83203125 184.83203125 160.33203125 166.665039062 188.999023438 159.998046875 c 0
 196.999023438 157.998046875 204.666015625 156.998046875 211.999023438 156.998046875 c 0
 254.666015625 156.998046875 283.333007812 184.665039062 298 239.998046875 c 0
 304 260.665039062 307 302.33203125 307 364.999023438 c 0
 307 406.999023438 305.333007812 435.666015625 302 450.999023438 c 0
 293.333007812 497.666015625 278 528.333007812 256 543 c 0
158.999023438 595.999023438 m 0
 170.999023438 599.33203125 185.001953125 601.000976562 201.001953125 601.000976562 c 2
 213.001953125 601.000976562 l 2
 243.001953125 600.333984375 267.501953125 593.666992188 286.501953125 581 c 0
 305.501953125 568.333007812 322.001953125 548.333007812 336.001953125 521 c 0
 347.334960938 499 354.66796875 477.166992188 358.000976562 455.5 c 0
 361.333984375 433.833007812 363.000976562 399.333007812 363.000976562 352 c 0
 363.000976562 307.333007812 361.333984375 274.5 358.000976562 253.5 c 0
 354.66796875 232.5 347.66796875 211.333007812 337.000976562 190 c 0
 327.000976562 169.333007812 312.66796875 152.166015625 294.000976562 138.499023438 c 0
 275.333984375 124.83203125 254.666992188 116.665039062 232 113.998046875 c 0
 221.333007812 112.665039062 213.333007812 111.998046875 208 111.998046875 c 0
 128.666992188 111.998046875 79 160.665039062 59 257.998046875 c 0
 53.6669921875 281.331054688 51 315.331054688 51 359.998046875 c 0
 51 405.998046875 53.6669921875 439.998046875 59 461.998046875 c 0
 74.3330078125 534.665039062 107.666015625 579.33203125 158.999023438 595.999023438 c 0
EndSplineSet
Validated: 524289
EndChar

StartChar: one
Encoding: 49 49 20
Width: 281
GlyphClass: 2
Flags: W
LayerCount: 2
Fore
SplineSet
121 550 m 2
 183 597.998046875 l 1
 231 597.998046875 l 1
 231 117.998046875 l 1
 173 117.998046875 l 1
 172.333007812 164.665039062 172 234.33203125 172 326.999023438 c 0
 172 419.666015625 171.666992188 489.333007812 171 536 c 1
 132.333007812 502.666992188 103 477.666992188 83 461 c 1
 68 478 l 2
 58.6669921875 490 55 497 57 499 c 0
 63 505 84.3330078125 522 121 550 c 2
EndSplineSet
Validated: 524289
EndChar

StartChar: two
Encoding: 50 50 21
Width: 426
GlyphClass: 2
Flags: W
LayerCount: 2
Fore
SplineSet
75 559 m 2
 115 588.333007812 160.001953125 603.001953125 210.001953125 603.001953125 c 0
 230.001953125 603.001953125 248.001953125 600.334960938 264.001953125 595.001953125 c 0
 284.001953125 589.001953125 301.501953125 578.168945312 316.501953125 562.501953125 c 0
 331.501953125 546.834960938 341.334960938 529.66796875 346.001953125 511.000976562 c 0
 348.001953125 503.000976562 349.001953125 493.000976562 349.001953125 481.000976562 c 0
 349.001953125 456.333984375 346.001953125 436.666992188 340.001953125 422 c 0
 332.001953125 400 319.834960938 378.666992188 303.501953125 358 c 0
 287.168945312 337.333007812 256.668945312 304.333007812 212.001953125 259 c 2
 126.001953125 172 l 1
 372.001953125 172 l 1
 372.001953125 118 l 1
 54.001953125 118 l 1
 54.001953125 162 l 1
 148.001953125 259 l 2
 206.668945312 319 243.668945312 359.5 259.001953125 380.5 c 0
 274.334960938 401.5 284.66796875 424.666992188 290.000976562 450 c 0
 291.333984375 455.333007812 292.000976562 463.333007812 292.000976562 474 c 0
 292.000976562 510.666992188 278.000976562 535.333984375 250.000976562 548.000976562 c 0
 240.000976562 552.66796875 224.000976562 555.000976562 202.000976562 555.000976562 c 0
 183.333984375 555.000976562 168.000976562 553.000976562 156.000976562 549.000976562 c 0
 149.333984375 547.000976562 137.666992188 541.16796875 121 531.500976562 c 0
 104.333007812 521.833984375 95 516.666992188 93 516 c 0
 89.6669921875 516 84 521.333007812 76 532 c 2
 62 550 l 1
 75 559 l 2
EndSplineSet
Validated: 524289
EndChar

StartChar: three
Encoding: 51 51 22
Width: 422
GlyphClass: 2
Flags: W
LayerCount: 2
Fore
SplineSet
140 599 m 0
 156 603 175.669921875 605.000976562 199.002929688 605.000976562 c 0
 231.669921875 605.000976562 256.669921875 601.66796875 274.002929688 595.000976562 c 0
 320.002929688 577.66796875 344.3359375 545.334960938 347.002929688 498.001953125 c 2
 347.002929688 484.001953125 l 2
 347.002929688 460.668945312 342.3359375 442.001953125 333.002929688 428.001953125 c 0
 329.002929688 421.334960938 327.002929688 416.66796875 327.002929688 414.000976562 c 0
 327.002929688 411.333984375 320.169921875 405.833984375 306.502929688 397.500976562 c 0
 292.8359375 389.16796875 281.668945312 383.66796875 273.001953125 381.000976562 c 0
 261.001953125 377.000976562 255.001953125 374.333984375 255.001953125 373.000976562 c 0
 255.001953125 370.333984375 260.334960938 368.000976562 271.001953125 366.000976562 c 0
 335.668945312 352.000976562 368.001953125 315.66796875 368.001953125 257.000976562 c 0
 368.001953125 228.333984375 361.334960938 203.666992188 348.001953125 183 c 0
 323.334960938 145 279.66796875 123.333007812 217.000976562 118 c 0
 210.333984375 117.333007812 200.333984375 117 187.000976562 117 c 0
 144.333984375 117 109.333984375 121.333007812 82.0009765625 130 c 2
 55.0009765625 139 l 1
 54.333984375 144.333007812 54.0009765625 152.833007812 54.0009765625 164.5 c 0
 54.0009765625 176.166992188 53.66796875 185 53.0009765625 191 c 1
 85.0009765625 179 l 2
 117.000976562 167.666992188 150.66796875 162 186.000976562 162 c 0
 241.333984375 162 277.666992188 175.333007812 295 202 c 0
 305.666992188 217.333007812 311 236 311 258 c 0
 311 276.666992188 307.333007812 291 300 301 c 0
 282.666992188 327.666992188 241.666992188 342.333984375 177 345.000976562 c 2
 127 348.000976562 l 1
 127 393.000976562 l 1
 167 393.000976562 l 2
 209.666992188 393.000976562 241.333984375 400.66796875 262.000976562 416.000976562 c 0
 280.66796875 430.000976562 290.000976562 449.66796875 290.000976562 475.000976562 c 2
 290.000976562 482.000976562 l 2
 289.333984375 508.66796875 282.666992188 527.66796875 270 539.000976562 c 0
 255.333007812 553.000976562 232.333007812 560.000976562 201 560.000976562 c 0
 167 560.000976562 134.666992188 551.000976562 104 533.000976562 c 2
 85 521.000976562 l 1
 81.6669921875 525.000976562 77 531.16796875 71 539.500976562 c 0
 65 547.833984375 60.6669921875 554.000976562 58 558.000976562 c 1
 66 565.000976562 l 2
 81.3330078125 578.333984375 106 589.666992188 140 599 c 0
EndSplineSet
Validated: 524289
EndChar

StartChar: four
Encoding: 52 52 23
Width: 467
GlyphClass: 2
Flags: W
LayerCount: 2
Fore
SplineSet
287 414 m 2
 287 500.666992188 286.333007812 544 285 544 c 0
 283 544 279 537.333007812 273 524 c 0
 265.666992188 510.666992188 237 468 187 396 c 0
 137 324 112 287.666992188 112 287 c 0
 112 285 141 284 199 284 c 2
 287 284 l 1
 287 414 l 2
54 278 m 1
 78.6669921875 314 116.16796875 368 166.500976562 440 c 0
 216.833984375 512 254.666992188 566 280 602 c 1
 341 602 l 1
 341 284 l 1
 411 284 l 1
 411 230 l 1
 341 230 l 1
 341 122 l 1
 283 122 l 1
 283 230 l 1
 54 230 l 1
 54 278 l 1
EndSplineSet
Validated: 524289
EndChar

StartChar: five
Encoding: 53 53 24
Width: 406
GlyphClass: 2
Flags: W
LayerCount: 2
Fore
SplineSet
130 534 m 2
 130 532.666992188 128.166015625 510.83203125 124.499023438 468.499023438 c 0
 120.83203125 426.166015625 118.999023438 403.999023438 118.999023438 401.999023438 c 1
 125.666015625 402.666015625 132.999023438 403.666015625 140.999023438 404.999023438 c 0
 151.666015625 406.999023438 165.333007812 407.999023438 182 407.999023438 c 0
 222 407.999023438 251.333007812 404.33203125 270 396.999023438 c 0
 284 391.666015625 297.666992188 382.999023438 311 370.999023438 c 0
 324.333007812 358.999023438 334.666015625 346.33203125 341.999023438 332.999023438 c 0
 346.666015625 324.33203125 349.499023438 316.83203125 350.499023438 310.499023438 c 0
 351.499023438 304.166015625 351.999023438 290.333007812 351.999023438 269 c 0
 351.999023438 239 348.33203125 216 340.999023438 200 c 0
 322.999023438 159.333007812 288.999023438 132.333007812 238.999023438 119 c 0
 222.999023438 115 203.33203125 113 179.999023438 113 c 0
 131.999023438 113 93.9990234375 119 65.9990234375 131 c 0
 59.33203125 134.333007812 55.33203125 137.166015625 53.9990234375 139.499023438 c 0
 52.666015625 141.83203125 51.9990234375 149.33203125 51.9990234375 161.999023438 c 0
 51.9990234375 179.33203125 52.666015625 187.999023438 53.9990234375 187.999023438 c 2
 56.9990234375 185.999023438 l 2
 58.9990234375 185.33203125 61.83203125 184.165039062 65.4990234375 182.498046875 c 0
 69.166015625 180.831054688 72.666015625 179.331054688 75.9990234375 177.998046875 c 0
 91.9990234375 170.665039062 111.666015625 165.33203125 134.999023438 161.999023438 c 0
 150.999023438 159.33203125 164.33203125 157.999023438 174.999023438 157.999023438 c 0
 179.666015625 157.999023438 188.666015625 158.666015625 201.999023438 159.999023438 c 0
 234.666015625 164.666015625 258.499023438 175.166015625 273.499023438 191.499023438 c 0
 288.499023438 207.83203125 295.999023438 231.665039062 295.999023438 262.998046875 c 0
 295.999023438 312.331054688 274.999023438 343.331054688 232.999023438 355.998046875 c 0
 219.666015625 359.998046875 198.333007812 361.998046875 169 361.998046875 c 0
 145 361.998046875 126.666992188 360.665039062 114 357.998046875 c 0
 104.666992188 356.665039062 99.333984375 355.998046875 98.0009765625 355.998046875 c 0
 94.0009765625 355.998046875 88.333984375 357.998046875 81.0009765625 361.998046875 c 0
 77.0009765625 364.665039062 74.5009765625 366.498046875 73.5009765625 367.498046875 c 0
 72.5009765625 368.498046875 71.333984375 370.831054688 70.0009765625 374.498046875 c 0
 68.66796875 378.165039062 68.0009765625 383.665039062 68.0009765625 390.998046875 c 0
 68.0009765625 395.665039062 70.333984375 430.665039062 75.0009765625 495.998046875 c 0
 76.333984375 509.998046875 77.6669921875 525.331054688 79 541.998046875 c 0
 80.3330078125 558.665039062 81.3330078125 571.33203125 82 579.999023438 c 0
 82.6669921875 588.666015625 83 593.333007812 83 594 c 0
 83 596.666992188 123 598 203 598 c 2
 323 598 l 1
 323 544 l 1
 130 544 l 1
 130 534 l 2
EndSplineSet
Validated: 524289
EndChar

StartChar: six
Encoding: 54 54 25
Width: 418
GlyphClass: 2
Flags: W
LayerCount: 2
Fore
SplineSet
261 362 m 0
 251.666992188 366.666992188 235.6640625 369.000976562 212.997070312 369.000976562 c 0
 193.6640625 369.000976562 179.997070312 367.333984375 171.997070312 364.000976562 c 0
 150.6640625 356.66796875 133.331054688 343.000976562 119.998046875 323.000976562 c 0
 111.998046875 311.66796875 107.998046875 296.66796875 107.998046875 278.000976562 c 0
 107.998046875 256.000976562 113.831054688 234.500976562 125.498046875 213.500976562 c 0
 137.165039062 192.500976562 152.33203125 177.000976562 170.999023438 167.000976562 c 0
 181.666015625 161.000976562 195.333007812 158.000976562 212 158.000976562 c 0
 228.666992188 158.000976562 244.666992188 161.333984375 260 168.000976562 c 0
 282.666992188 179.333984375 297.666992188 198.666992188 305 226 c 0
 307.666992188 238 309 252.333007812 309 269 c 0
 309 285 307.666992188 299.666992188 305 313 c 0
 299 335 284.333007812 351.333007812 261 362 c 0
206.997070312 596.000976562 m 0
 222.330078125 600.000976562 248.663085938 602.001953125 285.99609375 602.001953125 c 0
 300.663085938 602.001953125 311.99609375 601.334960938 319.99609375 600.001953125 c 0
 325.329101562 598.668945312 327.99609375 590.668945312 327.99609375 576.001953125 c 2
 327.99609375 553.001953125 l 1
 284.99609375 555.001953125 l 1
 264.99609375 555.001953125 l 2
 244.99609375 555.001953125 229.329101562 553.334960938 217.99609375 550.001953125 c 0
 183.99609375 540.668945312 158.49609375 523.168945312 141.49609375 497.501953125 c 0
 124.49609375 471.834960938 113.663085938 434.66796875 108.99609375 386.000976562 c 0
 106.99609375 367.333984375 107.329101562 358.000976562 109.99609375 358.000976562 c 0
 111.329101562 358.000976562 119.662109375 365.000976562 134.995117188 379.000976562 c 0
 158.328125 401.66796875 190.328125 413.000976562 230.995117188 413.000976562 c 0
 272.995117188 413.000976562 305.662109375 400.500976562 328.995117188 375.500976562 c 0
 352.328125 350.500976562 363.995117188 315.66796875 363.995117188 271.000976562 c 0
 363.995117188 226.333984375 352.995117188 190.333984375 330.995117188 163.000976562 c 0
 308.995117188 135.66796875 277.995117188 119.334960938 237.995117188 114.001953125 c 0
 232.662109375 113.334960938 224.662109375 113.001953125 213.995117188 113.001953125 c 0
 137.995117188 113.001953125 87.662109375 154.001953125 62.9951171875 236.001953125 c 0
 55.662109375 263.334960938 51.9951171875 294.334960938 51.9951171875 329.001953125 c 0
 51.9951171875 401.001953125 63.328125 459.001953125 85.9951171875 503.001953125 c 0
 96.662109375 524.334960938 113.329101562 543.66796875 135.99609375 561.000976562 c 0
 158.663085938 578.333984375 182.330078125 590.000976562 206.997070312 596.000976562 c 0
EndSplineSet
Validated: 524289
EndChar

StartChar: seven
Encoding: 55 55 26
Width: 433
GlyphClass: 2
Flags: W
LayerCount: 2
Fore
SplineSet
56 544 m 1
 55.9990234375 597.999023438 l 1
 377.999023438 597.999023438 l 1
 377.999023438 577.999023438 l 2
 377.999023438 568.666015625 372.83203125 551.166015625 362.499023438 525.499023438 c 0
 352.166015625 499.83203125 324.666015625 437.33203125 279.999023438 337.999023438 c 2
 181.999023438 117.999023438 l 1
 150.999023438 117.999023438 l 2
 132.33203125 118.666015625 122.999023438 120.333007812 122.999023438 123 c 2
 315.999023438 543 l 1
 276.666015625 543.666992188 233.333007812 544 186 544 c 2
 56 544 l 1
EndSplineSet
Validated: 524289
EndChar

StartChar: eight
Encoding: 56 56 27
Width: 415
GlyphClass: 2
Flags: W
LayerCount: 2
Fore
SplineSet
231 331 m 0
 208.333007812 341.666992188 196.66796875 347.000976562 196.000976562 347.000976562 c 0
 190.66796875 346.333984375 180.16796875 341.166992188 164.500976562 331.5 c 0
 148.833984375 321.833007812 137.666992188 313.666015625 131 306.999023438 c 0
 113.666992188 289.666015625 105 267.999023438 105 241.999023438 c 0
 105 214.666015625 113.333007812 194.333007812 130 181 c 0
 147.333007812 166.333007812 173 159 207 159 c 0
 238.333007812 159 262.666015625 166 279.999023438 180 c 0
 297.33203125 194 305.999023438 214 305.999023438 240 c 0
 305.999023438 260 300.33203125 277 288.999023438 291 c 0
 277.666015625 305 258.333007812 318.333007812 231 331 c 0
256.001953125 547.000976562 m 0
 240.001953125 554.333984375 222.001953125 558.000976562 202.001953125 558.000976562 c 0
 191.334960938 558.000976562 182.001953125 557.000976562 174.001953125 555.000976562 c 0
 154.668945312 549.66796875 140.8359375 541.834960938 132.502929688 531.501953125 c 0
 124.169921875 521.168945312 120.002929688 507.001953125 120.002929688 489.001953125 c 0
 120.002929688 469.001953125 124.8359375 452.501953125 134.502929688 439.501953125 c 0
 144.169921875 426.501953125 160.669921875 414.668945312 184.002929688 404.001953125 c 2
 208.002929688 393.001953125 l 1
 229.002929688 403.001953125 l 2
 256.3359375 416.334960938 274.668945312 433.001953125 284.001953125 453.001953125 c 0
 288.668945312 463.668945312 291.001953125 475.668945312 291.001953125 489.001953125 c 0
 291.001953125 516.334960938 279.334960938 535.66796875 256.001953125 547.000976562 c 0
177.001953125 602.000976562 m 0
 189.001953125 603.333984375 198.001953125 604.000976562 204.001953125 604.000976562 c 0
 252.001953125 604.000976562 289.001953125 592.000976562 315.001953125 568.000976562 c 0
 335.001953125 550.000976562 345.001953125 524.66796875 345.001953125 492.000976562 c 0
 345.001953125 450.66796875 323.668945312 416.334960938 281.001953125 389.001953125 c 2
 256.001953125 372.001953125 l 1
 286.001953125 354.001953125 l 2
 312.668945312 337.334960938 331.8359375 320.334960938 343.502929688 303.001953125 c 0
 355.169921875 285.668945312 361.002929688 264.668945312 361.002929688 240.001953125 c 0
 361.002929688 200.668945312 347.3359375 169.668945312 320.002929688 147.001953125 c 0
 292.669921875 124.334960938 255.002929688 113.001953125 207.002929688 113.001953125 c 0
 151.669921875 113.001953125 110.669921875 126.001953125 84.0029296875 152.001953125 c 0
 74.0029296875 162.001953125 66.669921875 171.668945312 62.0029296875 181.001953125 c 0
 54.669921875 195.001953125 51.0029296875 213.668945312 51.0029296875 237.001953125 c 0
 51.0029296875 262.334960938 55.3359375 282.66796875 64.0029296875 298.000976562 c 0
 80.0029296875 324.000976562 101.669921875 344.000976562 129.002929688 358.000976562 c 0
 141.002929688 364.000976562 147.002929688 368.000976562 147.002929688 370.000976562 c 0
 147.002929688 371.333984375 144.002929688 373.333984375 138.002929688 376.000976562 c 0
 133.3359375 378.000976562 122.668945312 386.66796875 106.001953125 402.000976562 c 0
 78.6689453125 427.333984375 65.001953125 457.000976562 65.001953125 491.000976562 c 0
 65.001953125 521.66796875 75.001953125 547.000976562 95.001953125 567.000976562 c 0
 115.001953125 587.000976562 142.334960938 598.66796875 177.001953125 602.000976562 c 0
EndSplineSet
Validated: 524289
EndChar

StartChar: nine
Encoding: 57 57 28
Width: 417
GlyphClass: 2
Flags: W
LayerCount: 2
Fore
SplineSet
246 552 m 0
 236.666992188 556.666992188 221.333007812 559 200 559 c 0
 182.666992188 559 170.666992188 557.333007812 164 554 c 0
 154.666992188 550 145.5 542.833007812 136.5 532.5 c 0
 127.5 522.166992188 121.333007812 511.333984375 118 500.000976562 c 0
 113.333007812 484.000976562 111 466.333984375 111 447.000976562 c 0
 111 427.000976562 113.333007812 411.000976562 118 399.000976562 c 0
 132 365.66796875 158.666992188 349.000976562 198 349.000976562 c 0
 234 349.000976562 262 359.000976562 282 379.000976562 c 0
 300.666992188 397.66796875 310 416.334960938 310 435.001953125 c 0
 310 441.668945312 309 450.001953125 307 460.001953125 c 0
 303.666992188 481.334960938 296.5 500.16796875 285.5 516.500976562 c 0
 274.5 532.833984375 261.333007812 544.666992188 246 552 c 0
93.9990234375 562 m 0
 119.33203125 590.666992188 153.662109375 605 196.995117188 605 c 2
 208.995117188 605 l 2
 233.662109375 604.333007812 253.329101562 600.666015625 267.99609375 593.999023438 c 0
 314.663085938 572.666015625 344.99609375 529.666015625 358.99609375 464.999023438 c 0
 362.329101562 450.999023438 363.99609375 427.999023438 363.99609375 395.999023438 c 0
 363.99609375 345.999023438 360.329101562 306.999023438 352.99609375 278.999023438 c 0
 329.663085938 190.999023438 280.663085938 138.666015625 205.99609375 121.999023438 c 0
 190.663085938 118.666015625 165.99609375 116.999023438 131.99609375 116.999023438 c 0
 115.99609375 116.999023438 104.663085938 117.666015625 97.99609375 118.999023438 c 0
 91.99609375 121.666015625 88.99609375 130.666015625 88.99609375 145.999023438 c 0
 88.99609375 157.33203125 89.3291015625 163.83203125 89.99609375 165.499023438 c 0
 90.6630859375 167.166015625 93.330078125 167.666015625 97.9970703125 166.999023438 c 0
 113.330078125 163.666015625 128.330078125 161.999023438 142.997070312 161.999023438 c 0
 171.6640625 161.999023438 198.331054688 167.33203125 222.998046875 177.999023438 c 0
 248.998046875 189.999023438 269.331054688 209.83203125 283.998046875 237.499023438 c 0
 298.665039062 265.166015625 305.998046875 297.333007812 305.998046875 334 c 2
 305.998046875 363 l 1
 286.998046875 344 l 2
 265.665039062 320.666992188 240.665039062 307.666992188 211.998046875 305 c 0
 206.665039062 304.333007812 198.665039062 304 187.998046875 304 c 0
 146.665039062 304 114.165039062 316.5 90.498046875 341.5 c 0
 66.8310546875 366.5 54.998046875 401.333007812 54.998046875 446 c 0
 54.998046875 458 55.3310546875 467.333007812 55.998046875 474 c 0
 58.6650390625 508 71.33203125 537.333007812 93.9990234375 562 c 0
EndSplineSet
Validated: 524289
EndChar

StartChar: colon
Encoding: 58 58 29
Width: 179
GlyphClass: 2
Flags: W
LayerCount: 2
Fore
SplineSet
59 480 m 0
 64.3330078125 486.666992188 73.3330078125 490 86 490 c 0
 100 490 109.833007812 486.833007812 115.5 480.5 c 0
 121.166992188 474.166992188 124 464 124 450 c 0
 124 435.333007812 121.666992188 424.333007812 117 417 c 0
 113.666992188 411 110.666992188 407.5 108 406.5 c 0
 105.333007812 405.5 99.3330078125 405 90 405 c 0
 76.6669921875 405 66.6669921875 408.333007812 60 415 c 0
 53.3330078125 421.666992188 50 432.666992188 50 448 c 0
 50 461.333007812 53 472 59 480 c 0
60 193 m 0
 66 199.666992188 76 203 90 203 c 0
 115.333007812 203 128 190 128 164 c 0
 128 141.333007812 122.333007812 127.333007812 111 122 c 0
 104.333007812 118.666992188 96 117 86 117 c 0
 81.3330078125 117 76.3330078125 117.666992188 71 119 c 0
 57 123 50 137.333007812 50 162 c 0
 50 176 53.3330078125 186.333007812 60 193 c 0
EndSplineSet
Validated: 524289
EndChar

StartChar: semicolon
Encoding: 59 59 30
Width: 204
GlyphClass: 2
Flags: W
LayerCount: 2
Fore
SplineSet
114 398 m 0
 88.6669921875 398 76.0009765625 412.666015625 76.0009765625 441.999023438 c 0
 76.0009765625 456.666015625 79.333984375 467.333007812 86.0009765625 474 c 0
 91.333984375 480 101.000976562 483 115.000976562 483 c 0
 128.333984375 483 138.000976562 480 144.000976562 474 c 0
 150.000976562 468 153.000976562 458.333007812 153.000976562 445 c 0
 153.000976562 427.666992188 150.16796875 415.5 144.500976562 408.5 c 0
 138.833984375 401.5 128.666992188 398 114 398 c 0
82.0009765625 172.999023438 m 0
 82.66796875 181.666015625 83.501953125 187.33203125 84.501953125 189.999023438 c 0
 85.501953125 192.666015625 87.3349609375 194.666015625 90.001953125 195.999023438 c 0
 92.6689453125 197.33203125 97.6689453125 197.999023438 105.001953125 197.999023438 c 2
 117.001953125 197.999023438 l 2
 137.668945312 197.999023438 148.001953125 194.999023438 148.001953125 188.999023438 c 0
 148.001953125 169.666015625 134.668945312 128.666015625 108.001953125 65.9990234375 c 2
 94.001953125 33.9990234375 l 1
 73.001953125 31.9990234375 l 2
 59.6689453125 30.666015625 53.001953125 30.9990234375 53.001953125 32.9990234375 c 2
 54.001953125 39.9990234375 l 2
 55.3349609375 45.33203125 57.16796875 53.4990234375 59.5009765625 64.4990234375 c 0
 61.833984375 75.4990234375 64.0009765625 85.33203125 66.0009765625 93.9990234375 c 0
 68.0009765625 104.666015625 73.333984375 130.999023438 82.0009765625 172.999023438 c 0
EndSplineSet
Validated: 524289
EndChar

StartChar: less
Encoding: 60 60 31
Width: 426
GlyphClass: 2
Flags: W
LayerCount: 2
Fore
SplineSet
55 374 m 0
 143.666992188 416.666992188 248.66796875 468.33203125 370.000976562 528.999023438 c 1
 371.000976562 509.999023438 l 2
 372.333984375 496.666015625 372.333984375 488.666015625 371.000976562 485.999023438 c 0
 370.333984375 483.999023438 327.666992188 462.666015625 243 421.999023438 c 0
 161.666992188 383.33203125 121 362.33203125 121 358.999023438 c 0
 121 357.666015625 163.333007812 339.333007812 248 304 c 2
 370 253 l 1
 371 229 l 2
 372.333007812 213 372.333007812 205 371 205 c 0
 370.333007812 205 318 228 214 274 c 2
 57 343 l 2
 56.3330078125 346.333007812 56 351.5 56 358.5 c 0
 56 365.5 55.6669921875 370.666992188 55 374 c 0
EndSplineSet
Validated: 524289
EndChar

StartChar: equal
Encoding: 61 61 32
Width: 415
GlyphClass: 2
Flags: W
LayerCount: 2
Fore
SplineSet
53 402 m 1
 53 449 l 1
 362 449 l 1
 362 402 l 1
 53 402 l 1
53 267 m 1
 53 314 l 1
 362 314 l 1
 362 267 l 1
 53 267 l 1
EndSplineSet
Validated: 1
EndChar

StartChar: greater
Encoding: 62 62 33
Width: 426
GlyphClass: 2
Flags: W
LayerCount: 2
Fore
SplineSet
57 478 m 1
 56.3330078125 483.333007812 56.0009765625 491.16796875 56.0009765625 501.500976562 c 0
 56.0009765625 511.833984375 55.66796875 519.666992188 55.0009765625 525 c 1
 153.000976562 478 l 2
 189.000976562 460.666992188 241.66796875 434.666992188 311.000976562 400 c 2
 372.000976562 369 l 2
 372.000976562 365.666992188 371.66796875 360.666992188 371.000976562 354 c 0
 370.333984375 347.333007812 370.000976562 342.333007812 370.000976562 339 c 2
 214.000976562 270 l 2
 111.333984375 224.666992188 58.6669921875 202 56 202 c 0
 54.6669921875 202 54.6669921875 209.666992188 56 225 c 2
 57 249 l 1
 184 302 l 2
 268 337.333007812 310 355.333007812 310 356 c 0
 310 357.333007812 268 378 184 418 c 2
 57 478 l 1
EndSplineSet
Validated: 524289
EndChar

StartChar: question
Encoding: 63 63 34
Width: 369
GlyphClass: 2
Flags: W
LayerCount: 2
Fore
SplineSet
110 592 m 0
 129.333007812 598 156.334960938 601.002929688 191.001953125 601.002929688 c 0
 192.334960938 601.002929688 201.66796875 600.002929688 219.000976562 598.002929688 c 0
 246.333984375 594.669921875 269.666992188 582.669921875 289 562.002929688 c 0
 306.333007812 543.3359375 315 517.002929688 315 483.002929688 c 0
 315 463.002929688 311.166992188 446.169921875 303.5 432.502929688 c 0
 295.833007812 418.8359375 281 402.002929688 259 382.002929688 c 0
 224.333007812 351.3359375 203 330.168945312 195 318.501953125 c 0
 187 306.834960938 183 292.334960938 183 275.001953125 c 2
 183 256.001953125 l 1
 160 256.001953125 l 2
 144.666992188 256.001953125 137 257.668945312 137 261.001953125 c 0
 138.333007812 293.668945312 143.333007812 318.668945312 152 336.001953125 c 0
 157.333007812 346.001953125 174.333007812 364.334960938 203 391.001953125 c 0
 227 413.001953125 242.5 429.334960938 249.5 440.001953125 c 0
 256.5 450.668945312 260 463.668945312 260 479.001953125 c 2
 260 490.001953125 l 2
 259.333007812 502.668945312 258.166015625 511.168945312 256.499023438 515.501953125 c 0
 254.83203125 519.834960938 250.999023438 525.334960938 244.999023438 532.001953125 c 0
 235.666015625 541.334960938 226.666015625 547.001953125 217.999023438 549.001953125 c 0
 209.33203125 551.668945312 197.33203125 553.001953125 181.999023438 553.001953125 c 0
 143.999023438 553.001953125 112.33203125 546.668945312 86.9990234375 534.001953125 c 2
 72.9990234375 526.001953125 l 1
 63.9990234375 546.001953125 l 2
 58.666015625 558.001953125 55.9990234375 565.668945312 55.9990234375 569.001953125 c 0
 55.9990234375 570.334960938 62.33203125 573.66796875 74.9990234375 579.000976562 c 0
 87.666015625 584.333984375 99.3330078125 588.666992188 110 592 c 0
150.001953125 197.002929688 m 0
 155.334960938 198.3359375 159.334960938 199.002929688 162.001953125 199.002929688 c 0
 174.001953125 199.002929688 183.334960938 195.669921875 190.001953125 189.002929688 c 0
 196.668945312 181.002929688 200.001953125 169.002929688 200.001953125 153.002929688 c 2
 200.001953125 146.002929688 l 2
 199.334960938 136.002929688 195.334960938 127.8359375 188.001953125 121.502929688 c 0
 180.668945312 115.169921875 172.001953125 112.002929688 162.001953125 112.002929688 c 0
 159.334960938 112.002929688 155.334960938 112.669921875 150.001953125 114.002929688 c 0
 133.334960938 118.002929688 125.001953125 131.669921875 125.001953125 155.002929688 c 0
 125.001953125 178.3359375 133.334960938 192.3359375 150.001953125 197.002929688 c 0
EndSplineSet
Validated: 524289
EndChar

StartChar: at
Encoding: 64 64 35
Width: 625
GlyphClass: 2
Flags: W
LayerCount: 2
Fore
SplineSet
370 427 m 0
 362 428.333007812 352.66796875 428.999023438 342.000976562 428.999023438 c 0
 316.66796875 428.999023438 299.66796875 427.33203125 291.000976562 423.999023438 c 0
 275.000976562 416.666015625 261.333984375 402.333007812 250.000976562 381 c 0
 242.66796875 366.333007812 239.000976562 344.666015625 239.000976562 315.999023438 c 0
 239.000976562 294.666015625 241.333984375 279.333007812 246.000976562 270 c 0
 255.333984375 247.333007812 273.666992188 236 301 236 c 0
 328.333007812 236 348 247.666992188 360 271 c 0
 372 294.333007812 378 332.333007812 378 385 c 0
 378 404.333007812 377.666992188 416 377 420 c 0
 376.333007812 424 374 426.333007812 370 427 c 0
301.000976562 594.999023438 m 0
 308.333984375 595.666015625 318.66796875 595.998046875 332.000976562 595.998046875 c 0
 406.000976562 595.998046875 464.500976562 574.331054688 507.500976562 530.998046875 c 0
 550.500976562 487.665039062 572.000976562 430.665039062 572.000976562 359.998046875 c 0
 572.000976562 321.331054688 565.16796875 287.998046875 551.500976562 259.998046875 c 0
 537.833984375 231.998046875 519.000976562 212.998046875 495.000976562 202.998046875 c 0
 486.333984375 198.998046875 475.333984375 196.998046875 462.000976562 196.998046875 c 0
 448.000976562 196.998046875 437.000976562 198.998046875 429.000976562 202.998046875 c 0
 410.333984375 212.998046875 399.000976562 226.665039062 395.000976562 243.998046875 c 0
 394.333984375 247.998046875 393.500976562 250.831054688 392.500976562 252.498046875 c 0
 391.500976562 254.165039062 390.333984375 254.83203125 389.000976562 254.499023438 c 0
 387.66796875 254.166015625 386.16796875 252.999023438 384.500976562 250.999023438 c 0
 382.833984375 248.999023438 380.666992188 245.999023438 378 241.999023438 c 0
 359.333007812 211.999023438 330.666015625 196.999023438 291.999023438 196.999023438 c 0
 259.33203125 196.999023438 233.999023438 207.499023438 215.999023438 228.499023438 c 0
 197.999023438 249.499023438 188.999023438 279.666015625 188.999023438 318.999023438 c 0
 188.999023438 384.999023438 213.999023438 430.33203125 263.999023438 454.999023438 c 0
 281.33203125 463.666015625 305.33203125 467.999023438 335.999023438 467.999023438 c 0
 354.666015625 467.999023438 374.499023438 466.33203125 395.499023438 462.999023438 c 0
 416.499023438 459.666015625 426.999023438 455.666015625 426.999023438 450.999023438 c 0
 426.999023438 434.999023438 425.999023438 408.999023438 423.999023438 372.999023438 c 0
 422.666015625 353.666015625 421.999023438 331.333007812 421.999023438 306 c 0
 421.999023438 278 426.33203125 258.666992188 434.999023438 248 c 0
 441.666015625 240 451.333007812 236 464 236 c 0
 476.666992188 236 488 241 498 251 c 0
 518.666992188 271.666992188 529 307.666992188 529 359 c 0
 529 421.666992188 510.666992188 471 474 507 c 0
 450 529.666992188 420.333007812 545 385 553 c 0
 370.333007812 555.666992188 355.333007812 557 340 557 c 0
 299.333007812 557 268 553.333007812 246 546 c 0
 210 534.666992188 179.166992188 514.166992188 153.5 484.5 c 0
 127.833007812 454.833007812 110.666015625 420.333007812 101.999023438 381 c 0
 97.9990234375 365 95.9990234375 344 95.9990234375 318 c 0
 95.9990234375 277.333007812 99.9990234375 245.666015625 107.999023438 222.999023438 c 0
 119.999023438 191.666015625 135.999023438 167.166015625 155.999023438 149.499023438 c 0
 175.999023438 131.83203125 202.33203125 118.665039062 234.999023438 109.998046875 c 0
 250.33203125 106.665039062 265.665039062 104.998046875 280.998046875 104.998046875 c 0
 294.331054688 104.998046875 305.331054688 105.331054688 313.998046875 105.998046875 c 0
 349.998046875 107.331054688 390.998046875 114.331054688 436.998046875 126.998046875 c 0
 438.331054688 127.665039062 439.498046875 127.83203125 440.498046875 127.499023438 c 0
 441.498046875 127.166015625 442.165039062 126.499023438 442.498046875 125.499023438 c 0
 442.831054688 124.499023438 443.1640625 122.666015625 443.497070312 119.999023438 c 0
 443.830078125 117.33203125 443.997070312 113.999023438 443.997070312 109.999023438 c 0
 443.997070312 97.33203125 440.330078125 89.33203125 432.997070312 85.9990234375 c 0
 400.330078125 72.666015625 356.330078125 65.9990234375 300.997070312 65.9990234375 c 0
 285.6640625 65.9990234375 274.331054688 66.33203125 266.998046875 66.9990234375 c 0
 175.665039062 74.9990234375 112.33203125 114.33203125 76.9990234375 184.999023438 c 0
 60.9990234375 216.999023438 52.9990234375 257.33203125 52.9990234375 305.999023438 c 0
 52.9990234375 359.999023438 62.33203125 406.666015625 80.9990234375 445.999023438 c 0
 101.666015625 489.33203125 131.333007812 523.999023438 170 549.999023438 c 0
 208.666992188 575.999023438 252.333984375 590.999023438 301.000976562 594.999023438 c 0
EndSplineSet
Validated: 524289
EndChar

StartChar: A
Encoding: 65 65 36
Width: 478
GlyphClass: 2
Flags: W
LayerCount: 2
Fore
SplineSet
253 391 m 0
 241.666992188 395 229.333984375 396.997070312 216.000976562 396.997070312 c 0
 198.66796875 396.997070312 183.000976562 394.330078125 169.000976562 388.997070312 c 0
 142.333984375 378.997070312 122.000976562 359.6640625 108.000976562 330.997070312 c 0
 102.000976562 318.330078125 99.0009765625 301.997070312 99.0009765625 281.997070312 c 0
 99.0009765625 261.330078125 102.000976562 244.997070312 108.000976562 232.997070312 c 0
 112.66796875 222.997070312 121.16796875 212.330078125 133.500976562 200.997070312 c 0
 145.833984375 189.6640625 157.666992188 181.331054688 169 175.998046875 c 0
 178.333007812 171.331054688 193.333007812 168.998046875 214 168.998046875 c 0
 231.333007812 168.998046875 244.333007812 170.665039062 253 173.998046875 c 0
 268.333007812 179.331054688 283 189.331054688 297 203.998046875 c 0
 311 218.665039062 321.333007812 235.33203125 328 253.999023438 c 0
 331.333007812 261.33203125 333 267.999023438 333 273.999023438 c 0
 333 279.999023438 331.666992188 288.33203125 329 298.999023438 c 0
 316.333007812 347.666015625 291 378.333007812 253 391 c 0
373 419.997070312 m 0
 376.333007812 439.997070312 380.333007812 449.991210938 385 449.991210938 c 2
 387 449.991210938 l 2
 390.333007812 447.991210938 398 445.658203125 410 442.991210938 c 0
 416 441.658203125 420.166992188 440.158203125 422.5 438.491210938 c 0
 424.833007812 436.82421875 425.666015625 434.657226562 424.999023438 431.990234375 c 0
 424.999023438 431.323242188 423.999023438 427.323242188 421.999023438 419.990234375 c 0
 419.999023438 412.657226562 417.33203125 402.32421875 413.999023438 388.991210938 c 0
 410.666015625 375.658203125 407.333007812 363.325195312 404 351.9921875 c 2
 384 276.9921875 l 1
 404 202.9921875 l 2
 406.666992188 190.9921875 409.666992188 178.659179688 413 165.9921875 c 0
 416.333007812 153.325195312 418.666015625 143.9921875 419.999023438 137.9921875 c 2
 422.999023438 127.9921875 l 2
 422.999023438 127.325195312 416.666015625 124.825195312 403.999023438 120.4921875 c 0
 391.33203125 116.159179688 383.665039062 113.9921875 380.998046875 113.9921875 c 0
 378.998046875 113.9921875 374.331054688 127.9921875 366.998046875 155.9921875 c 2
 355.998046875 196.9921875 l 1
 328.998046875 169.9921875 l 2
 301.665039062 142.659179688 271.665039062 126.326171875 238.998046875 120.993164062 c 0
 228.331054688 119.66015625 219.998046875 118.993164062 213.998046875 118.993164062 c 0
 182.665039062 118.993164062 153.33203125 127.66015625 125.999023438 144.993164062 c 0
 98.666015625 162.326171875 78.3330078125 185.326171875 65 213.993164062 c 0
 59 225.993164062 55.5 235.326171875 54.5 241.993164062 c 0
 53.5 248.66015625 53 262.327148438 53 282.994140625 c 0
 53 303.661132812 53.5 317.328125 54.5 323.995117188 c 0
 55.5 330.662109375 59 339.995117188 65 351.995117188 c 0
 71.6669921875 366.662109375 82 381.329101562 96 395.99609375 c 0
 110 410.663085938 123.333007812 421.330078125 136 427.997070312 c 0
 160 439.997070312 185.333007812 445.997070312 212 445.997070312 c 0
 265.333007812 445.997070312 308 425.330078125 340 383.997070312 c 2
 357 361.997070312 l 1
 363 381.997070312 l 2
 369 403.997070312 372.333007812 416.6640625 373 419.997070312 c 0
EndSplineSet
Validated: 524289
EndChar

StartChar: B
Encoding: 66 66 37
Width: 430
GlyphClass: 2
Flags: W
HStem: 119 47.999<147.744 283.166> 396.999 45<145.164 281.734> 604.998 47.001<144.275 253.109>
VStem: 50 50<214.51 351.993 399.999 558.787> 259.001 49<513.896 599.686> 329 48<212.435 352.146>
LayerCount: 2
Fore
SplineSet
265 385 m 0
 249 393 232 396.999023438 214 396.999023438 c 0
 174.666992188 396.999023438 144 381.999023438 122 351.999023438 c 0
 108 333.33203125 101 311.33203125 101 285.999023438 c 2
 101 272.999023438 l 2
 103 244.33203125 113.666992188 220.33203125 133 200.999023438 c 0
 156.333007812 178.33203125 183.333007812 166.999023438 214 166.999023438 c 0
 246.666992188 166.999023438 274 177.83203125 296 199.499023438 c 0
 318 221.166015625 329 248.333007812 329 281 c 0
 329 330.333007812 307.666992188 365 265 385 c 0
153 641.999023438 m 0
 169 648.666015625 188.3359375 651.999023438 211.002929688 651.999023438 c 0
 231.002929688 651.999023438 247.002929688 648.999023438 259.002929688 642.999023438 c 0
 268.3359375 637.666015625 277.668945312 629.166015625 287.001953125 617.499023438 c 0
 296.334960938 605.83203125 302.66796875 593.665039062 306.000976562 580.998046875 c 0
 307.333984375 574.331054688 308.000976562 568.6640625 308.000976562 563.997070312 c 0
 308.000976562 542.6640625 302.333984375 523.6640625 291.000976562 506.997070312 c 2
 281.000976562 491.997070312 l 1
 264.000976562 508.997070312 l 2
 254.000976562 518.997070312 249.000976562 525.330078125 249.000976562 527.997070312 c 0
 249.000976562 529.330078125 250.333984375 531.997070312 253.000976562 535.997070312 c 0
 257.000976562 542.6640625 259.000976562 551.331054688 259.000976562 561.998046875 c 0
 259.000976562 573.331054688 254.66796875 583.331054688 246.000976562 591.998046875 c 0
 240.000976562 597.998046875 235.16796875 601.665039062 231.500976562 602.998046875 c 0
 227.833984375 604.331054688 220.666992188 604.998046875 210 604.998046875 c 0
 163.333007812 604.998046875 129.333007812 581.665039062 108 534.998046875 c 0
 102.666992188 523.665039062 100 498.33203125 100 458.999023438 c 2
 100 399.999023438 l 1
 117 412.999023438 l 2
 141.666992188 432.33203125 171.666992188 441.999023438 207 441.999023438 c 2
 220 441.999023438 l 2
 248 441.33203125 270.333007812 436.665039062 287 427.998046875 c 0
 301.666992188 420.665039062 316 409.83203125 330 395.499023438 c 0
 344 381.166015625 354.666992188 366.333007812 362 351 c 0
 372 328.333007812 377 305.333007812 377 282 c 0
 377 250 368.333007812 220.333007812 351 193 c 0
 333.666992188 165.666992188 309.666992188 145 279 131 c 0
 261.666992188 123 240 119 214 119 c 0
 188 119 166.333007812 123 149 131 c 0
 123.666992188 143 102.5 159.833007812 85.5 181.5 c 0
 68.5 203.166992188 57.6669921875 227 53 253 c 0
 51 266.333007812 50 297.666015625 50 346.999023438 c 2
 50 401.999023438 l 2
 50.6669921875 459.999023438 51.5 495.999023438 52.5 509.999023438 c 0
 53.5 523.999023438 56.3330078125 536.666015625 61 547.999023438 c 0
 69 568.666015625 81.3330078125 587.499023438 98 604.499023438 c 0
 114.666992188 621.499023438 133 633.999023438 153 641.999023438 c 0
EndSplineSet
Validated: 524289
EndChar

StartChar: C
Encoding: 67 67 38
Width: 403
GlyphClass: 2
Flags: W
LayerCount: 2
Fore
SplineSet
191 363 m 0
 280.333007812 414.333007812 325.333007812 440 326 440 c 0
 328 440 332 434.333007812 338 423 c 0
 344 411.666992188 347 404.333984375 347 401.000976562 c 0
 347 398.333984375 314 377.666992188 248 339 c 0
 184 302.333007812 151 283 149 281 c 0
 148.333007812 279.666992188 161.333007812 271.333984375 188 256.000976562 c 0
 197.333007812 250.66796875 214 241.000976562 238 227.000976562 c 1
 239 226.000976562 l 1
 240 226.000976562 l 1
 241 225.000976562 l 1
 242 225.000976562 l 1
 243 224.000976562 l 1
 244 223.000976562 l 1
 245 223.000976562 l 1
 246 222.000976562 l 1
 247 222.000976562 l 1
 248 221.000976562 l 1
 315.333007812 181.66796875 349 161.000976562 349 159.000976562 c 0
 349 155.000976562 345.5 147.66796875 338.5 137.000976562 c 0
 331.5 126.333984375 326.666992188 121.333984375 324 122.000976562 c 0
 309.333007812 129.333984375 263 155.666992188 185 201 c 0
 171 209 158 216.5 146 223.5 c 0
 134 230.5 123 237 113 243 c 0
 103 249 94.3330078125 254.333007812 87 259 c 0
 79.6669921875 263.666992188 73.5 267.666992188 68.5 271 c 0
 63.5 274.333007812 60 277 58 279 c 2
 54 282 l 1
 57.3330078125 285.333007812 103 312.333007812 191 363 c 0
EndSplineSet
Validated: 524321
EndChar

StartChar: D
Encoding: 68 68 39
Width: 428
GlyphClass: 2
Flags: W
LayerCount: 2
Fore
SplineSet
264 350 m 2
 214 390.000976562 l 2
 212 390.000976562 201.666992188 382.500976562 183 367.500976562 c 0
 164.333007812 352.500976562 147.333007812 337.333984375 132 322.000976562 c 0
 110.666992188 301.333984375 100 281.333984375 100 262.000976562 c 0
 100 254.000976562 101.333007812 246.000976562 104 238.000976562 c 0
 108 225.333984375 113.666992188 215.166992188 121 207.5 c 0
 128.333007812 199.833007812 139.666015625 192 154.999023438 184 c 0
 171.666015625 175.333007812 190.666015625 171 211.999023438 171 c 0
 246.666015625 171 274.833007812 179 296.5 195 c 0
 318.166992188 211 329 231.333007812 329 256 c 0
 329 268.666992188 326 281 320 293 c 0
 314.666992188 304.333007812 296 323.333007812 264 350 c 2
184 633.000976562 m 0
 192 641.000976562 197 645.500976562 199 646.500976562 c 0
 201 647.500976562 204 646.333984375 208 643.000976562 c 0
 214 637.000976562 219 631.000976562 223 625.000976562 c 2
 230 615.000976562 l 1
 218 600.000976562 l 2
 198.666992188 578.66796875 189 554.000976562 189 526.000976562 c 0
 189 511.333984375 192 497.666992188 198 485 c 0
 203.333007812 473 210.333007812 462.666992188 219 454 c 0
 227.666992188 445.333007812 249.666992188 426 285 396 c 0
 324.333007812 363.333007812 349 339.666015625 359 324.999023438 c 0
 369 310.33203125 374.666992188 289.999023438 376 263.999023438 c 0
 376 261.33203125 376.166992188 258.33203125 376.5 254.999023438 c 0
 376.833007812 251.666015625 377 249.333007812 377 248 c 0
 377 236.666992188 373 223 365 207 c 0
 351.666992188 179.666992188 331.5 158.5 304.5 143.5 c 0
 277.5 128.5 248 121 216 121 c 0
 184.666992188 121 155.166992188 128.333007812 127.5 143 c 0
 99.8330078125 157.666992188 79 178.666992188 65 206 c 0
 57.6669921875 220.666992188 54 238.333984375 54 259.000976562 c 0
 54 285.66796875 58.5 305.834960938 67.5 319.501953125 c 0
 76.5 333.168945312 100.666992188 357.001953125 140 391.001953125 c 2
 179 425.001953125 l 1
 171 435.001953125 l 2
 165.666992188 441.668945312 160 452.3359375 154 467.002929688 c 0
 146.666992188 482.3359375 143 502.668945312 143 528.001953125 c 0
 143 546.668945312 143.5 559.168945312 144.5 565.501953125 c 0
 145.5 571.834960938 149 580.66796875 155 592.000976562 c 0
 163 608.000976562 172.666992188 621.66796875 184 633.000976562 c 0
EndSplineSet
Validated: 524289
EndChar

StartChar: E
Encoding: 69 69 40
Width: 382
GlyphClass: 2
Flags: W
LayerCount: 2
Fore
SplineSet
160 447 m 0
 170 449 181 449.999023438 193 449.999023438 c 0
 245 449.999023438 284.333007812 439.666015625 311 418.999023438 c 2
 327 405.999023438 l 1
 293 371.999023438 l 1
 282 379.999023438 l 2
 264 393.33203125 237.333007812 399.999023438 202 399.999023438 c 0
 175.333007812 399.999023438 152 395.83203125 132 387.499023438 c 0
 112 379.166015625 102 368.666015625 102 355.999023438 c 0
 102 343.33203125 111.5 332.83203125 130.5 324.499023438 c 0
 149.5 316.166015625 173.666992188 311.999023438 203 311.999023438 c 2
 238 311.999023438 l 1
 238 260.999023438 l 1
 205 260.999023438 l 2
 175.666992188 260.999023438 151.166992188 256.83203125 131.5 248.499023438 c 0
 111.833007812 240.166015625 102 229.666015625 102 216.999023438 c 0
 102 204.33203125 111.666992188 193.33203125 131 183.999023438 c 0
 139.666992188 179.33203125 147.333984375 176.499023438 154.000976562 175.499023438 c 0
 160.66796875 174.499023438 175.334960938 173.999023438 198.001953125 173.999023438 c 0
 220.668945312 173.999023438 235.168945312 174.499023438 241.501953125 175.499023438 c 0
 247.834960938 176.499023438 257.001953125 179.999023438 269.001953125 185.999023438 c 2
 294.001953125 198.999023438 l 1
 308.668945312 184.33203125 320.001953125 173.33203125 328.001953125 165.999023438 c 1
 310.001953125 152.999023438 l 2
 283.334960938 134.999023438 252.66796875 124.999023438 218.000976562 122.999023438 c 0
 216.000976562 122.999023438 213.16796875 122.83203125 209.500976562 122.499023438 c 0
 205.833984375 122.166015625 203.000976562 121.999023438 201.000976562 121.999023438 c 0
 169.66796875 121.999023438 140.500976562 127.83203125 113.500976562 139.499023438 c 0
 86.5009765625 151.166015625 68.66796875 165.999023438 60.0009765625 183.999023438 c 0
 54.66796875 195.999023438 52.0009765625 206.666015625 52.0009765625 215.999023438 c 0
 52.0009765625 235.999023438 61.333984375 254.33203125 80.0009765625 270.999023438 c 2
 98.0009765625 285.999023438 l 1
 83.0009765625 296.999023438 l 2
 63.0009765625 311.666015625 53.0009765625 331.333007812 53.0009765625 356 c 0
 53.0009765625 366.666992188 54.66796875 375.666992188 58.0009765625 383 c 0
 64.0009765625 397.666992188 76.66796875 411 96.0009765625 423 c 0
 115.333984375 435 136.666992188 443 160 447 c 0
EndSplineSet
Validated: 524289
EndChar

StartChar: F
Encoding: 70 70 41
Width: 467
GlyphClass: 3
Flags: W
LayerCount: 2
Fore
SplineSet
102 436 m 2
 119.000976562 454.998046875 l 1
 136.000976562 440.998046875 l 1
 153.000976562 424.998046875 l 2
 153.000976562 422.998046875 146.66796875 413.998046875 134.000976562 397.998046875 c 0
 113.333984375 370.665039062 103.000976562 339.998046875 103.000976562 305.998046875 c 0
 103.000976562 261.331054688 118.000976562 225.331054688 148.000976562 197.998046875 c 0
 160.000976562 187.331054688 178.333984375 177.331054688 203.000976562 167.998046875 c 1
 203.000976562 257.998046875 l 2
 203.000976562 315.331054688 204.66796875 351.331054688 208.000976562 365.998046875 c 0
 213.333984375 391.331054688 229.000976562 413.331054688 255.000976562 431.998046875 c 0
 267.000976562 440.665039062 282.000976562 444.998046875 300.000976562 444.998046875 c 0
 328.66796875 444.998046875 352.000976562 435.331054688 370.000976562 415.998046875 c 0
 388.000976562 396.665039062 397.333984375 372.33203125 398.000976562 342.999023438 c 2
 399.000976562 316.999023438 l 1
 353.000976562 316.999023438 l 1
 351.000976562 340.999023438 l 2
 347.66796875 377.666015625 331.66796875 395.999023438 303.000976562 395.999023438 c 2
 297.000976562 395.999023438 l 2
 280.333984375 393.999023438 268.000976562 384.666015625 260.000976562 367.999023438 c 0
 256.000976562 359.999023438 254.000976562 324.33203125 254.000976562 260.999023438 c 2
 254.000976562 166.999023438 l 1
 273.000976562 169.999023438 l 2
 300.333984375 173.33203125 330.000976562 183.999023438 362.000976562 201.999023438 c 2
 387.000976562 215.999023438 l 1
 394.000976562 206.999023438 l 2
 394.66796875 205.666015625 396.66796875 202.499023438 400.000976562 197.499023438 c 2
 407.000976562 186.999023438 l 1
 413.000976562 175.999023438 l 1
 386.000976562 159.999023438 l 2
 354.000976562 140.666015625 320.66796875 128.666015625 286.000976562 123.999023438 c 0
 284.000976562 123.999023438 281.333984375 123.666015625 278.000976562 122.999023438 c 0
 266.000976562 121.666015625 258.833984375 117.666015625 256.500976562 110.999023438 c 0
 254.16796875 104.33203125 253.000976562 82.33203125 253.000976562 44.9990234375 c 2
 253.000976562 13.9990234375 l 1
 252.000976562 -90.0009765625 l 1
 205.000976562 -90.0009765625 l 1
 204.333984375 -66.66796875 204.000976562 -31.5009765625 204.000976562 15.4990234375 c 0
 204.000976562 62.4990234375 203.66796875 97.666015625 203.000976562 120.999023438 c 1
 190.000976562 122.999023438 l 2
 163.333984375 127.666015625 136.666992188 143.333007812 110 170 c 0
 72.6669921875 207.333007812 54 253 54 307 c 0
 54 357 70 400 102 436 c 2
EndSplineSet
Validated: 524289
Ligature2: "'rlig' Required Ligatures lookup 0 subtable" P h
Ligature2: "'rlig' Required Ligatures lookup 0 subtable" P H
EndChar

StartChar: G
Encoding: 71 71 42
Width: 620
GlyphClass: 2
Flags: W
LayerCount: 2
Fore
SplineSet
416 -19 m 0
 416 -15.6669921875 412.833007812 -0.6669921875 406.5 26 c 0
 400.166992188 52.6669921875 396 66 394 66 c 0
 393.333007812 66 387 43.6669921875 375 -1 c 0
 372.333007812 -14.3330078125 371 -21.3330078125 371 -22 c 0
 371 -24 372.333007812 -27.6669921875 375 -33 c 0
 379 -39 384.666992188 -42 392 -42 c 0
 398 -42 403.5 -39.8330078125 408.5 -35.5 c 0
 413.5 -31.1669921875 416 -25.6669921875 416 -19 c 0
160 434 m 0
 168.666992188 438 182.33203125 439.999023438 200.999023438 439.999023438 c 2
 218.999023438 439.999023438 l 2
 246.999023438 439.33203125 267.999023438 435.665039062 281.999023438 428.998046875 c 0
 315.999023438 412.331054688 340.999023438 388.331054688 356.999023438 356.998046875 c 0
 363.666015625 346.331054688 370.999023438 324.998046875 378.999023438 292.998046875 c 2
 389.999023438 250.998046875 l 1
 401.999023438 294.998046875 l 2
 411.33203125 326.331054688 418.999023438 347.6640625 424.999023438 358.997070312 c 0
 437.666015625 381.6640625 454.499023438 400.331054688 475.499023438 414.998046875 c 0
 496.499023438 429.665039062 518.666015625 437.998046875 541.999023438 439.998046875 c 2
 565.999023438 441.998046875 l 1
 565.999023438 417.998046875 l 2
 565.999023438 406.665039062 565.499023438 399.998046875 564.499023438 397.998046875 c 0
 563.499023438 395.998046875 560.33203125 394.998046875 554.999023438 394.998046875 c 0
 539.666015625 394.998046875 523.666015625 389.498046875 506.999023438 378.498046875 c 0
 490.33203125 367.498046875 477.33203125 354.331054688 467.999023438 338.998046875 c 0
 461.33203125 326.998046875 450.999023438 294.665039062 436.999023438 241.998046875 c 0
 424.33203125 194.665039062 417.999023438 166.998046875 417.999023438 158.998046875 c 0
 417.999023438 156.331054688 418.666015625 152.998046875 419.999023438 148.998046875 c 0
 425.999023438 131.665039062 433.666015625 105.33203125 442.999023438 69.9990234375 c 0
 455.666015625 25.33203125 461.999023438 -5.66796875 461.999023438 -23.0009765625 c 0
 461.999023438 -37.0009765625 457.999023438 -49.66796875 449.999023438 -61.0009765625 c 0
 435.999023438 -81.0009765625 416.999023438 -91.0009765625 392.999023438 -91.0009765625 c 0
 380.33203125 -91.0009765625 367.33203125 -87.0009765625 353.999023438 -79.0009765625 c 0
 333.33203125 -64.333984375 322.999023438 -46.0009765625 322.999023438 -24.0009765625 c 0
 322.999023438 -14.0009765625 330.666015625 18.666015625 345.999023438 73.9990234375 c 2
 369.999023438 158.999023438 l 1
 357.999023438 204.999023438 l 2
 352.666015625 224.33203125 347.166015625 242.165039062 341.499023438 258.498046875 c 0
 335.83203125 274.831054688 330.999023438 289.331054688 326.999023438 301.998046875 c 0
 316.33203125 339.998046875 296.33203125 366.665039062 266.999023438 381.998046875 c 0
 251.666015625 390.665039062 234.666015625 394.998046875 215.999023438 394.998046875 c 0
 199.999023438 394.998046875 183.33203125 390.998046875 165.999023438 382.998046875 c 0
 145.999023438 373.665039062 130.33203125 359.83203125 118.999023438 341.499023438 c 0
 107.666015625 323.166015625 101.999023438 303.333007812 101.999023438 282 c 0
 101.999023438 264 106.33203125 246.666992188 114.999023438 230 c 0
 133.666015625 193.333007812 161.666015625 172.333007812 198.999023438 167 c 2
 216.999023438 165 l 1
 216.999023438 119 l 1
 195.999023438 120 l 2
 162.666015625 122 132.333007812 136.333007812 105 163 c 0
 71 195 54 234 54 280 c 0
 54 322 68.3330078125 358.666992188 97 390 c 0
 114.333007812 409.333007812 135.333007812 424 160 434 c 0
EndSplineSet
Validated: 524289
EndChar

StartChar: H
Encoding: 72 72 43
Width: 382
GlyphClass: 3
Flags: W
LayerCount: 2
Fore
SplineSet
50 424 m 2
 49.9990234375 445 l 1
 99.9990234375 445 l 1
 99.9990234375 418 l 2
 99.9990234375 386 108.499023438 359.333007812 125.499023438 338 c 0
 142.499023438 316.666992188 163.666015625 306 188.999023438 306 c 0
 212.999023438 306 233.999023438 316.333007812 251.999023438 337 c 0
 271.999023438 359.666992188 281.999023438 387.333984375 281.999023438 420.000976562 c 2
 281.999023438 445.000976562 l 1
 331.999023438 445.000976562 l 1
 331.999023438 424.000976562 l 2
 331.999023438 376.66796875 315.999023438 335.334960938 283.999023438 300.001953125 c 2
 266.999023438 281.001953125 l 1
 283.999023438 261.001953125 l 2
 309.33203125 231.668945312 324.33203125 199.001953125 328.999023438 163.001953125 c 0
 330.999023438 150.334960938 331.999023438 140.66796875 331.999023438 134.000976562 c 0
 331.999023438 127.333984375 330.666015625 122.833984375 327.999023438 120.500976562 c 0
 325.33203125 118.16796875 320.999023438 117.000976562 314.999023438 117.000976562 c 2
 305.999023438 117.000976562 l 1
 283.999023438 119.000976562 l 1
 280.999023438 149.000976562 l 2
 279.666015625 169.66796875 276.999023438 184.66796875 272.999023438 194.000976562 c 0
 254.999023438 235.333984375 227.666015625 256.000976562 190.999023438 256.000976562 c 0
 167.666015625 256.000976562 147.333007812 246.333984375 130 227.000976562 c 0
 112.666992188 207.66796875 102.666992188 181.66796875 100 149.000976562 c 2
 98 119.000976562 l 1
 76 117.000976562 l 1
 66 117.000976562 l 2
 60 117.000976562 55.8330078125 118.000976562 53.5 120.000976562 c 0
 51.1669921875 122.000976562 50 126.333984375 50 133.000976562 c 0
 50 139.66796875 51 150.000976562 53 164.000976562 c 0
 58.3330078125 205.333984375 73 238.666992188 97 264 c 2
 114 281 l 1
 96 301 l 2
 65.3330078125 333.666992188 50 374.666992188 50 424 c 2
EndSplineSet
Validated: 524289
Ligature2: "'rlig' Required Ligatures lookup 0 subtable" K h
Ligature2: "'rlig' Required Ligatures lookup 0 subtable" K H
Ligature2: "'rlig' Required Ligatures lookup 0 subtable" C H
Ligature2: "'rlig' Required Ligatures lookup 0 subtable" C h
EndChar

StartChar: I
Encoding: 73 73 44
Width: 150
GlyphClass: 2
Flags: W
LayerCount: 2
Fore
SplineSet
50 117 m 1
 50 445 l 1
 100 445 l 1
 100 117 l 1
 50 117 l 1
EndSplineSet
Validated: 1
EndChar

StartChar: J
Encoding: 74 74 45
Width: 401
GlyphClass: 2
Flags: W
LayerCount: 2
Fore
SplineSet
54 398 m 1
 53.9990234375 444.997070312 l 1
 200.999023438 444.997070312 l 2
 298.33203125 444.997070312 346.999023438 443.6640625 346.999023438 440.997070312 c 0
 346.999023438 437.6640625 327.33203125 421.6640625 287.999023438 392.997070312 c 0
 259.33203125 371.6640625 241.83203125 357.6640625 235.499023438 350.997070312 c 0
 229.166015625 344.330078125 222.333007812 333.997070312 215 319.997070312 c 0
 201 291.997070312 194 261.330078125 194 227.997070312 c 0
 194 197.997070312 200 169.997070312 212 143.997070312 c 0
 219.333007812 128.6640625 234.666015625 109.331054688 257.999023438 85.998046875 c 0
 278.666015625 65.998046875 292.333007812 49.6650390625 299 36.998046875 c 0
 305.666992188 23.6650390625 309 9.998046875 309 -4.001953125 c 0
 309 -42.6689453125 289 -70.001953125 249 -86.001953125 c 0
 233.666992188 -92.001953125 225 -94.3349609375 223 -93.001953125 c 0
 221 -91.6689453125 218.333007812 -86.001953125 215 -76.001953125 c 0
 211.666992188 -66.001953125 210 -58.6689453125 210 -54.001953125 c 0
 210 -52.001953125 210.333007812 -51.001953125 211 -51.001953125 c 0
 234.333007812 -42.3349609375 249 -31.66796875 255 -19.0009765625 c 0
 258.333007812 -12.333984375 260 -6.6669921875 260 -2 c 0
 260 10 246 30.3330078125 218 59 c 0
 190.666992188 87 172 113.333007812 162 138 c 0
 152 162.666992188 147 194 147 232 c 0
 147 292 164 341.666992188 198 381 c 2
 213 398 l 1
 54 398 l 1
EndSplineSet
Validated: 524289
EndChar

StartChar: K
Encoding: 75 75 46
Width: 363
GlyphClass: 3
Flags: W
LayerCount: 2
Fore
SplineSet
72 654 m 1
 95.9990234375 654.00390625 l 1
 95.9990234375 629.00390625 l 1
 95.9990234375 475.00390625 l 1
 95.9990234375 296.00390625 l 1
 275.999023438 476.00390625 l 1
 291.999023438 459.00390625 l 1
 308.999023438 443.00390625 l 1
 206.999023438 341.00390625 l 1
 218.999023438 326.00390625 l 2
 244.33203125 293.336914062 262.665039062 257.669921875 273.998046875 219.002929688 c 0
 282.665039062 190.3359375 286.998046875 161.3359375 286.998046875 132.002929688 c 0
 286.998046875 127.3359375 286.665039062 124.668945312 285.998046875 124.001953125 c 0
 285.331054688 123.334960938 277.331054688 121.66796875 261.998046875 119.000976562 c 2
 239.998046875 117.000976562 l 1
 237.998046875 147.000976562 l 2
 234.665039062 189.000976562 222.33203125 227.66796875 200.999023438 263.000976562 c 0
 199.666015625 265.66796875 197.999023438 268.66796875 195.999023438 272.000976562 c 0
 193.999023438 275.333984375 192.33203125 278.000976562 190.999023438 280.000976562 c 0
 189.666015625 282.000976562 188.333007812 284.16796875 187 286.500976562 c 0
 185.666992188 288.833984375 184.5 290.500976562 183.5 291.500976562 c 0
 182.5 292.500976562 181.5 293.66796875 180.5 295.000976562 c 0
 179.5 296.333984375 178.5 297.166992188 177.5 297.5 c 0
 176.5 297.833007812 175.333007812 298 174 298 c 0
 170 298 157 287 135 265 c 2
 96 227 l 1
 96 117 l 1
 50 117 l 1
 50 653 l 1
 72 654 l 1
EndSplineSet
Validated: 524289
Ligature2: "'rlig' Required Ligatures lookup 0 subtable" C q
Ligature2: "'rlig' Required Ligatures lookup 0 subtable" C Q
Ligature2: "'rlig' Required Ligatures lookup 0 subtable" C k
Ligature2: "'rlig' Required Ligatures lookup 0 subtable" C K
EndChar

StartChar: L
Encoding: 76 76 47
Width: 407
GlyphClass: 2
Flags: W
LayerCount: 2
Fore
SplineSet
130 225 m 2
 129.333007812 225 123.8359375 207 113.502929688 171 c 0
 103.169921875 135 97.0029296875 117 95.0029296875 117 c 0
 91.0029296875 117 83.169921875 119.166992188 71.5029296875 123.5 c 0
 59.8359375 127.833007812 54.0029296875 130.666015625 54.0029296875 131.999023438 c 0
 54.0029296875 134.666015625 62.669921875 166.999023438 80.0029296875 228.999023438 c 0
 97.3359375 290.999023438 109.002929688 331.999023438 115.002929688 351.999023438 c 0
 163.002929688 506.666015625 213.3359375 604.999023438 266.002929688 646.999023438 c 0
 280.002929688 657.666015625 287.3359375 662.999023438 288.002929688 662.999023438 c 0
 289.3359375 662.999023438 294.668945312 656.999023438 304.001953125 644.999023438 c 2
 316.001953125 627.999023438 l 1
 290.001953125 603.999023438 l 2
 249.334960938 567.33203125 209.66796875 488.33203125 171.000976562 366.999023438 c 0
 154.333984375 317.666015625 145.666992188 290.333007812 145 285 c 2
 142 273 l 1
 206 237.666992188 275.666992188 198 351 154 c 1
 341 136 l 2
 333 122 328.666992188 115 328 115 c 0
 325.333007812 115 307.5 124.166992188 274.5 142.5 c 0
 241.5 160.833007812 209.333007812 179.333007812 178 198 c 2
 130 225 l 2
EndSplineSet
Validated: 524289
EndChar

StartChar: M
Encoding: 77 77 48
Width: 429
GlyphClass: 2
Flags: W
LayerCount: 2
Fore
SplineSet
50 373 m 2
 49.9990234375 445 l 1
 94.9990234375 445 l 1
 97.9990234375 409 l 2
 103.999023438 324.333007812 130.999023438 270 178.999023438 246 c 0
 192.33203125 240 203.999023438 237 213.999023438 237 c 0
 221.33203125 237 228.665039062 238.333007812 235.998046875 241 c 0
 261.998046875 249.666992188 283.831054688 271.333984375 301.498046875 306.000976562 c 0
 319.165039062 340.66796875 327.998046875 378.66796875 327.998046875 420.000976562 c 2
 327.998046875 445.000976562 l 1
 378.998046875 445.000976562 l 1
 376.998046875 427.000976562 l 2
 374.998046875 407.000976562 373.998046875 353.000976562 373.998046875 265.000976562 c 2
 373.998046875 120.000976562 l 1
 327.998046875 120.000976562 l 1
 327.998046875 256.000976562 l 1
 307.998046875 235.000976562 l 2
 293.998046875 220.333984375 279.331054688 209.000976562 263.998046875 201.000976562 c 0
 248.665039062 193.66796875 236.33203125 190.000976562 226.999023438 190.000976562 c 0
 219.666015625 190.000976562 213.333007812 190.333984375 208 191.000976562 c 0
 172 193.000976562 141.666992188 207.000976562 117 233.000976562 c 0
 105.666992188 245.66796875 99 252.000976562 97 252.000976562 c 0
 96.3330078125 248.66796875 96 244.000976562 96 238.000976562 c 0
 96 231.333984375 96.6669921875 214.000976562 98 186.000976562 c 2
 101 120.000976562 l 1
 55 120.000976562 l 1
 53 210.000976562 l 2
 51 259.333984375 50 313.666992188 50 373 c 2
EndSplineSet
Validated: 524289
EndChar

StartChar: N
Encoding: 78 78 49
Width: 357
GlyphClass: 2
Flags: W
LayerCount: 2
Fore
SplineSet
50 120 m 1
 50 449 l 1
 55.3330078125 448.333007812 63.3330078125 448 74 448 c 0
 84.6669921875 448 92.6669921875 447.666992188 98 447 c 1
 97 390 l 1
 97 363 l 2
 97 343.666992188 98.3330078125 333 101 331 c 0
 101.666992188 331 103.5 330.666992188 106.5 330 c 0
 109.5 329.333007812 113.333007812 328.5 118 327.5 c 0
 122.666992188 326.5 127 325.666992188 131 325 c 0
 176.333007812 316.333007812 215.333007812 297.333007812 248 268 c 2
 258 258 l 1
 258 449 l 1
 263.333007812 448.333007812 271.5 448 282.5 448 c 0
 293.5 448 301.666992188 447.666992188 307 447 c 1
 307 432 l 2
 307 431.333007812 306.833007812 422.833007812 306.5 406.5 c 0
 306.166992188 390.166992188 306 369.166992188 306 343.5 c 2
 306 269 l 2
 305.333007812 169.666992188 303.333007812 120 300 120 c 0
 297.333007812 120 288 133 272 159 c 0
 248 199.666992188 222.666992188 229 196 247 c 0
 168.666992188 265 141 276.333007812 113 281 c 2
 96 283 l 1
 96 120 l 1
 50 120 l 1
EndSplineSet
Validated: 524289
EndChar

StartChar: O
Encoding: 79 79 50
Width: 432
GlyphClass: 2
Flags: W
LayerCount: 2
Fore
SplineSet
255 388 m 0
 242.333007812 392 229.333007812 393.999023438 216 393.999023438 c 0
 171.333007812 393.999023438 138 375.33203125 116 337.999023438 c 0
 108 323.999023438 104 304.33203125 104 278.999023438 c 0
 104 262.33203125 106 248.33203125 110 236.999023438 c 0
 114.666992188 224.999023438 123.833984375 212.33203125 137.500976562 198.999023438 c 0
 151.16796875 185.666015625 164.000976562 176.999023438 176.000976562 172.999023438 c 0
 189.333984375 168.999023438 202.666992188 166.999023438 216 166.999023438 c 0
 235.333007812 166.999023438 251.666015625 170.33203125 264.999023438 176.999023438 c 0
 285.666015625 187.666015625 301.833007812 202.333007812 313.5 221 c 0
 325.166992188 239.666992188 331 260 331 282 c 0
 331 299.333007812 327 316 319 332 c 0
 313 344 303.833007812 355.333007812 291.5 366 c 0
 279.166992188 376.666992188 267 384 255 388 c 0
179 438.999023438 m 0
 193.666992188 442.33203125 206.333984375 444.000976562 217.000976562 444.000976562 c 0
 260.333984375 444.000976562 298.166992188 427.833984375 330.5 395.500976562 c 0
 362.833007812 363.16796875 379 324.66796875 379 280.000976562 c 0
 379 269.333984375 378 258.666992188 376 248 c 0
 369.333007812 216.666992188 354 189.333984375 330 166.000976562 c 0
 297.333007812 134.000976562 260 118.000976562 218 118.000976562 c 2
 206 118.000976562 l 2
 154.666992188 121.333984375 114 143.666992188 84 185 c 0
 64 212.333007812 54 243.666015625 54 278.999023438 c 0
 54 315.666015625 64.6669921875 348.666015625 86 377.999023438 c 0
 108 408.666015625 139 428.999023438 179 438.999023438 c 0
EndSplineSet
Validated: 524289
EndChar

StartChar: P
Encoding: 80 80 51
Width: 434
GlyphClass: 2
Flags: W
LayerCount: 2
Fore
SplineSet
54 395 m 1
 54 445 l 1
 90.6669921875 444.333007812 145 444 217 444 c 0
 289 444 343.333007812 443.666992188 380 443 c 1
 380 397 l 1
 344 395 l 1
 308 394 l 1
 310 294 l 1
 311 194 l 1
 323 181 l 2
 331 173 342.666992188 168.333007812 358 167 c 2
 380 165 l 1
 380 119 l 1
 364 117 l 1
 357 117 l 2
 340.333007812 117 324.5 121.5 309.5 130.5 c 0
 294.5 139.5 282.666992188 151.666992188 274 167 c 0
 269.333007812 175.666992188 266.5 185.166992188 265.5 195.5 c 0
 264.5 205.833007812 263.666992188 237.333007812 263 290 c 2
 262 395 l 1
 169 395 l 1
 169.666992188 341 170 260.166992188 170 152.5 c 0
 170 44.8330078125 170.333007812 -36 171 -90 c 1
 165.666992188 -90 157.666992188 -90.3330078125 147 -91 c 0
 136.333007812 -91.6669921875 128.333007812 -92 123 -92 c 1
 123 395 l 1
 54 395 l 1
EndSplineSet
Validated: 524289
EndChar

StartChar: Q
Encoding: 81 81 52
Width: 432
GlyphClass: 2
Flags: W
LayerCount: 2
Fore
SplineSet
267 385 m 0
 250.333007812 393.666992188 232.998046875 397.999023438 214.998046875 397.999023438 c 0
 170.331054688 397.999023438 135.998046875 376.33203125 111.998046875 332.999023438 c 0
 106.665039062 322.33203125 103.998046875 305.999023438 103.998046875 283.999023438 c 0
 103.998046875 259.999023438 106.998046875 242.33203125 112.998046875 230.999023438 c 0
 120.331054688 217.666015625 132.331054688 204.333007812 148.998046875 191 c 0
 165.665039062 177.666992188 178.665039062 171 187.998046875 171 c 0
 190.665039062 171 191.998046875 181.666992188 191.998046875 203 c 2
 191.998046875 236 l 1
 241.998046875 236 l 1
 241.998046875 203 l 2
 241.998046875 181.666992188 243.665039062 171 246.998046875 171 c 0
 251.665039062 171 260.83203125 175.666992188 274.499023438 185 c 0
 288.166015625 194.333007812 298.333007812 202.666015625 305 209.999023438 c 0
 321.666992188 229.33203125 330 252.999023438 330 280.999023438 c 2
 330 289.999023438 l 2
 326.666992188 334.666015625 305.666992188 366.333007812 267 385 c 0
165.998046875 437.999023438 m 0
 177.998046875 441.999023438 192.331054688 443.998046875 208.998046875 443.998046875 c 2
 221.998046875 443.998046875 l 2
 265.998046875 441.998046875 302.665039062 425.998046875 331.998046875 395.998046875 c 0
 363.998046875 362.665039062 379.998046875 326.665039062 379.998046875 287.998046875 c 0
 379.998046875 281.998046875 379.331054688 272.998046875 377.998046875 260.998046875 c 0
 373.331054688 225.665039062 356.998046875 194.33203125 328.998046875 166.999023438 c 0
 306.331054688 145.666015625 282.6640625 131.666015625 257.997070312 124.999023438 c 2
 241.997070312 119.999023438 l 1
 241.997070312 50.9990234375 l 1
 191.997070312 50.9990234375 l 1
 191.997070312 119.999023438 l 1
 174.997070312 124.999023438 l 2
 138.997070312 134.999023438 109.830078125 154.499023438 87.4970703125 183.499023438 c 0
 65.1640625 212.499023438 53.9970703125 245.33203125 53.9970703125 281.999023438 c 0
 53.9970703125 287.33203125 54.6640625 295.999023438 55.9970703125 307.999023438 c 0
 66.6640625 371.999023438 103.331054688 415.33203125 165.998046875 437.999023438 c 0
EndSplineSet
Validated: 524289
EndChar

StartChar: R
Encoding: 82 82 53
Width: 377
GlyphClass: 3
Flags: W
LayerCount: 2
Fore
SplineSet
50 117 m 1
 49.9990234375 441.00390625 l 1
 95.9990234375 441.00390625 l 1
 95.9990234375 411.00390625 l 1
 122.999023438 424.00390625 l 2
 145.666015625 435.336914062 167.999023438 441.00390625 189.999023438 441.00390625 c 0
 219.33203125 441.00390625 246.165039062 432.170898438 270.498046875 414.50390625 c 0
 294.831054688 396.836914062 311.6640625 373.00390625 320.997070312 343.00390625 c 0
 324.997070312 329.00390625 326.997070312 315.00390625 326.997070312 301.00390625 c 0
 326.997070312 276.336914062 320.830078125 253.169921875 308.497070312 231.502929688 c 0
 296.1640625 209.8359375 278.997070312 192.668945312 256.997070312 180.001953125 c 0
 239.6640625 168.668945312 222.331054688 163.001953125 204.998046875 163.001953125 c 1
 201.998046875 164.001953125 l 1
 195.331054688 182.001953125 191.998046875 194.668945312 191.998046875 202.001953125 c 0
 191.998046875 205.334960938 192.665039062 207.001953125 193.998046875 207.001953125 c 0
 220.665039062 215.001953125 239.33203125 224.001953125 249.999023438 234.001953125 c 0
 269.999023438 251.334960938 279.999023438 273.66796875 279.999023438 301.000976562 c 0
 279.999023438 323.66796875 272.666015625 343.66796875 257.999023438 361.000976562 c 0
 239.999023438 383.000976562 216.999023438 394.000976562 188.999023438 394.000976562 c 0
 149.666015625 394.000976562 121.333007812 375.66796875 104 339.000976562 c 0
 98.6669921875 328.333984375 96 288.666992188 96 220 c 2
 96 117 l 1
 50 117 l 1
EndSplineSet
Validated: 524289
Ligature2: "'rlig' Required Ligatures lookup 0 subtable" R h
Ligature2: "'rlig' Required Ligatures lookup 0 subtable" R H
EndChar

StartChar: S
Encoding: 83 83 54
Width: 402
GlyphClass: 3
Flags: W
LayerCount: 2
Fore
SplineSet
187 444 m 0
 201 446.666992188 212.333984375 448 221.000976562 448 c 0
 227.000976562 448 235.333984375 447 246.000976562 445 c 0
 278.66796875 439.666992188 307.000976562 425 331.000976562 401 c 2
 348.000976562 383 l 1
 340.000976562 375.666992188 328.66796875 364 314.000976562 348 c 1
 298.000976562 364 l 2
 286.66796875 375.333007812 276.334960938 383.333007812 267.001953125 388 c 0
 254.334960938 394.666992188 238.001953125 398 218.001953125 398 c 0
 204.001953125 398 191.001953125 396.333007812 179.001953125 393 c 0
 156.334960938 385.666992188 138.001953125 371.666992188 124.001953125 351 c 0
 110.001953125 330.333007812 103.001953125 307.666015625 103.001953125 282.999023438 c 0
 103.001953125 270.33203125 105.001953125 257.33203125 109.001953125 243.999023438 c 0
 117.668945312 219.33203125 132.168945312 201.83203125 152.501953125 191.499023438 c 0
 172.834960938 181.166015625 206.66796875 173.333007812 254.000976562 168 c 0
 288.000976562 164.666992188 312.66796875 151.666992188 328.000976562 129 c 0
 339.333984375 112.333007812 345.000976562 94.666015625 345.000976562 75.9990234375 c 0
 345.000976562 66.666015625 343.66796875 57.9990234375 341.000976562 49.9990234375 c 0
 328.333984375 5.9990234375 299.333984375 -16.0009765625 254.000976562 -16.0009765625 c 2
 229.000976562 -17.0009765625 l 1
 229.000976562 29.9990234375 l 1
 251.000976562 31.9990234375 l 2
 266.333984375 33.33203125 277.666992188 37.9990234375 285 45.9990234375 c 0
 292.333007812 53.9990234375 296 63.9990234375 296 75.9990234375 c 0
 296 88.666015625 292 98.9990234375 284 106.999023438 c 0
 278 112.999023438 272.5 116.83203125 267.5 118.499023438 c 0
 262.5 120.166015625 251.333007812 121.333007812 234 122 c 0
 210.666992188 123.333007812 192 125.333007812 178 128 c 0
 141.333007812 136.666992188 111.5 155.666992188 88.5 185 c 0
 65.5 214.333007812 54 247.666015625 54 284.999023438 c 0
 54 296.999023438 54.6669921875 305.999023438 56 311.999023438 c 0
 62 345.999023438 77.3330078125 375.33203125 102 399.999023438 c 0
 126.666992188 424.666015625 155 439.333007812 187 444 c 0
EndSplineSet
Validated: 524289
Ligature2: "'rlig' Required Ligatures lookup 0 subtable" S c
Ligature2: "'rlig' Required Ligatures lookup 0 subtable" S C
EndChar

StartChar: T
Encoding: 84 84 55
Width: 436
GlyphClass: 2
Flags: W
LayerCount: 2
Fore
SplineSet
54 398 m 1
 54 449 l 1
 382 449 l 1
 382 398 l 1
 243 398 l 1
 243 197 l 1
 256 184 l 2
 264.666992188 175.333007812 276.333984375 171 291.000976562 171 c 2
 313.000976562 171 l 1
 313.000976562 120 l 1
 291.000976562 120 l 2
 266.333984375 120 243.666992188 129.666992188 223 149 c 0
 209 161.666992188 200.833007812 174.166992188 198.5 186.5 c 0
 196.166992188 198.833007812 194.666992188 234.333007812 194 293 c 2
 193 398 l 1
 54 398 l 1
EndSplineSet
Validated: 524289
EndChar

StartChar: U
Encoding: 85 85 56
Width: 359
GlyphClass: 2
Flags: W
HStem: 113 48.9971<123.834 235.217> 419.997 20G<50.0009 100.001 258.828 309>
VStem: 50 50.001<227 439.997> 258 50<203.52 439.998>
LayerCount: 2
Fore
SplineSet
50 227 m 5
 50.0009765625 439.997070312 l 5
 100.000976562 439.997070312 l 5
 100.000976562 331.997070312 l 6
 100.000976562 274.6640625 101.16796875 238.497070312 103.500976562 223.497070312 c 4
 105.833984375 208.497070312 111.666992188 195.997070312 121 185.997070312 c 4
 136.333007812 169.997070312 155.333007812 161.997070312 178 161.997070312 c 6
 186 161.997070312 l 6
 202.666992188 162.6640625 216 167.331054688 226 175.998046875 c 4
 240.666992188 187.331054688 249 196.331054688 251 202.998046875 c 4
 255 213.665039062 257.333007812 253.998046875 258 323.998046875 c 6
 259 439.998046875 l 5
 309 439.998046875 l 5
 308 324.998046875 l 6
 307.333007812 271.665039062 306.5 238.33203125 305.5 224.999023438 c 4
 304.5 211.666015625 302 200.333007812 298 191 c 4
 284.666992188 161 264 139.333007812 236 126 c 4
 219.333007812 117.333007812 199.666015625 113 176.999023438 113 c 4
 157.666015625 113 141.333007812 116.333007812 128 123 c 4
 98 138.333007812 76 163.333007812 62 198 c 6
 50 227 l 5
EndSplineSet
Validated: 524289
EndChar

StartChar: V
Encoding: 86 86 57
Width: 486
GlyphClass: 2
Flags: W
LayerCount: 2
Fore
SplineSet
255 198 m 0
 256.333007812 198 279.5 237.166015625 324.5 315.499023438 c 0
 369.5 393.83203125 393 432.999023438 395 432.999023438 c 0
 397.666992188 432.999023438 404.5 429.499023438 415.5 422.499023438 c 0
 426.5 415.499023438 432 411.33203125 432 409.999023438 c 0
 432 408.666015625 410.833007812 370.333007812 368.5 295 c 0
 326.166992188 219.666992188 300 173.666992188 290 157 c 2
 283 146 l 1
 305 107 l 2
 317.666992188 85 324 72.6669921875 324 70 c 0
 324 65.3330078125 316 59 300 51 c 2
 286 43 l 1
 265 79 l 2
 261 85 251.333007812 101.833007812 236 129.5 c 0
 220.666992188 157.166992188 208.666992188 178 200 192 c 0
 178.666992188 229.333007812 147 284 105 356 c 0
 71 413.333007812 54 443.333007812 54 446 c 0
 54 447.333007812 88 448 156 448 c 2
 257 447 l 1
 257 400 l 1
 198 399 l 2
 158.666992188 399 139 398 139 396 c 0
 139 394 158 360.5 196 295.5 c 0
 234 230.5 253.666992188 198 255 198 c 0
EndSplineSet
Validated: 524289
EndChar

StartChar: W
Encoding: 87 87 58
Width: 473
GlyphClass: 2
Flags: W
HStem: 111 332.998
LayerCount: 2
Fore
SplineSet
75 432 m 5
 96 443.998046875 l 6
 97.3330078125 443.998046875 126.666015625 393.665039062 183.999023438 292.998046875 c 4
 213.999023438 240.331054688 230.999023438 211.998046875 234.999023438 207.998046875 c 4
 235.666015625 207.331054688 236.333007812 206.998046875 237 206.998046875 c 4
 239.666992188 206.998046875 249 220.665039062 265 247.998046875 c 6
 290 291.998046875 l 5
 254 354.998046875 l 6
 229.333007812 396.998046875 217 418.331054688 217 418.998046875 c 4
 217 420.998046875 222.333007812 425.165039062 233 431.498046875 c 4
 243.666992188 437.831054688 251.666992188 440.998046875 257 440.998046875 c 4
 257.666992188 440.998046875 258.666992188 440.331054688 260 438.998046875 c 6
 274 414.998046875 l 5
 304 366.998046875 l 5
 318 342.998046875 l 6
 319.333007812 342.998046875 328 357.665039062 344 386.998046875 c 4
 356 409.665039062 364.166992188 424.33203125 368.5 430.999023438 c 4
 372.833007812 437.666015625 377 440.999023438 381 440.999023438 c 4
 383.666992188 440.999023438 389.666992188 437.999023438 399 431.999023438 c 6
 419 419.999023438 l 5
 412 407.999023438 l 6
 362 320.666015625 332 268.333007812 322 251 c 4
 268 157.666992188 239.333007812 111 236 111 c 6
 235 111 l 6
 233.666992188 112.333007812 204.5 162 147.5 260 c 4
 90.5 358 61.6669921875 407.333007812 61 408 c 6
 54 420 l 5
 75 432 l 5
EndSplineSet
Validated: 524289
EndChar

StartChar: X
Encoding: 88 88 59
Width: 476
GlyphClass: 3
Flags: W
LayerCount: 2
Fore
SplineSet
59 447 m 0
 59 448.333007812 119.333984375 448.998046875 240.000976562 448.998046875 c 2
 422.000976562 448.998046875 l 1
 373.000976562 374.998046875 l 2
 340.333984375 326.998046875 322.333984375 302.998046875 319.000976562 302.998046875 c 0
 316.333984375 302.998046875 309.666992188 306.998046875 299 314.998046875 c 2
 283 324.998046875 l 1
 305 358.998046875 l 2
 308.333007812 363.665039062 312.166015625 369.165039062 316.499023438 375.498046875 c 0
 320.83203125 381.831054688 324.33203125 386.998046875 326.999023438 390.998046875 c 0
 329.666015625 394.998046875 330.999023438 397.331054688 330.999023438 397.998046875 c 0
 330.999023438 400.665039062 300.33203125 401.998046875 238.999023438 401.998046875 c 2
 143.999023438 401.998046875 l 1
 166.666015625 368.665039062 183.333007812 343.665039062 194 326.998046875 c 1
 184 318.998046875 l 2
 168.666992188 307.665039062 159 301.998046875 155 301.998046875 c 2
 154 301.998046875 l 2
 152 304.665039062 135.666992188 329.33203125 105 375.999023438 c 0
 74.3330078125 422.666015625 59 446.333007812 59 447 c 0
190.000976562 262.998046875 m 1
 190.000976562 309.998046875 l 1
 287.000976562 309.998046875 l 1
 287.000976562 262.998046875 l 1
 190.000976562 262.998046875 l 1
95.0009765625 178.998046875 m 0
 97.0009765625 182.331054688 106.99609375 198.49609375 124.99609375 227.49609375 c 0
 142.99609375 256.49609375 152.99609375 270.99609375 154.99609375 270.99609375 c 0
 157.663085938 270.99609375 164.330078125 267.163085938 174.997070312 259.49609375 c 0
 185.6640625 251.829101562 190.997070312 246.329101562 190.997070312 242.99609375 c 0
 190.997070312 242.329101562 189.830078125 240.329101562 187.497070312 236.99609375 c 0
 185.1640625 233.663085938 181.831054688 228.830078125 177.498046875 222.497070312 c 0
 173.165039062 216.1640625 169.33203125 210.331054688 165.999023438 204.998046875 c 2
 143.999023438 170.998046875 l 1
 333.999023438 170.998046875 l 1
 310.999023438 204.998046875 l 2
 307.666015625 210.331054688 303.833007812 215.998046875 299.5 221.998046875 c 0
 295.166992188 227.998046875 291.833984375 232.665039062 289.500976562 235.998046875 c 0
 287.16796875 239.331054688 286.000976562 241.331054688 286.000976562 241.998046875 c 0
 286.000976562 244.665039062 291.16796875 250.165039062 301.500976562 258.498046875 c 0
 311.833984375 266.831054688 318.666992188 270.998046875 322 270.998046875 c 2
 323 270.998046875 l 1
 373 196.998046875 l 1
 421 123.998046875 l 1
 285 123.998046875 l 2
 179.666992188 123.998046875 118.333984375 123.331054688 101.000976562 121.998046875 c 2
 54.0009765625 118.998046875 l 1
 72.0009765625 143.998046875 l 2
 80.0009765625 155.998046875 87.66796875 167.665039062 95.0009765625 178.998046875 c 0
EndSplineSet
Validated: 524289
Ligature2: "'rlig' Required Ligatures lookup 0 subtable" K S
Ligature2: "'rlig' Required Ligatures lookup 0 subtable" K s
Ligature2: "'rlig' Required Ligatures lookup 0 subtable" C c
Ligature2: "'rlig' Required Ligatures lookup 0 subtable" C C
EndChar

StartChar: Y
Encoding: 89 89 60
Width: 150
GlyphClass: 2
Flags: W
LayerCount: 2
Fore
SplineSet
33 598 m 2
 33 564.666992188 48.3330078125 547.999023438 79 547.999023438 c 0
 90.3330078125 547.999023438 100.333007812 552.33203125 109 560.999023438 c 0
 117.666992188 569.666015625 122 581.333007812 122 596 c 2
 122 618 l 1
 172 618 l 1
 172 601 l 2
 172 571 162.5 546.333007812 143.5 527 c 0
 124.5 507.666992188 102 498 76 498 c 0
 64.6669921875 498 52.6669921875 500.666992188 40 506 c 0
 4.6669921875 521.333007812 -14.3330078125 550 -17 592 c 2
 -19 618 l 1
 33 618 l 1
 33 598 l 2
52 113.999023438 m 1
 52 442.999023438 l 1
 102 442.999023438 l 1
 102 113.999023438 l 1
 52 113.999023438 l 1
EndSplineSet
Validated: 524289
EndChar

StartChar: Z
Encoding: 90 90 61
Width: 398
GlyphClass: 2
Flags: W
LayerCount: 2
Fore
SplineSet
51 393 m 1
 51.0029296875 442.99609375 l 1
 344.002929688 442.99609375 l 1
 328.002929688 428.99609375 l 2
 325.3359375 426.99609375 317.168945312 419.829101562 303.501953125 407.49609375 c 0
 289.834960938 395.163085938 278.66796875 385.663085938 270.000976562 378.99609375 c 0
 218.66796875 335.663085938 178.16796875 296.330078125 148.500976562 260.997070312 c 0
 118.833984375 225.6640625 104.000976562 199.331054688 104.000976562 181.998046875 c 0
 104.000976562 177.998046875 104.333984375 175.331054688 105.000976562 173.998046875 c 2
 109.000976562 163.998046875 l 1
 330.000976562 163.998046875 l 1
 332.000976562 142.998046875 l 2
 334.66796875 128.998046875 334.66796875 120.665039062 332.000976562 117.998046875 c 0
 330.000976562 115.331054688 290.66796875 113.998046875 214.000976562 113.998046875 c 0
 156.66796875 113.998046875 122.500976562 114.331054688 111.500976562 114.998046875 c 0
 100.500976562 115.665039062 92.0009765625 118.33203125 86.0009765625 122.999023438 c 0
 75.333984375 130.33203125 67.6669921875 138.999023438 63 148.999023438 c 0
 57.6669921875 159.666015625 55 170.333007812 55 181 c 0
 55 219 89.3330078125 272.666992188 158 342 c 2
 209 393 l 1
 51 393 l 1
EndSplineSet
Validated: 524289
EndChar

StartChar: bracketleft
Encoding: 91 91 62
Width: 256
GlyphClass: 2
Flags: W
LayerCount: 2
Fore
SplineSet
50 12 m 1
 50 599 l 1
 201 599 l 1
 201 553 l 1
 108 553 l 1
 108 59 l 1
 201 59 l 1
 201 12 l 1
 50 12 l 1
EndSplineSet
Validated: 1
EndChar

StartChar: backslash
Encoding: 92 92 63
Width: 341
GlyphClass: 2
Flags: W
LayerCount: 2
Fore
SplineSet
109 459 m 2
 54.9990234375 603.001953125 l 1
 60.9990234375 602.334960938 69.9990234375 602.001953125 81.9990234375 602.001953125 c 0
 93.9990234375 602.001953125 102.999023438 601.668945312 108.999023438 601.001953125 c 1
 195.999023438 371.001953125 l 2
 253.999023438 215.001953125 283.33203125 135.668945312 283.999023438 133.001953125 c 0
 285.33203125 129.001953125 284.665039062 126.501953125 281.998046875 125.501953125 c 0
 279.331054688 124.501953125 271.998046875 124.001953125 259.998046875 124.001953125 c 2
 233.998046875 124.001953125 l 1
 197.998046875 220.001953125 l 2
 192.665039062 233.334960938 179.33203125 269.16796875 157.999023438 327.500976562 c 0
 136.666015625 385.833984375 120.333007812 429.666992188 109 459 c 2
EndSplineSet
Validated: 524289
EndChar

StartChar: bracketright
Encoding: 93 93 64
Width: 256
GlyphClass: 2
Flags: W
LayerCount: 2
Fore
SplineSet
55 548 m 1
 55 595 l 1
 206 595 l 1
 206 5 l 1
 55 5 l 1
 55 52 l 1
 148 52 l 1
 148 548 l 1
 55 548 l 1
EndSplineSet
Validated: 1
EndChar

StartChar: asciicircum
Encoding: 94 94 65
Width: 437
GlyphClass: 2
Flags: W
LayerCount: 2
Fore
SplineSet
192 584 m 0
 194.666992188 589.333007812 197.166992188 592.5 199.5 593.5 c 0
 201.833007812 594.5 206.333007812 594.666992188 213 594 c 2
 229 593 l 1
 306 444 l 2
 357.333007812 346 383 296 383 294 c 0
 383 292.666992188 375.333007812 292 360 292 c 2
 337 292 l 1
 277 412 l 2
 236.333007812 492.666992188 215 533 213 533 c 0
 211 533 192.333007812 492.666992188 157 412 c 2
 103 292 l 1
 54 292 l 1
 61 307 l 2
 63 310.333007812 85.1669921875 356.833007812 127.5 446.5 c 0
 169.833007812 536.166992188 191.333007812 582 192 584 c 0
EndSplineSet
Validated: 524289
EndChar

StartChar: underscore
Encoding: 95 95 66
Width: 402
GlyphClass: 2
Flags: W
LayerCount: 2
Fore
SplineSet
50 9 m 1
 50 52 l 1
 352 52 l 1
 352 9 l 1
 50 9 l 1
EndSplineSet
Validated: 1
EndChar

StartChar: grave
Encoding: 96 96 67
Width: 245
GlyphClass: 2
Flags: W
LayerCount: 2
Fore
SplineSet
55 630 m 0
 55 632 66.3330078125 632.998046875 89 632.998046875 c 2
 123 632.998046875 l 1
 136 608.998046875 l 2
 138 605.665039062 149.666992188 588.33203125 171 556.999023438 c 0
 184.333007812 537.666015625 191 527.333007812 191 526 c 0
 191 525.333007812 184.666992188 525 172 525 c 0
 160 525 147.666992188 530.333007812 135 541 c 0
 125 549.666992188 109.166992188 566 87.5 590 c 0
 65.8330078125 614 55 627.333007812 55 630 c 0
EndSplineSet
Validated: 524289
EndChar

StartChar: a
Encoding: 97 97 68
Width: 478
GlyphClass: 2
Flags: W
LayerCount: 2
Fore
SplineSet
253 391 m 0
 241.666992188 395 229.333984375 396.997070312 216.000976562 396.997070312 c 0
 198.66796875 396.997070312 183.000976562 394.330078125 169.000976562 388.997070312 c 0
 142.333984375 378.997070312 122.000976562 359.6640625 108.000976562 330.997070312 c 0
 102.000976562 318.330078125 99.0009765625 301.997070312 99.0009765625 281.997070312 c 0
 99.0009765625 261.330078125 102.000976562 244.997070312 108.000976562 232.997070312 c 0
 112.66796875 222.997070312 121.16796875 212.330078125 133.500976562 200.997070312 c 0
 145.833984375 189.6640625 157.666992188 181.331054688 169 175.998046875 c 0
 178.333007812 171.331054688 193.333007812 168.998046875 214 168.998046875 c 0
 231.333007812 168.998046875 244.333007812 170.665039062 253 173.998046875 c 0
 268.333007812 179.331054688 283 189.331054688 297 203.998046875 c 0
 311 218.665039062 321.333007812 235.33203125 328 253.999023438 c 0
 331.333007812 261.33203125 333 267.999023438 333 273.999023438 c 0
 333 279.999023438 331.666992188 288.33203125 329 298.999023438 c 0
 316.333007812 347.666015625 291 378.333007812 253 391 c 0
373 419.997070312 m 0
 376.333007812 439.997070312 380.333007812 449.991210938 385 449.991210938 c 2
 387 449.991210938 l 2
 390.333007812 447.991210938 398 445.658203125 410 442.991210938 c 0
 416 441.658203125 420.166992188 440.158203125 422.5 438.491210938 c 0
 424.833007812 436.82421875 425.666015625 434.657226562 424.999023438 431.990234375 c 0
 424.999023438 431.323242188 423.999023438 427.323242188 421.999023438 419.990234375 c 0
 419.999023438 412.657226562 417.33203125 402.32421875 413.999023438 388.991210938 c 0
 410.666015625 375.658203125 407.333007812 363.325195312 404 351.9921875 c 2
 384 276.9921875 l 1
 404 202.9921875 l 2
 406.666992188 190.9921875 409.666992188 178.659179688 413 165.9921875 c 0
 416.333007812 153.325195312 418.666015625 143.9921875 419.999023438 137.9921875 c 2
 422.999023438 127.9921875 l 2
 422.999023438 127.325195312 416.666015625 124.825195312 403.999023438 120.4921875 c 0
 391.33203125 116.159179688 383.665039062 113.9921875 380.998046875 113.9921875 c 0
 378.998046875 113.9921875 374.331054688 127.9921875 366.998046875 155.9921875 c 2
 355.998046875 196.9921875 l 1
 328.998046875 169.9921875 l 2
 301.665039062 142.659179688 271.665039062 126.326171875 238.998046875 120.993164062 c 0
 228.331054688 119.66015625 219.998046875 118.993164062 213.998046875 118.993164062 c 0
 182.665039062 118.993164062 153.33203125 127.66015625 125.999023438 144.993164062 c 0
 98.666015625 162.326171875 78.3330078125 185.326171875 65 213.993164062 c 0
 59 225.993164062 55.5 235.326171875 54.5 241.993164062 c 0
 53.5 248.66015625 53 262.327148438 53 282.994140625 c 0
 53 303.661132812 53.5 317.328125 54.5 323.995117188 c 0
 55.5 330.662109375 59 339.995117188 65 351.995117188 c 0
 71.6669921875 366.662109375 82 381.329101562 96 395.99609375 c 0
 110 410.663085938 123.333007812 421.330078125 136 427.997070312 c 0
 160 439.997070312 185.333007812 445.997070312 212 445.997070312 c 0
 265.333007812 445.997070312 308 425.330078125 340 383.997070312 c 2
 357 361.997070312 l 1
 363 381.997070312 l 2
 369 403.997070312 372.333007812 416.6640625 373 419.997070312 c 0
EndSplineSet
Validated: 524289
EndChar

StartChar: b
Encoding: 98 98 69
Width: 430
GlyphClass: 2
Flags: W
HStem: 119 47.999<147.744 283.166> 396.999 45<145.164 281.734> 604.998 47.001<144.275 253.109>
VStem: 50 50<214.51 351.993 399.999 558.787> 259.001 49<513.896 599.686> 329 48<212.435 352.146>
LayerCount: 2
Fore
SplineSet
265 385 m 0
 249 393 232 396.999023438 214 396.999023438 c 0
 174.666992188 396.999023438 144 381.999023438 122 351.999023438 c 0
 108 333.33203125 101 311.33203125 101 285.999023438 c 2
 101 272.999023438 l 2
 103 244.33203125 113.666992188 220.33203125 133 200.999023438 c 0
 156.333007812 178.33203125 183.333007812 166.999023438 214 166.999023438 c 0
 246.666992188 166.999023438 274 177.83203125 296 199.499023438 c 0
 318 221.166015625 329 248.333007812 329 281 c 0
 329 330.333007812 307.666992188 365 265 385 c 0
153 641.999023438 m 0
 169 648.666015625 188.3359375 651.999023438 211.002929688 651.999023438 c 0
 231.002929688 651.999023438 247.002929688 648.999023438 259.002929688 642.999023438 c 0
 268.3359375 637.666015625 277.668945312 629.166015625 287.001953125 617.499023438 c 0
 296.334960938 605.83203125 302.66796875 593.665039062 306.000976562 580.998046875 c 0
 307.333984375 574.331054688 308.000976562 568.6640625 308.000976562 563.997070312 c 0
 308.000976562 542.6640625 302.333984375 523.6640625 291.000976562 506.997070312 c 2
 281.000976562 491.997070312 l 1
 264.000976562 508.997070312 l 2
 254.000976562 518.997070312 249.000976562 525.330078125 249.000976562 527.997070312 c 0
 249.000976562 529.330078125 250.333984375 531.997070312 253.000976562 535.997070312 c 0
 257.000976562 542.6640625 259.000976562 551.331054688 259.000976562 561.998046875 c 0
 259.000976562 573.331054688 254.66796875 583.331054688 246.000976562 591.998046875 c 0
 240.000976562 597.998046875 235.16796875 601.665039062 231.500976562 602.998046875 c 0
 227.833984375 604.331054688 220.666992188 604.998046875 210 604.998046875 c 0
 163.333007812 604.998046875 129.333007812 581.665039062 108 534.998046875 c 0
 102.666992188 523.665039062 100 498.33203125 100 458.999023438 c 2
 100 399.999023438 l 1
 117 412.999023438 l 2
 141.666992188 432.33203125 171.666992188 441.999023438 207 441.999023438 c 2
 220 441.999023438 l 2
 248 441.33203125 270.333007812 436.665039062 287 427.998046875 c 0
 301.666992188 420.665039062 316 409.83203125 330 395.499023438 c 0
 344 381.166015625 354.666992188 366.333007812 362 351 c 0
 372 328.333007812 377 305.333007812 377 282 c 0
 377 250 368.333007812 220.333007812 351 193 c 0
 333.666992188 165.666992188 309.666992188 145 279 131 c 0
 261.666992188 123 240 119 214 119 c 0
 188 119 166.333007812 123 149 131 c 0
 123.666992188 143 102.5 159.833007812 85.5 181.5 c 0
 68.5 203.166992188 57.6669921875 227 53 253 c 0
 51 266.333007812 50 297.666015625 50 346.999023438 c 2
 50 401.999023438 l 2
 50.6669921875 459.999023438 51.5 495.999023438 52.5 509.999023438 c 0
 53.5 523.999023438 56.3330078125 536.666015625 61 547.999023438 c 0
 69 568.666015625 81.3330078125 587.499023438 98 604.499023438 c 0
 114.666992188 621.499023438 133 633.999023438 153 641.999023438 c 0
EndSplineSet
Validated: 524289
EndChar

StartChar: c
Encoding: 99 99 70
Width: 403
GlyphClass: 2
Flags: W
LayerCount: 2
Fore
SplineSet
191 363 m 0
 280.333007812 414.333007812 325.333007812 440 326 440 c 0
 328 440 332 434.333007812 338 423 c 0
 344 411.666992188 347 404.333984375 347 401.000976562 c 0
 347 398.333984375 314 377.666992188 248 339 c 0
 184 302.333007812 151 283 149 281 c 0
 148.333007812 279.666992188 161.333007812 271.333984375 188 256.000976562 c 0
 197.333007812 250.66796875 214 241.000976562 238 227.000976562 c 1
 239 226.000976562 l 1
 240 226.000976562 l 1
 241 225.000976562 l 1
 242 225.000976562 l 1
 243 224.000976562 l 1
 244 223.000976562 l 1
 245 223.000976562 l 1
 246 222.000976562 l 1
 247 222.000976562 l 1
 248 221.000976562 l 1
 315.333007812 181.66796875 349 161.000976562 349 159.000976562 c 0
 349 155.000976562 345.5 147.66796875 338.5 137.000976562 c 0
 331.5 126.333984375 326.666992188 121.333984375 324 122.000976562 c 0
 309.333007812 129.333984375 263 155.666992188 185 201 c 0
 171 209 158 216.5 146 223.5 c 0
 134 230.5 123 237 113 243 c 0
 103 249 94.3330078125 254.333007812 87 259 c 0
 79.6669921875 263.666992188 73.5 267.666992188 68.5 271 c 0
 63.5 274.333007812 60 277 58 279 c 2
 54 282 l 1
 57.3330078125 285.333007812 103 312.333007812 191 363 c 0
EndSplineSet
Validated: 524321
EndChar

StartChar: d
Encoding: 100 100 71
Width: 429
GlyphClass: 2
Flags: W
LayerCount: 2
Fore
SplineSet
265 348 m 2
 214.999023438 388.000976562 l 2
 212.999023438 388.000976562 202.499023438 380.333984375 183.499023438 365.000976562 c 0
 164.499023438 349.66796875 147.33203125 334.66796875 131.999023438 320.000976562 c 0
 110.666015625 299.333984375 99.9990234375 279.666992188 99.9990234375 261 c 0
 99.9990234375 252.333007812 101.33203125 244 103.999023438 236 c 0
 110.666015625 213.333007812 127.666015625 195 154.999023438 181 c 0
 171.666015625 172.333007812 190.999023438 168 212.999023438 168 c 0
 247.666015625 168 275.833007812 176.166992188 297.5 192.5 c 0
 319.166992188 208.833007812 330 229.333007812 330 254 c 0
 330 266 327 278.333007812 321 291 c 0
 315.666992188 302.333007812 297 321.333007812 265 348 c 2
183.999023438 633.000976562 m 0
 191.999023438 641.000976562 197.166015625 645.328125 199.499023438 645.995117188 c 0
 201.83203125 646.662109375 204.665039062 645.329101562 207.998046875 641.99609375 c 0
 213.998046875 635.99609375 218.998046875 629.99609375 222.998046875 623.99609375 c 2
 230.998046875 613.99609375 l 1
 218.998046875 599.99609375 l 2
 200.998046875 579.99609375 191.998046875 555.663085938 191.998046875 526.99609375 c 0
 191.998046875 502.329101562 197.498046875 482.329101562 208.498046875 466.99609375 c 0
 219.498046875 451.663085938 248.331054688 424.663085938 294.998046875 385.99609375 c 0
 328.998046875 357.329101562 350.831054688 335.829101562 360.498046875 321.49609375 c 0
 370.165039062 307.163085938 375.665039062 287.330078125 376.998046875 261.997070312 c 0
 376.998046875 259.330078125 377.165039062 256.330078125 377.498046875 252.997070312 c 0
 377.831054688 249.6640625 377.998046875 247.331054688 377.998046875 245.998046875 c 0
 377.998046875 234.665039062 373.998046875 220.998046875 365.998046875 204.998046875 c 0
 352.665039062 177.665039062 332.165039062 156.33203125 304.498046875 140.999023438 c 0
 276.831054688 125.666015625 246.998046875 117.999023438 214.998046875 117.999023438 c 0
 183.665039062 117.999023438 154.498046875 125.33203125 127.498046875 139.999023438 c 0
 100.498046875 154.666015625 79.6650390625 175.666015625 64.998046875 202.999023438 c 0
 57.6650390625 217.666015625 53.998046875 235.666015625 53.998046875 256.999023438 c 0
 53.998046875 283.666015625 58.498046875 303.833007812 67.498046875 317.5 c 0
 76.498046875 331.166992188 100.665039062 355.333984375 139.998046875 390.000976562 c 2
 179.998046875 424.000976562 l 1
 171.998046875 433.000976562 l 2
 169.331054688 436.333984375 163.331054688 447.333984375 153.998046875 466.000976562 c 0
 146.665039062 482.000976562 142.998046875 502.333984375 142.998046875 527.000976562 c 0
 142.998046875 553.000976562 146.998046875 574.333984375 154.998046875 591.000976562 c 0
 163.665039062 608.333984375 173.33203125 622.333984375 183.999023438 633.000976562 c 0
EndSplineSet
Validated: 524289
EndChar

StartChar: e
Encoding: 101 101 72
Width: 382
GlyphClass: 2
Flags: W
LayerCount: 2
Fore
SplineSet
160 447 m 0
 170 449 181 449.999023438 193 449.999023438 c 0
 245 449.999023438 284.333007812 439.666015625 311 418.999023438 c 2
 327 405.999023438 l 1
 293 371.999023438 l 1
 282 379.999023438 l 2
 264 393.33203125 237.333007812 399.999023438 202 399.999023438 c 0
 175.333007812 399.999023438 152 395.83203125 132 387.499023438 c 0
 112 379.166015625 102 368.666015625 102 355.999023438 c 0
 102 343.33203125 111.5 332.83203125 130.5 324.499023438 c 0
 149.5 316.166015625 173.666992188 311.999023438 203 311.999023438 c 2
 238 311.999023438 l 1
 238 260.999023438 l 1
 205 260.999023438 l 2
 175.666992188 260.999023438 151.166992188 256.83203125 131.5 248.499023438 c 0
 111.833007812 240.166015625 102 229.666015625 102 216.999023438 c 0
 102 204.33203125 111.666992188 193.33203125 131 183.999023438 c 0
 139.666992188 179.33203125 147.333984375 176.499023438 154.000976562 175.499023438 c 0
 160.66796875 174.499023438 175.334960938 173.999023438 198.001953125 173.999023438 c 0
 220.668945312 173.999023438 235.168945312 174.499023438 241.501953125 175.499023438 c 0
 247.834960938 176.499023438 257.001953125 179.999023438 269.001953125 185.999023438 c 2
 294.001953125 198.999023438 l 1
 308.668945312 184.33203125 320.001953125 173.33203125 328.001953125 165.999023438 c 1
 310.001953125 152.999023438 l 2
 283.334960938 134.999023438 252.66796875 124.999023438 218.000976562 122.999023438 c 0
 216.000976562 122.999023438 213.16796875 122.83203125 209.500976562 122.499023438 c 0
 205.833984375 122.166015625 203.000976562 121.999023438 201.000976562 121.999023438 c 0
 169.66796875 121.999023438 140.500976562 127.83203125 113.500976562 139.499023438 c 0
 86.5009765625 151.166015625 68.66796875 165.999023438 60.0009765625 183.999023438 c 0
 54.66796875 195.999023438 52.0009765625 206.666015625 52.0009765625 215.999023438 c 0
 52.0009765625 235.999023438 61.333984375 254.33203125 80.0009765625 270.999023438 c 2
 98.0009765625 285.999023438 l 1
 83.0009765625 296.999023438 l 2
 63.0009765625 311.666015625 53.0009765625 331.333007812 53.0009765625 356 c 0
 53.0009765625 366.666992188 54.66796875 375.666992188 58.0009765625 383 c 0
 64.0009765625 397.666992188 76.66796875 411 96.0009765625 423 c 0
 115.333984375 435 136.666992188 443 160 447 c 0
EndSplineSet
Validated: 524289
EndChar

StartChar: f
Encoding: 102 102 73
Width: 467
GlyphClass: 3
Flags: W
LayerCount: 2
Fore
SplineSet
102 436 m 2
 119.000976562 454.998046875 l 1
 136.000976562 440.998046875 l 1
 153.000976562 424.998046875 l 2
 153.000976562 422.998046875 146.66796875 413.998046875 134.000976562 397.998046875 c 0
 113.333984375 370.665039062 103.000976562 339.998046875 103.000976562 305.998046875 c 0
 103.000976562 261.331054688 118.000976562 225.331054688 148.000976562 197.998046875 c 0
 160.000976562 187.331054688 178.333984375 177.331054688 203.000976562 167.998046875 c 1
 203.000976562 257.998046875 l 2
 203.000976562 315.331054688 204.66796875 351.331054688 208.000976562 365.998046875 c 0
 213.333984375 391.331054688 229.000976562 413.331054688 255.000976562 431.998046875 c 0
 267.000976562 440.665039062 282.000976562 444.998046875 300.000976562 444.998046875 c 0
 328.66796875 444.998046875 352.000976562 435.331054688 370.000976562 415.998046875 c 0
 388.000976562 396.665039062 397.333984375 372.33203125 398.000976562 342.999023438 c 2
 399.000976562 316.999023438 l 1
 353.000976562 316.999023438 l 1
 351.000976562 340.999023438 l 2
 347.66796875 377.666015625 331.66796875 395.999023438 303.000976562 395.999023438 c 2
 297.000976562 395.999023438 l 2
 280.333984375 393.999023438 268.000976562 384.666015625 260.000976562 367.999023438 c 0
 256.000976562 359.999023438 254.000976562 324.33203125 254.000976562 260.999023438 c 2
 254.000976562 166.999023438 l 1
 273.000976562 169.999023438 l 2
 300.333984375 173.33203125 330.000976562 183.999023438 362.000976562 201.999023438 c 2
 387.000976562 215.999023438 l 1
 394.000976562 206.999023438 l 2
 394.66796875 205.666015625 396.66796875 202.499023438 400.000976562 197.499023438 c 2
 407.000976562 186.999023438 l 1
 413.000976562 175.999023438 l 1
 386.000976562 159.999023438 l 2
 354.000976562 140.666015625 320.66796875 128.666015625 286.000976562 123.999023438 c 0
 284.000976562 123.999023438 281.333984375 123.666015625 278.000976562 122.999023438 c 0
 266.000976562 121.666015625 258.833984375 117.666015625 256.500976562 110.999023438 c 0
 254.16796875 104.33203125 253.000976562 82.33203125 253.000976562 44.9990234375 c 2
 253.000976562 13.9990234375 l 1
 252.000976562 -90.0009765625 l 1
 205.000976562 -90.0009765625 l 1
 204.333984375 -66.66796875 204.000976562 -31.5009765625 204.000976562 15.4990234375 c 0
 204.000976562 62.4990234375 203.66796875 97.666015625 203.000976562 120.999023438 c 1
 190.000976562 122.999023438 l 2
 163.333984375 127.666015625 136.666992188 143.333007812 110 170 c 0
 72.6669921875 207.333007812 54 253 54 307 c 0
 54 357 70 400 102 436 c 2
EndSplineSet
Validated: 524289
Ligature2: "'rlig' Required Ligatures lookup 0 subtable" p h
EndChar

StartChar: g
Encoding: 103 103 74
Width: 620
GlyphClass: 2
Flags: W
LayerCount: 2
Fore
SplineSet
416 -19 m 0
 416 -15.6669921875 412.833007812 -0.6669921875 406.5 26 c 0
 400.166992188 52.6669921875 396 66 394 66 c 0
 393.333007812 66 387 43.6669921875 375 -1 c 0
 372.333007812 -14.3330078125 371 -21.3330078125 371 -22 c 0
 371 -24 372.333007812 -27.6669921875 375 -33 c 0
 379 -39 384.666992188 -42 392 -42 c 0
 398 -42 403.5 -39.8330078125 408.5 -35.5 c 0
 413.5 -31.1669921875 416 -25.6669921875 416 -19 c 0
160 434 m 0
 168.666992188 438 182.33203125 439.999023438 200.999023438 439.999023438 c 2
 218.999023438 439.999023438 l 2
 246.999023438 439.33203125 267.999023438 435.665039062 281.999023438 428.998046875 c 0
 315.999023438 412.331054688 340.999023438 388.331054688 356.999023438 356.998046875 c 0
 363.666015625 346.331054688 370.999023438 324.998046875 378.999023438 292.998046875 c 2
 389.999023438 250.998046875 l 1
 401.999023438 294.998046875 l 2
 411.33203125 326.331054688 418.999023438 347.6640625 424.999023438 358.997070312 c 0
 437.666015625 381.6640625 454.499023438 400.331054688 475.499023438 414.998046875 c 0
 496.499023438 429.665039062 518.666015625 437.998046875 541.999023438 439.998046875 c 2
 565.999023438 441.998046875 l 1
 565.999023438 417.998046875 l 2
 565.999023438 406.665039062 565.499023438 399.998046875 564.499023438 397.998046875 c 0
 563.499023438 395.998046875 560.33203125 394.998046875 554.999023438 394.998046875 c 0
 539.666015625 394.998046875 523.666015625 389.498046875 506.999023438 378.498046875 c 0
 490.33203125 367.498046875 477.33203125 354.331054688 467.999023438 338.998046875 c 0
 461.33203125 326.998046875 450.999023438 294.665039062 436.999023438 241.998046875 c 0
 424.33203125 194.665039062 417.999023438 166.998046875 417.999023438 158.998046875 c 0
 417.999023438 156.331054688 418.666015625 152.998046875 419.999023438 148.998046875 c 0
 425.999023438 131.665039062 433.666015625 105.33203125 442.999023438 69.9990234375 c 0
 455.666015625 25.33203125 461.999023438 -5.66796875 461.999023438 -23.0009765625 c 0
 461.999023438 -37.0009765625 457.999023438 -49.66796875 449.999023438 -61.0009765625 c 0
 435.999023438 -81.0009765625 416.999023438 -91.0009765625 392.999023438 -91.0009765625 c 0
 380.33203125 -91.0009765625 367.33203125 -87.0009765625 353.999023438 -79.0009765625 c 0
 333.33203125 -64.333984375 322.999023438 -46.0009765625 322.999023438 -24.0009765625 c 0
 322.999023438 -14.0009765625 330.666015625 18.666015625 345.999023438 73.9990234375 c 2
 369.999023438 158.999023438 l 1
 357.999023438 204.999023438 l 2
 352.666015625 224.33203125 347.166015625 242.165039062 341.499023438 258.498046875 c 0
 335.83203125 274.831054688 330.999023438 289.331054688 326.999023438 301.998046875 c 0
 316.33203125 339.998046875 296.33203125 366.665039062 266.999023438 381.998046875 c 0
 251.666015625 390.665039062 234.666015625 394.998046875 215.999023438 394.998046875 c 0
 199.999023438 394.998046875 183.33203125 390.998046875 165.999023438 382.998046875 c 0
 145.999023438 373.665039062 130.33203125 359.83203125 118.999023438 341.499023438 c 0
 107.666015625 323.166015625 101.999023438 303.333007812 101.999023438 282 c 0
 101.999023438 264 106.33203125 246.666992188 114.999023438 230 c 0
 133.666015625 193.333007812 161.666015625 172.333007812 198.999023438 167 c 2
 216.999023438 165 l 1
 216.999023438 119 l 1
 195.999023438 120 l 2
 162.666015625 122 132.333007812 136.333007812 105 163 c 0
 71 195 54 234 54 280 c 0
 54 322 68.3330078125 358.666992188 97 390 c 0
 114.333007812 409.333007812 135.333007812 424 160 434 c 0
EndSplineSet
Validated: 524289
EndChar

StartChar: h
Encoding: 104 104 75
Width: 382
GlyphClass: 3
Flags: W
LayerCount: 2
Fore
SplineSet
50 424 m 2
 49.9990234375 445 l 1
 99.9990234375 445 l 1
 99.9990234375 418 l 2
 99.9990234375 386 108.499023438 359.333007812 125.499023438 338 c 0
 142.499023438 316.666992188 163.666015625 306 188.999023438 306 c 0
 212.999023438 306 233.999023438 316.333007812 251.999023438 337 c 0
 271.999023438 359.666992188 281.999023438 387.333984375 281.999023438 420.000976562 c 2
 281.999023438 445.000976562 l 1
 331.999023438 445.000976562 l 1
 331.999023438 424.000976562 l 2
 331.999023438 376.66796875 315.999023438 335.334960938 283.999023438 300.001953125 c 2
 266.999023438 281.001953125 l 1
 283.999023438 261.001953125 l 2
 309.33203125 231.668945312 324.33203125 199.001953125 328.999023438 163.001953125 c 0
 330.999023438 150.334960938 331.999023438 140.66796875 331.999023438 134.000976562 c 0
 331.999023438 127.333984375 330.666015625 122.833984375 327.999023438 120.500976562 c 0
 325.33203125 118.16796875 320.999023438 117.000976562 314.999023438 117.000976562 c 2
 305.999023438 117.000976562 l 1
 283.999023438 119.000976562 l 1
 280.999023438 149.000976562 l 2
 279.666015625 169.66796875 276.999023438 184.66796875 272.999023438 194.000976562 c 0
 254.999023438 235.333984375 227.666015625 256.000976562 190.999023438 256.000976562 c 0
 167.666015625 256.000976562 147.333007812 246.333984375 130 227.000976562 c 0
 112.666992188 207.66796875 102.666992188 181.66796875 100 149.000976562 c 2
 98 119.000976562 l 1
 76 117.000976562 l 1
 66 117.000976562 l 2
 60 117.000976562 55.8330078125 118.000976562 53.5 120.000976562 c 0
 51.1669921875 122.000976562 50 126.333984375 50 133.000976562 c 0
 50 139.66796875 51 150.000976562 53 164.000976562 c 0
 58.3330078125 205.333984375 73 238.666992188 97 264 c 2
 114 281 l 1
 96 301 l 2
 65.3330078125 333.666992188 50 374.666992188 50 424 c 2
EndSplineSet
Validated: 524289
Ligature2: "'rlig' Required Ligatures lookup 0 subtable" k h
Ligature2: "'rlig' Required Ligatures lookup 0 subtable" c h
EndChar

StartChar: i
Encoding: 105 105 76
Width: 150
GlyphClass: 2
Flags: W
LayerCount: 2
Fore
SplineSet
50 117 m 1
 50 445 l 1
 100 445 l 1
 100 117 l 1
 50 117 l 1
EndSplineSet
Validated: 1
EndChar

StartChar: j
Encoding: 106 106 77
Width: 401
GlyphClass: 2
Flags: W
LayerCount: 2
Fore
SplineSet
54 398 m 1
 53.9990234375 444.997070312 l 1
 200.999023438 444.997070312 l 2
 298.33203125 444.997070312 346.999023438 443.6640625 346.999023438 440.997070312 c 0
 346.999023438 437.6640625 327.33203125 421.6640625 287.999023438 392.997070312 c 0
 259.33203125 371.6640625 241.83203125 357.6640625 235.499023438 350.997070312 c 0
 229.166015625 344.330078125 222.333007812 333.997070312 215 319.997070312 c 0
 201 291.997070312 194 261.330078125 194 227.997070312 c 0
 194 197.997070312 200 169.997070312 212 143.997070312 c 0
 219.333007812 128.6640625 234.666015625 109.331054688 257.999023438 85.998046875 c 0
 278.666015625 65.998046875 292.333007812 49.6650390625 299 36.998046875 c 0
 305.666992188 23.6650390625 309 9.998046875 309 -4.001953125 c 0
 309 -42.6689453125 289 -70.001953125 249 -86.001953125 c 0
 233.666992188 -92.001953125 225 -94.3349609375 223 -93.001953125 c 0
 221 -91.6689453125 218.333007812 -86.001953125 215 -76.001953125 c 0
 211.666992188 -66.001953125 210 -58.6689453125 210 -54.001953125 c 0
 210 -52.001953125 210.333007812 -51.001953125 211 -51.001953125 c 0
 234.333007812 -42.3349609375 249 -31.66796875 255 -19.0009765625 c 0
 258.333007812 -12.333984375 260 -6.6669921875 260 -2 c 0
 260 10 246 30.3330078125 218 59 c 0
 190.666992188 87 172 113.333007812 162 138 c 0
 152 162.666992188 147 194 147 232 c 0
 147 292 164 341.666992188 198 381 c 2
 213 398 l 1
 54 398 l 1
EndSplineSet
Validated: 524289
EndChar

StartChar: k
Encoding: 107 107 78
Width: 363
GlyphClass: 3
Flags: W
LayerCount: 2
Fore
SplineSet
72 654 m 1
 95.9990234375 654.00390625 l 1
 95.9990234375 629.00390625 l 1
 95.9990234375 475.00390625 l 1
 95.9990234375 296.00390625 l 1
 275.999023438 476.00390625 l 1
 291.999023438 459.00390625 l 1
 308.999023438 443.00390625 l 1
 206.999023438 341.00390625 l 1
 218.999023438 326.00390625 l 2
 244.33203125 293.336914062 262.665039062 257.669921875 273.998046875 219.002929688 c 0
 282.665039062 190.3359375 286.998046875 161.3359375 286.998046875 132.002929688 c 0
 286.998046875 127.3359375 286.665039062 124.668945312 285.998046875 124.001953125 c 0
 285.331054688 123.334960938 277.331054688 121.66796875 261.998046875 119.000976562 c 2
 239.998046875 117.000976562 l 1
 237.998046875 147.000976562 l 2
 234.665039062 189.000976562 222.33203125 227.66796875 200.999023438 263.000976562 c 0
 199.666015625 265.66796875 197.999023438 268.66796875 195.999023438 272.000976562 c 0
 193.999023438 275.333984375 192.33203125 278.000976562 190.999023438 280.000976562 c 0
 189.666015625 282.000976562 188.333007812 284.16796875 187 286.500976562 c 0
 185.666992188 288.833984375 184.5 290.500976562 183.5 291.500976562 c 0
 182.5 292.500976562 181.5 293.66796875 180.5 295.000976562 c 0
 179.5 296.333984375 178.5 297.166992188 177.5 297.5 c 0
 176.5 297.833007812 175.333007812 298 174 298 c 0
 170 298 157 287 135 265 c 2
 96 227 l 1
 96 117 l 1
 50 117 l 1
 50 653 l 1
 72 654 l 1
EndSplineSet
Validated: 524289
Ligature2: "'rlig' Required Ligatures lookup 0 subtable" c q
Ligature2: "'rlig' Required Ligatures lookup 0 subtable" c k
EndChar

StartChar: l
Encoding: 108 108 79
Width: 407
GlyphClass: 2
Flags: W
LayerCount: 2
Fore
SplineSet
130 229 m 2
 129.333007812 229 123.831054688 210.830078125 113.498046875 174.497070312 c 0
 103.165039062 138.1640625 96.998046875 119.997070312 94.998046875 119.997070312 c 0
 90.998046875 119.997070312 83.1650390625 122.330078125 71.498046875 126.997070312 c 0
 59.8310546875 131.6640625 53.998046875 134.6640625 53.998046875 135.997070312 c 0
 53.998046875 138.6640625 62.6650390625 170.997070312 79.998046875 232.997070312 c 0
 97.3310546875 294.997070312 108.998046875 335.997070312 114.998046875 355.997070312 c 0
 162.998046875 510.6640625 213.331054688 609.331054688 265.998046875 651.998046875 c 0
 278.665039062 661.331054688 285.998046875 665.998046875 287.998046875 665.998046875 c 0
 288.665039062 665.998046875 289.498046875 665.831054688 290.498046875 665.498046875 c 0
 291.498046875 665.165039062 292.498046875 664.33203125 293.498046875 662.999023438 c 0
 294.498046875 661.666015625 295.331054688 660.499023438 295.998046875 659.499023438 c 0
 296.665039062 658.499023438 297.83203125 656.83203125 299.499023438 654.499023438 c 0
 301.166015625 652.166015625 302.666015625 649.999023438 303.999023438 647.999023438 c 2
 315.999023438 631.999023438 l 1
 287.999023438 604.999023438 l 2
 257.999023438 574.999023438 231.666015625 532.666015625 208.999023438 477.999023438 c 0
 201.666015625 459.33203125 189.833007812 425.83203125 173.5 377.499023438 c 0
 157.166992188 329.166015625 147.666992188 299.333007812 145 288 c 2
 142 276 l 1
 235.333007812 224 305 184.666992188 351 158 c 1
 341 140 l 2
 335 126 330.666992188 119 328 119 c 2
 130 229 l 2
EndSplineSet
Validated: 524289
EndChar

StartChar: m
Encoding: 109 109 80
Width: 429
GlyphClass: 2
Flags: W
LayerCount: 2
Fore
SplineSet
50 117 m 1
 49.9970703125 441.000976562 l 1
 99.9970703125 441.000976562 l 1
 99.9970703125 407.000976562 l 2
 99.9970703125 369.000976562 107.330078125 335.000976562 121.997070312 305.000976562 c 0
 136.6640625 275.000976562 155.6640625 254.000976562 178.997070312 242.000976562 c 0
 190.997070312 236.000976562 202.6640625 233.000976562 213.997070312 233.000976562 c 0
 229.997070312 233.000976562 245.997070312 239.000976562 261.997070312 251.000976562 c 0
 268.6640625 256.333984375 277.6640625 267.166992188 288.997070312 283.5 c 0
 300.330078125 299.833007812 307.997070312 313 311.997070312 323 c 0
 322.6640625 351 327.997070312 381.666992188 327.997070312 415 c 2
 327.997070312 441 l 1
 378.997070312 441 l 1
 376.997070312 340 l 2
 374.997070312 284 373.997070312 230 373.997070312 178 c 2
 373.997070312 117 l 1
 327.997070312 117 l 1
 327.997070312 253 l 1
 307.997070312 231 l 2
 293.997070312 216.333007812 279.330078125 205 263.997070312 197 c 0
 248.6640625 189.666992188 236.331054688 186 226.998046875 186 c 0
 219.665039062 186 213.33203125 186.333007812 207.999023438 187 c 0
 171.999023438 189 141.666015625 203 116.999023438 229 c 0
 105.666015625 241.666992188 99.3330078125 248 98 248 c 0
 96.6669921875 248 96 226 96 182 c 2
 96 117 l 1
 50 117 l 1
EndSplineSet
Validated: 524289
EndChar

StartChar: n
Encoding: 110 110 81
Width: 359
GlyphClass: 2
Flags: W
LayerCount: 2
Fore
SplineSet
52 381 m 2
 49.998046875 444.999023438 l 1
 55.3310546875 444.33203125 63.498046875 443.999023438 74.498046875 443.999023438 c 0
 85.498046875 443.999023438 93.6650390625 443.666015625 98.998046875 442.999023438 c 1
 98.998046875 384.999023438 l 2
 98.998046875 358.33203125 99.498046875 341.999023438 100.498046875 335.999023438 c 0
 101.498046875 329.999023438 103.665039062 326.666015625 106.998046875 325.999023438 c 0
 165.665039062 317.999023438 212.998046875 297.33203125 248.998046875 263.999023438 c 2
 259.998046875 253.999023438 l 1
 259.998046875 444.999023438 l 1
 281.998046875 444.999023438 l 2
 296.665039062 444.999023438 305.33203125 443.666015625 307.999023438 440.999023438 c 0
 308.666015625 439.666015625 308.999023438 424.333007812 308.999023438 395 c 0
 308.999023438 345 308.166015625 286.166992188 306.499023438 218.5 c 0
 304.83203125 150.833007812 302.999023438 117 300.999023438 117 c 0
 298.33203125 117 288.999023438 130 272.999023438 156 c 0
 249.666015625 195.333007812 224.333007812 224.333007812 197 243 c 0
 172.333007812 260.333007812 145.333007812 271.333007812 116 276 c 2
 101 279 l 1
 101 117 l 1
 55 117 l 1
 55 216 l 2
 55 290 54 345 52 381 c 2
EndSplineSet
Validated: 524289
EndChar

StartChar: o
Encoding: 111 111 82
Width: 432
GlyphClass: 2
Flags: W
LayerCount: 2
Fore
SplineSet
255 388 m 0
 242.333007812 392 229.333007812 393.999023438 216 393.999023438 c 0
 171.333007812 393.999023438 138 375.33203125 116 337.999023438 c 0
 108 323.999023438 104 304.33203125 104 278.999023438 c 0
 104 262.33203125 106 248.33203125 110 236.999023438 c 0
 114.666992188 224.999023438 123.833984375 212.33203125 137.500976562 198.999023438 c 0
 151.16796875 185.666015625 164.000976562 176.999023438 176.000976562 172.999023438 c 0
 189.333984375 168.999023438 202.666992188 166.999023438 216 166.999023438 c 0
 235.333007812 166.999023438 251.666015625 170.33203125 264.999023438 176.999023438 c 0
 285.666015625 187.666015625 301.833007812 202.333007812 313.5 221 c 0
 325.166992188 239.666992188 331 260 331 282 c 0
 331 299.333007812 327 316 319 332 c 0
 313 344 303.833007812 355.333007812 291.5 366 c 0
 279.166992188 376.666992188 267 384 255 388 c 0
179 438.999023438 m 0
 193.666992188 442.33203125 206.333984375 444.000976562 217.000976562 444.000976562 c 0
 260.333984375 444.000976562 298.166992188 427.833984375 330.5 395.500976562 c 0
 362.833007812 363.16796875 379 324.66796875 379 280.000976562 c 0
 379 269.333984375 378 258.666992188 376 248 c 0
 369.333007812 216.666992188 354 189.333984375 330 166.000976562 c 0
 297.333007812 134.000976562 260 118.000976562 218 118.000976562 c 2
 206 118.000976562 l 2
 154.666992188 121.333984375 114 143.666992188 84 185 c 0
 64 212.333007812 54 243.666015625 54 278.999023438 c 0
 54 315.666015625 64.6669921875 348.666015625 86 377.999023438 c 0
 108 408.666015625 139 428.999023438 179 438.999023438 c 0
EndSplineSet
Validated: 524289
EndChar

StartChar: p
Encoding: 112 112 83
Width: 434
GlyphClass: 2
Flags: W
LayerCount: 2
Fore
SplineSet
54 395 m 1
 54 445 l 1
 90.6669921875 444.333007812 145 444 217 444 c 0
 289 444 343.333007812 443.666992188 380 443 c 1
 380 397 l 1
 344 395 l 1
 308 394 l 1
 310 294 l 1
 311 194 l 1
 323 181 l 2
 331 173 342.666992188 168.333007812 358 167 c 2
 380 165 l 1
 380 119 l 1
 364 117 l 1
 357 117 l 2
 340.333007812 117 324.5 121.5 309.5 130.5 c 0
 294.5 139.5 282.666992188 151.666992188 274 167 c 0
 269.333007812 175.666992188 266.5 185.166992188 265.5 195.5 c 0
 264.5 205.833007812 263.666992188 237.333007812 263 290 c 2
 262 395 l 1
 169 395 l 1
 169.666992188 341 170 260.166992188 170 152.5 c 0
 170 44.8330078125 170.333007812 -36 171 -90 c 1
 165.666992188 -90 157.666992188 -90.3330078125 147 -91 c 0
 136.333007812 -91.6669921875 128.333007812 -92 123 -92 c 1
 123 395 l 1
 54 395 l 1
EndSplineSet
Validated: 524289
EndChar

StartChar: q
Encoding: 113 113 84
Width: 432
GlyphClass: 2
Flags: W
LayerCount: 2
Fore
SplineSet
267 385 m 0
 250.333007812 393.666992188 232.998046875 397.999023438 214.998046875 397.999023438 c 0
 170.331054688 397.999023438 135.998046875 376.33203125 111.998046875 332.999023438 c 0
 106.665039062 322.33203125 103.998046875 305.999023438 103.998046875 283.999023438 c 0
 103.998046875 259.999023438 106.998046875 242.33203125 112.998046875 230.999023438 c 0
 120.331054688 217.666015625 132.331054688 204.333007812 148.998046875 191 c 0
 165.665039062 177.666992188 178.665039062 171 187.998046875 171 c 0
 190.665039062 171 191.998046875 181.666992188 191.998046875 203 c 2
 191.998046875 236 l 1
 241.998046875 236 l 1
 241.998046875 203 l 2
 241.998046875 181.666992188 243.665039062 171 246.998046875 171 c 0
 251.665039062 171 260.83203125 175.666992188 274.499023438 185 c 0
 288.166015625 194.333007812 298.333007812 202.666015625 305 209.999023438 c 0
 321.666992188 229.33203125 330 252.999023438 330 280.999023438 c 2
 330 289.999023438 l 2
 326.666992188 334.666015625 305.666992188 366.333007812 267 385 c 0
165.998046875 437.999023438 m 0
 177.998046875 441.999023438 192.331054688 443.998046875 208.998046875 443.998046875 c 2
 221.998046875 443.998046875 l 2
 265.998046875 441.998046875 302.665039062 425.998046875 331.998046875 395.998046875 c 0
 363.998046875 362.665039062 379.998046875 326.665039062 379.998046875 287.998046875 c 0
 379.998046875 281.998046875 379.331054688 272.998046875 377.998046875 260.998046875 c 0
 373.331054688 225.665039062 356.998046875 194.33203125 328.998046875 166.999023438 c 0
 306.331054688 145.666015625 282.6640625 131.666015625 257.997070312 124.999023438 c 2
 241.997070312 119.999023438 l 1
 241.997070312 50.9990234375 l 1
 191.997070312 50.9990234375 l 1
 191.997070312 119.999023438 l 1
 174.997070312 124.999023438 l 2
 138.997070312 134.999023438 109.830078125 154.499023438 87.4970703125 183.499023438 c 0
 65.1640625 212.499023438 53.9970703125 245.33203125 53.9970703125 281.999023438 c 0
 53.9970703125 287.33203125 54.6640625 295.999023438 55.9970703125 307.999023438 c 0
 66.6640625 371.999023438 103.331054688 415.33203125 165.998046875 437.999023438 c 0
EndSplineSet
Validated: 524289
EndChar

StartChar: r
Encoding: 114 114 85
Width: 377
GlyphClass: 3
Flags: W
LayerCount: 2
Fore
SplineSet
50 117 m 1
 49.9990234375 441.00390625 l 1
 95.9990234375 441.00390625 l 1
 95.9990234375 411.00390625 l 1
 122.999023438 424.00390625 l 2
 145.666015625 435.336914062 167.999023438 441.00390625 189.999023438 441.00390625 c 0
 219.33203125 441.00390625 246.165039062 432.170898438 270.498046875 414.50390625 c 0
 294.831054688 396.836914062 311.6640625 373.00390625 320.997070312 343.00390625 c 0
 324.997070312 329.00390625 326.997070312 315.00390625 326.997070312 301.00390625 c 0
 326.997070312 276.336914062 320.830078125 253.169921875 308.497070312 231.502929688 c 0
 296.1640625 209.8359375 278.997070312 192.668945312 256.997070312 180.001953125 c 0
 239.6640625 168.668945312 222.331054688 163.001953125 204.998046875 163.001953125 c 1
 201.998046875 164.001953125 l 1
 195.331054688 182.001953125 191.998046875 194.668945312 191.998046875 202.001953125 c 0
 191.998046875 205.334960938 192.665039062 207.001953125 193.998046875 207.001953125 c 0
 220.665039062 215.001953125 239.33203125 224.001953125 249.999023438 234.001953125 c 0
 269.999023438 251.334960938 279.999023438 273.66796875 279.999023438 301.000976562 c 0
 279.999023438 323.66796875 272.666015625 343.66796875 257.999023438 361.000976562 c 0
 239.999023438 383.000976562 216.999023438 394.000976562 188.999023438 394.000976562 c 0
 149.666015625 394.000976562 121.333007812 375.66796875 104 339.000976562 c 0
 98.6669921875 328.333984375 96 288.666992188 96 220 c 2
 96 117 l 1
 50 117 l 1
EndSplineSet
Validated: 524289
Ligature2: "'rlig' Required Ligatures lookup 0 subtable" r h
EndChar

StartChar: s
Encoding: 115 115 86
Width: 402
GlyphClass: 3
Flags: W
LayerCount: 2
Fore
SplineSet
187 444 m 0
 201 446.666992188 212.333984375 448 221.000976562 448 c 0
 227.000976562 448 235.333984375 447 246.000976562 445 c 0
 278.66796875 439.666992188 307.000976562 425 331.000976562 401 c 2
 348.000976562 383 l 1
 340.000976562 375.666992188 328.66796875 364 314.000976562 348 c 1
 298.000976562 364 l 2
 286.66796875 375.333007812 276.334960938 383.333007812 267.001953125 388 c 0
 254.334960938 394.666992188 238.001953125 398 218.001953125 398 c 0
 204.001953125 398 191.001953125 396.333007812 179.001953125 393 c 0
 156.334960938 385.666992188 138.001953125 371.666992188 124.001953125 351 c 0
 110.001953125 330.333007812 103.001953125 307.666015625 103.001953125 282.999023438 c 0
 103.001953125 270.33203125 105.001953125 257.33203125 109.001953125 243.999023438 c 0
 117.668945312 219.33203125 132.168945312 201.83203125 152.501953125 191.499023438 c 0
 172.834960938 181.166015625 206.66796875 173.333007812 254.000976562 168 c 0
 288.000976562 164.666992188 312.66796875 151.666992188 328.000976562 129 c 0
 339.333984375 112.333007812 345.000976562 94.666015625 345.000976562 75.9990234375 c 0
 345.000976562 66.666015625 343.66796875 57.9990234375 341.000976562 49.9990234375 c 0
 328.333984375 5.9990234375 299.333984375 -16.0009765625 254.000976562 -16.0009765625 c 2
 229.000976562 -17.0009765625 l 1
 229.000976562 29.9990234375 l 1
 251.000976562 31.9990234375 l 2
 266.333984375 33.33203125 277.666992188 37.9990234375 285 45.9990234375 c 0
 292.333007812 53.9990234375 296 63.9990234375 296 75.9990234375 c 0
 296 88.666015625 292 98.9990234375 284 106.999023438 c 0
 278 112.999023438 272.5 116.83203125 267.5 118.499023438 c 0
 262.5 120.166015625 251.333007812 121.333007812 234 122 c 0
 210.666992188 123.333007812 192 125.333007812 178 128 c 0
 141.333007812 136.666992188 111.5 155.666992188 88.5 185 c 0
 65.5 214.333007812 54 247.666015625 54 284.999023438 c 0
 54 296.999023438 54.6669921875 305.999023438 56 311.999023438 c 0
 62 345.999023438 77.3330078125 375.33203125 102 399.999023438 c 0
 126.666992188 424.666015625 155 439.333007812 187 444 c 0
EndSplineSet
Validated: 524289
Ligature2: "'rlig' Required Ligatures lookup 0 subtable" s c
EndChar

StartChar: t
Encoding: 116 116 87
Width: 436
GlyphClass: 2
Flags: W
LayerCount: 2
Fore
SplineSet
54 398 m 1
 54 449 l 1
 382 449 l 1
 382 398 l 1
 243 398 l 1
 243 197 l 1
 256 184 l 2
 264.666992188 175.333007812 276.333984375 171 291.000976562 171 c 2
 313.000976562 171 l 1
 313.000976562 120 l 1
 291.000976562 120 l 2
 266.333984375 120 243.666992188 129.666992188 223 149 c 0
 209 161.666992188 200.833007812 174.166992188 198.5 186.5 c 0
 196.166992188 198.833007812 194.666992188 234.333007812 194 293 c 2
 193 398 l 1
 54 398 l 1
EndSplineSet
Validated: 524289
EndChar

StartChar: u
Encoding: 117 117 88
Width: 359
GlyphClass: 2
Flags: W
HStem: 113 48.9971<123.834 235.217> 419.997 20G<50.0009 100.001 258.828 309>
VStem: 50 50.001<227 439.997> 258 50<203.52 439.998>
LayerCount: 2
Fore
SplineSet
50 227 m 5
 50.0009765625 439.997070312 l 5
 100.000976562 439.997070312 l 5
 100.000976562 331.997070312 l 6
 100.000976562 274.6640625 101.16796875 238.497070312 103.500976562 223.497070312 c 4
 105.833984375 208.497070312 111.666992188 195.997070312 121 185.997070312 c 4
 136.333007812 169.997070312 155.333007812 161.997070312 178 161.997070312 c 6
 186 161.997070312 l 6
 202.666992188 162.6640625 216 167.331054688 226 175.998046875 c 4
 240.666992188 187.331054688 249 196.331054688 251 202.998046875 c 4
 255 213.665039062 257.333007812 253.998046875 258 323.998046875 c 6
 259 439.998046875 l 5
 309 439.998046875 l 5
 308 324.998046875 l 6
 307.333007812 271.665039062 306.5 238.33203125 305.5 224.999023438 c 4
 304.5 211.666015625 302 200.333007812 298 191 c 4
 284.666992188 161 264 139.333007812 236 126 c 4
 219.333007812 117.333007812 199.666015625 113 176.999023438 113 c 4
 157.666015625 113 141.333007812 116.333007812 128 123 c 4
 98 138.333007812 76 163.333007812 62 198 c 6
 50 227 l 5
EndSplineSet
Validated: 524289
EndChar

StartChar: v
Encoding: 118 118 89
Width: 486
GlyphClass: 2
Flags: W
LayerCount: 2
Fore
SplineSet
255 198 m 0
 256.333007812 198 279.5 237.166015625 324.5 315.499023438 c 0
 369.5 393.83203125 393 432.999023438 395 432.999023438 c 0
 397.666992188 432.999023438 404.5 429.499023438 415.5 422.499023438 c 0
 426.5 415.499023438 432 411.33203125 432 409.999023438 c 0
 432 408.666015625 410.833007812 370.333007812 368.5 295 c 0
 326.166992188 219.666992188 300 173.666992188 290 157 c 2
 283 146 l 1
 305 107 l 2
 317.666992188 85 324 72.6669921875 324 70 c 0
 324 65.3330078125 316 59 300 51 c 2
 286 43 l 1
 265 79 l 2
 261 85 251.333007812 101.833007812 236 129.5 c 0
 220.666992188 157.166992188 208.666992188 178 200 192 c 0
 178.666992188 229.333007812 147 284 105 356 c 0
 71 413.333007812 54 443.333007812 54 446 c 0
 54 447.333007812 88 448 156 448 c 2
 257 447 l 1
 257 400 l 1
 198 399 l 2
 158.666992188 399 139 398 139 396 c 0
 139 394 158 360.5 196 295.5 c 0
 234 230.5 253.666992188 198 255 198 c 0
EndSplineSet
Validated: 524289
EndChar

StartChar: w
Encoding: 119 119 90
Width: 473
GlyphClass: 2
Flags: W
HStem: 111 332.998
LayerCount: 2
Fore
SplineSet
75 432 m 5
 96 443.998046875 l 6
 97.3330078125 443.998046875 126.666015625 393.665039062 183.999023438 292.998046875 c 4
 213.999023438 240.331054688 230.999023438 211.998046875 234.999023438 207.998046875 c 4
 235.666015625 207.331054688 236.333007812 206.998046875 237 206.998046875 c 4
 239.666992188 206.998046875 249 220.665039062 265 247.998046875 c 6
 290 291.998046875 l 5
 254 354.998046875 l 6
 229.333007812 396.998046875 217 418.331054688 217 418.998046875 c 4
 217 420.998046875 222.333007812 425.165039062 233 431.498046875 c 4
 243.666992188 437.831054688 251.666992188 440.998046875 257 440.998046875 c 4
 257.666992188 440.998046875 258.666992188 440.331054688 260 438.998046875 c 6
 274 414.998046875 l 5
 304 366.998046875 l 5
 318 342.998046875 l 6
 319.333007812 342.998046875 328 357.665039062 344 386.998046875 c 4
 356 409.665039062 364.166992188 424.33203125 368.5 430.999023438 c 4
 372.833007812 437.666015625 377 440.999023438 381 440.999023438 c 4
 383.666992188 440.999023438 389.666992188 437.999023438 399 431.999023438 c 6
 419 419.999023438 l 5
 412 407.999023438 l 6
 362 320.666015625 332 268.333007812 322 251 c 4
 268 157.666992188 239.333007812 111 236 111 c 6
 235 111 l 6
 233.666992188 112.333007812 204.5 162 147.5 260 c 4
 90.5 358 61.6669921875 407.333007812 61 408 c 6
 54 420 l 5
 75 432 l 5
EndSplineSet
Validated: 524289
EndChar

StartChar: x
Encoding: 120 120 91
Width: 476
GlyphClass: 3
Flags: W
LayerCount: 2
Fore
SplineSet
59 447 m 0
 59 448.333007812 119.333984375 448.998046875 240.000976562 448.998046875 c 2
 422.000976562 448.998046875 l 1
 373.000976562 374.998046875 l 2
 340.333984375 326.998046875 322.333984375 302.998046875 319.000976562 302.998046875 c 0
 316.333984375 302.998046875 309.666992188 306.998046875 299 314.998046875 c 2
 283 324.998046875 l 1
 305 358.998046875 l 2
 308.333007812 363.665039062 312.166015625 369.165039062 316.499023438 375.498046875 c 0
 320.83203125 381.831054688 324.33203125 386.998046875 326.999023438 390.998046875 c 0
 329.666015625 394.998046875 330.999023438 397.331054688 330.999023438 397.998046875 c 0
 330.999023438 400.665039062 300.33203125 401.998046875 238.999023438 401.998046875 c 2
 143.999023438 401.998046875 l 1
 166.666015625 368.665039062 183.333007812 343.665039062 194 326.998046875 c 1
 184 318.998046875 l 2
 168.666992188 307.665039062 159 301.998046875 155 301.998046875 c 2
 154 301.998046875 l 2
 152 304.665039062 135.666992188 329.33203125 105 375.999023438 c 0
 74.3330078125 422.666015625 59 446.333007812 59 447 c 0
190.000976562 262.998046875 m 1
 190.000976562 309.998046875 l 1
 287.000976562 309.998046875 l 1
 287.000976562 262.998046875 l 1
 190.000976562 262.998046875 l 1
95.0009765625 178.998046875 m 0
 97.0009765625 182.331054688 106.99609375 198.49609375 124.99609375 227.49609375 c 0
 142.99609375 256.49609375 152.99609375 270.99609375 154.99609375 270.99609375 c 0
 157.663085938 270.99609375 164.330078125 267.163085938 174.997070312 259.49609375 c 0
 185.6640625 251.829101562 190.997070312 246.329101562 190.997070312 242.99609375 c 0
 190.997070312 242.329101562 189.830078125 240.329101562 187.497070312 236.99609375 c 0
 185.1640625 233.663085938 181.831054688 228.830078125 177.498046875 222.497070312 c 0
 173.165039062 216.1640625 169.33203125 210.331054688 165.999023438 204.998046875 c 2
 143.999023438 170.998046875 l 1
 333.999023438 170.998046875 l 1
 310.999023438 204.998046875 l 2
 307.666015625 210.331054688 303.833007812 215.998046875 299.5 221.998046875 c 0
 295.166992188 227.998046875 291.833984375 232.665039062 289.500976562 235.998046875 c 0
 287.16796875 239.331054688 286.000976562 241.331054688 286.000976562 241.998046875 c 0
 286.000976562 244.665039062 291.16796875 250.165039062 301.500976562 258.498046875 c 0
 311.833984375 266.831054688 318.666992188 270.998046875 322 270.998046875 c 2
 323 270.998046875 l 1
 373 196.998046875 l 1
 421 123.998046875 l 1
 285 123.998046875 l 2
 179.666992188 123.998046875 118.333984375 123.331054688 101.000976562 121.998046875 c 2
 54.0009765625 118.998046875 l 1
 72.0009765625 143.998046875 l 2
 80.0009765625 155.998046875 87.66796875 167.665039062 95.0009765625 178.998046875 c 0
EndSplineSet
Validated: 524289
Ligature2: "'rlig' Required Ligatures lookup 0 subtable" k s
Ligature2: "'rlig' Required Ligatures lookup 0 subtable" c c
EndChar

StartChar: y
Encoding: 121 121 92
Width: 150
GlyphClass: 2
Flags: W
LayerCount: 2
Fore
SplineSet
33 598 m 2
 33 564.666992188 48.3330078125 547.999023438 79 547.999023438 c 0
 90.3330078125 547.999023438 100.333007812 552.33203125 109 560.999023438 c 0
 117.666992188 569.666015625 122 581.333007812 122 596 c 2
 122 618 l 1
 172 618 l 1
 172 601 l 2
 172 571 162.5 546.333007812 143.5 527 c 0
 124.5 507.666992188 102 498 76 498 c 0
 64.6669921875 498 52.6669921875 500.666992188 40 506 c 0
 4.6669921875 521.333007812 -14.3330078125 550 -17 592 c 2
 -19 618 l 1
 33 618 l 1
 33 598 l 2
52 113.999023438 m 1
 52 442.999023438 l 1
 102 442.999023438 l 1
 102 113.999023438 l 1
 52 113.999023438 l 1
EndSplineSet
Validated: 524289
EndChar

StartChar: z
Encoding: 122 122 93
Width: 398
GlyphClass: 2
Flags: W
LayerCount: 2
Fore
SplineSet
51 393 m 1
 51.0029296875 442.99609375 l 1
 344.002929688 442.99609375 l 1
 328.002929688 428.99609375 l 2
 325.3359375 426.99609375 317.168945312 419.829101562 303.501953125 407.49609375 c 0
 289.834960938 395.163085938 278.66796875 385.663085938 270.000976562 378.99609375 c 0
 218.66796875 335.663085938 178.16796875 296.330078125 148.500976562 260.997070312 c 0
 118.833984375 225.6640625 104.000976562 199.331054688 104.000976562 181.998046875 c 0
 104.000976562 177.998046875 104.333984375 175.331054688 105.000976562 173.998046875 c 2
 109.000976562 163.998046875 l 1
 330.000976562 163.998046875 l 1
 332.000976562 142.998046875 l 2
 334.66796875 128.998046875 334.66796875 120.665039062 332.000976562 117.998046875 c 0
 330.000976562 115.331054688 290.66796875 113.998046875 214.000976562 113.998046875 c 0
 156.66796875 113.998046875 122.500976562 114.331054688 111.500976562 114.998046875 c 0
 100.500976562 115.665039062 92.0009765625 118.33203125 86.0009765625 122.999023438 c 0
 75.333984375 130.33203125 67.6669921875 138.999023438 63 148.999023438 c 0
 57.6669921875 159.666015625 55 170.333007812 55 181 c 0
 55 219 89.3330078125 272.666992188 158 342 c 2
 209 393 l 1
 51 393 l 1
EndSplineSet
Validated: 524289
EndChar

StartChar: braceleft
Encoding: 123 123 94
Width: 322
GlyphClass: 2
Flags: W
LayerCount: 2
Fore
SplineSet
145 534 m 0
 153 552.666992188 166.501953125 568.000976562 185.501953125 580.000976562 c 0
 204.501953125 592.000976562 226.334960938 598.000976562 251.001953125 598.000976562 c 2
 267.001953125 598.000976562 l 1
 267.001953125 552.000976562 l 1
 254.001953125 552.000976562 l 2
 234.001953125 552.000976562 217.668945312 545.000976562 205.001953125 531.000976562 c 0
 197.668945312 522.333984375 193.668945312 493.333984375 193.001953125 444.000976562 c 0
 192.334960938 394.66796875 189.001953125 364.000976562 183.001953125 352.000976562 c 0
 173.668945312 334.000976562 158.001953125 321.66796875 136.001953125 315.000976562 c 0
 126.001953125 311.66796875 121.001953125 309.000976562 121.001953125 307.000976562 c 0
 121.001953125 304.333984375 126.334960938 301.333984375 137.001953125 298.000976562 c 0
 160.334960938 290.000976562 175.66796875 277.333984375 183.000976562 260.000976562 c 0
 190.333984375 242.66796875 194.000976562 209.000976562 194.000976562 159.000976562 c 0
 194.000976562 119.66796875 196.333984375 96.0009765625 201.000976562 88.0009765625 c 0
 208.333984375 74.66796875 225.000976562 66.0009765625 251.000976562 62.0009765625 c 2
 267.000976562 59.0009765625 l 1
 267.000976562 15.0009765625 l 1
 240.000976562 17.0009765625 l 2
 194.000976562 21.66796875 163.000976562 40.66796875 147.000976562 74.0009765625 c 0
 141.000976562 86.66796875 137.66796875 117.334960938 137.000976562 166.001953125 c 0
 136.333984375 214.001953125 133.666992188 242.668945312 129 252.001953125 c 0
 121.666992188 268.001953125 103 278.334960938 73 283.001953125 c 2
 54 285.001953125 l 1
 54 331.001953125 l 1
 71 331.001953125 l 2
 93 331.001953125 110.666992188 338.001953125 124 352.001953125 c 0
 128.666992188 357.334960938 131.666992188 364.16796875 133 372.500976562 c 0
 134.333007812 380.833984375 135.333007812 403.666992188 136 441 c 0
 138 492.333007812 141 523.333007812 145 534 c 0
EndSplineSet
Validated: 524289
EndChar

StartChar: bar
Encoding: 124 124 95
Width: 150
GlyphClass: 2
Flags: W
LayerCount: 2
Fore
SplineSet
50 -45 m 1
 50 629 l 1
 100 629 l 1
 100 -45 l 1
 50 -45 l 1
EndSplineSet
Validated: 1
EndChar

StartChar: braceright
Encoding: 125 125 96
Width: 322
GlyphClass: 2
Flags: W
LayerCount: 2
Fore
SplineSet
55 548 m 1
 55.001953125 595 l 1
 71.001953125 595 l 2
 97.001953125 595 122.001953125 587.333007812 146.001953125 572 c 0
 158.001953125 563.333007812 167.001953125 552.333007812 173.001953125 539 c 0
 178.334960938 528.333007812 181.501953125 518.5 182.501953125 509.5 c 0
 183.501953125 500.5 184.668945312 476.666992188 186.001953125 438 c 0
 187.334960938 385.333007812 190.66796875 356 196.000976562 350 c 0
 201.333984375 343.333007812 209.500976562 337.833007812 220.500976562 333.5 c 0
 231.500976562 329.166992188 242.000976562 327 252.000976562 327 c 2
 268.000976562 327 l 1
 268.000976562 281 l 1
 250.000976562 279 l 2
 220.000976562 275 201.000976562 265.666992188 193.000976562 251 c 0
 189.000976562 243.666992188 186.66796875 215.333984375 186.000976562 166.000976562 c 0
 184.66796875 129.333984375 183.500976562 106.666992188 182.500976562 98 c 0
 181.500976562 89.3330078125 178.66796875 80 174.000976562 70 c 0
 158.66796875 38 127.66796875 19.3330078125 81.0009765625 14 c 2
 55.0009765625 11 l 1
 55.0009765625 55 l 1
 77.0009765625 59 l 2
 102.333984375 64.3330078125 118.000976562 74.666015625 124.000976562 89.9990234375 c 0
 126.66796875 98.666015625 128.66796875 125.333007812 130.000976562 170 c 0
 131.333984375 209.333007812 133.333984375 235 136.000976562 247 c 0
 138.66796875 259 145.334960938 269.333007812 156.001953125 278 c 0
 164.668945312 286 174.3359375 291 185.002929688 293 c 0
 196.3359375 297 202.002929688 300 202.002929688 302 c 0
 202.002929688 304 196.3359375 307 185.002929688 311 c 0
 163.002929688 316.333007812 147.3359375 329 138.002929688 349 c 0
 133.3359375 358.333007812 130.668945312 387.333007812 130.001953125 436 c 0
 129.334960938 482.666992188 126.66796875 510.666992188 122.000976562 520 c 0
 118.66796875 527.333007812 111.66796875 533.833007812 101.000976562 539.5 c 0
 90.333984375 545.166992188 79.6669921875 548 69 548 c 2
 55 548 l 1
EndSplineSet
Validated: 524289
EndChar

StartChar: asciitilde
Encoding: 126 126 97
Width: 425
GlyphClass: 2
Flags: W
LayerCount: 2
Fore
SplineSet
115 397 m 0
 125.666992188 399 134.000976562 399.334960938 140.000976562 398.001953125 c 0
 159.333984375 398.001953125 187.000976562 391.001953125 223.000976562 377.001953125 c 0
 253.000976562 365.668945312 276.66796875 360.001953125 294.000976562 360.001953125 c 0
 315.333984375 360.001953125 337.000976562 369.001953125 359.000976562 387.001953125 c 2
 371.000976562 398.001953125 l 1
 371.000976562 374.001953125 l 2
 371.000976562 363.334960938 370.333984375 356.16796875 369.000976562 352.500976562 c 0
 367.66796875 348.833984375 363.66796875 344.333984375 357.000976562 339.000976562 c 0
 338.333984375 323.000976562 314.666992188 315.000976562 286 315.000976562 c 0
 264 315.000976562 234 322.333984375 196 337.000976562 c 0
 168 347.000976562 146.333007812 352.000976562 131 352.000976562 c 0
 113 352.000976562 92.6669921875 344.333984375 70 329.000976562 c 2
 53 316.000976562 l 1
 53 340.000976562 l 2
 53 351.333984375 53.6669921875 358.666992188 55 362 c 0
 56.3330078125 365.333007812 60 369.333007812 66 374 c 0
 84 387.333007812 100.333007812 395 115 397 c 0
EndSplineSet
Validated: 524289
EndChar

StartChar: Thorn
Encoding: 222 222 99
Width: 432
GlyphClass: 3
Flags: W
LayerCount: 2
Fore
SplineSet
59 445 m 0
 60.3330078125 445.666992188 97.33203125 446.001953125 169.999023438 446.001953125 c 2
 276.999023438 445.001953125 l 1
 298.999023438 434.001953125 l 2
 308.999023438 428.668945312 320.999023438 419.668945312 334.999023438 407.001953125 c 0
 348.999023438 394.334960938 355.999023438 385.66796875 355.999023438 381.000976562 c 0
 355.999023438 379.000976562 350.33203125 373.333984375 338.999023438 364.000976562 c 2
 320.999023438 350.000976562 l 1
 300.999023438 371.000976562 l 2
 281.666015625 390.333984375 262.333007812 400.000976562 243 400.000976562 c 0
 227.666992188 400.000976562 212.333984375 394.000976562 197.000976562 382.000976562 c 0
 190.333984375 377.333984375 183.333984375 368.333984375 176.000976562 355.000976562 c 0
 168.66796875 341.66796875 163.66796875 329.66796875 161.000976562 319.000976562 c 2
 159.000976562 308.000976562 l 1
 380.000976562 308.000976562 l 1
 380.000976562 277.000976562 l 2
 380.000976562 241.000976562 370.500976562 208.500976562 351.500976562 179.500976562 c 0
 332.500976562 150.500976562 308.000976562 130.66796875 278.000976562 120.000976562 c 0
 275.333984375 119.333984375 272.666992188 118.500976562 270 117.500976562 c 0
 267.333007812 116.500976562 265.333007812 115.66796875 264 115.000976562 c 2
 261 114.000976562 l 2
 259.666992188 114.000976562 259 122.333984375 259 139.000976562 c 0
 259 150.333984375 259.5 157.666992188 260.5 161 c 0
 261.5 164.333007812 264.333007812 166.666015625 269 167.999023438 c 0
 281 172.666015625 292.833007812 182.499023438 304.5 197.499023438 c 0
 316.166992188 212.499023438 324 227.666015625 328 242.999023438 c 2
 332 256.999023438 l 1
 159 256.999023438 l 1
 161 246.999023438 l 2
 171.666992188 206.999023438 191.333984375 180.999023438 220.000976562 168.999023438 c 0
 226.000976562 166.33203125 229.500976562 163.83203125 230.500976562 161.499023438 c 0
 231.500976562 159.166015625 232.000976562 151.666015625 232.000976562 138.999023438 c 0
 232.000976562 126.999023438 231.66796875 119.999023438 231.000976562 117.999023438 c 0
 230.333984375 115.999023438 228.000976562 115.33203125 224.000976562 115.999023438 c 0
 208.66796875 120.666015625 192.16796875 129.333007812 174.500976562 142 c 0
 156.833984375 154.666992188 144.000976562 167 136.000976562 179 c 0
 120.66796875 201.666992188 111.66796875 231.666992188 109.000976562 269 c 2
 109.000976562 279 l 2
 109.000976562 313 117.333984375 345.666992188 134.000976562 377 c 2
 147.000976562 402 l 1
 136.333984375 401.333007812 120.666992188 400.5 100 399.5 c 0
 79.3330078125 398.5 64 398 54 398 c 1
 54 421 l 2
 54 435 55.6669921875 443 59 445 c 0
EndSplineSet
Validated: 524289
Ligature2: "'rlig' Required Ligatures lookup 0 subtable" T H
Ligature2: "'rlig' Required Ligatures lookup 0 subtable" T h
EndChar

StartChar: thorn
Encoding: 254 254 100
Width: 432
GlyphClass: 3
Flags: W
LayerCount: 2
Fore
SplineSet
59 445 m 0
 60.3330078125 445.666992188 97.33203125 446.001953125 169.999023438 446.001953125 c 2
 276.999023438 445.001953125 l 1
 298.999023438 434.001953125 l 2
 308.999023438 428.668945312 320.999023438 419.668945312 334.999023438 407.001953125 c 0
 348.999023438 394.334960938 355.999023438 385.66796875 355.999023438 381.000976562 c 0
 355.999023438 379.000976562 350.33203125 373.333984375 338.999023438 364.000976562 c 2
 320.999023438 350.000976562 l 1
 300.999023438 371.000976562 l 2
 281.666015625 390.333984375 262.333007812 400.000976562 243 400.000976562 c 0
 227.666992188 400.000976562 212.333984375 394.000976562 197.000976562 382.000976562 c 0
 190.333984375 377.333984375 183.333984375 368.333984375 176.000976562 355.000976562 c 0
 168.66796875 341.66796875 163.66796875 329.66796875 161.000976562 319.000976562 c 2
 159.000976562 308.000976562 l 1
 380.000976562 308.000976562 l 1
 380.000976562 277.000976562 l 2
 380.000976562 241.000976562 370.500976562 208.500976562 351.500976562 179.500976562 c 0
 332.500976562 150.500976562 308.000976562 130.66796875 278.000976562 120.000976562 c 0
 275.333984375 119.333984375 272.666992188 118.500976562 270 117.500976562 c 0
 267.333007812 116.500976562 265.333007812 115.66796875 264 115.000976562 c 2
 261 114.000976562 l 2
 259.666992188 114.000976562 259 122.333984375 259 139.000976562 c 0
 259 150.333984375 259.5 157.666992188 260.5 161 c 0
 261.5 164.333007812 264.333007812 166.666015625 269 167.999023438 c 0
 281 172.666015625 292.833007812 182.499023438 304.5 197.499023438 c 0
 316.166992188 212.499023438 324 227.666015625 328 242.999023438 c 2
 332 256.999023438 l 1
 159 256.999023438 l 1
 161 246.999023438 l 2
 171.666992188 206.999023438 191.333984375 180.999023438 220.000976562 168.999023438 c 0
 226.000976562 166.33203125 229.500976562 163.83203125 230.500976562 161.499023438 c 0
 231.500976562 159.166015625 232.000976562 151.666015625 232.000976562 138.999023438 c 0
 232.000976562 126.999023438 231.66796875 119.999023438 231.000976562 117.999023438 c 0
 230.333984375 115.999023438 228.000976562 115.33203125 224.000976562 115.999023438 c 0
 208.66796875 120.666015625 192.16796875 129.333007812 174.500976562 142 c 0
 156.833984375 154.666992188 144.000976562 167 136.000976562 179 c 0
 120.66796875 201.666992188 111.66796875 231.666992188 109.000976562 269 c 2
 109.000976562 279 l 2
 109.000976562 313 117.333984375 345.666992188 134.000976562 377 c 2
 147.000976562 402 l 1
 136.333984375 401.333007812 120.666992188 400.5 100 399.5 c 0
 79.3330078125 398.5 64 398 54 398 c 1
 54 421 l 2
 54 435 55.6669921875 443 59 445 c 0
EndSplineSet
Validated: 524289
Ligature2: "'rlig' Required Ligatures lookup 0 subtable" t h
EndChar

StartChar: Abreve
Encoding: 258 258 101
Width: 478
GlyphClass: 3
Flags: W
LayerCount: 2
Fore
SplineSet
237 549 m 0
 268.333007812 549 284 567 284 603 c 2
 284 619 l 1
 330 619 l 1
 330 595 l 2
 330 566.333007812 319 542.333007812 297 523 c 0
 279 507 258.666992188 499 236 499 c 0
 211.333007812 499 190 508 172 526 c 0
 154 544 145 566.666992188 145 594 c 2
 145 619 l 1
 191 619 l 1
 191 603 l 2
 191 567 206.333007812 549 237 549 c 0
253 389 m 0
 241.666992188 392.333007812 230.000976562 393.999023438 218.000976562 393.999023438 c 0
 200.000976562 393.999023438 183.66796875 391.33203125 169.000976562 385.999023438 c 0
 142.333984375 375.999023438 122.333984375 356.999023438 109.000976562 328.999023438 c 0
 103.000976562 316.999023438 100.000976562 300.666015625 100.000976562 279.999023438 c 0
 100.000976562 259.999023438 103.000976562 243.999023438 109.000976562 231.999023438 c 0
 114.333984375 220.666015625 123.000976562 209.333007812 135.000976562 198 c 0
 147.000976562 186.666992188 159.000976562 178.666992188 171.000976562 174 c 0
 181.000976562 169.333007812 195.000976562 167 213.000976562 167 c 0
 236.333984375 167 255.000976562 171 269.000976562 179 c 0
 291.000976562 192.333007812 308.000976562 211 320.000976562 235 c 0
 328.66796875 251.666992188 333.000976562 264.666992188 333.000976562 274 c 0
 333.000976562 282 331.000976562 292.333007812 327.000976562 305 c 0
 314.333984375 347.666992188 289.666992188 375.666992188 253 389 c 0
373.000976562 417.999023438 m 0
 376.333984375 437.33203125 380.333007812 446.997070312 385 446.997070312 c 2
 387 446.997070312 l 2
 388.333007812 446.330078125 392.333007812 445.163085938 399 443.49609375 c 0
 405.666992188 441.829101562 411.666992188 439.99609375 417 437.99609375 c 0
 422.333007812 435.99609375 425 433.663085938 425 430.99609375 c 0
 425 429.663085938 424 425.49609375 422 418.49609375 c 2
 413 386.99609375 l 2
 409 372.99609375 405.666992188 360.329101562 403 348.99609375 c 2
 384 274.99609375 l 1
 403 201.99609375 l 2
 405.666992188 189.99609375 408.666992188 177.829101562 412 165.49609375 c 0
 415.333007812 153.163085938 418 143.663085938 420 136.99609375 c 2
 423 126.99609375 l 2
 423 126.329101562 416.5 123.829101562 403.5 119.49609375 c 0
 390.5 115.163085938 382.666992188 112.99609375 380 112.99609375 c 0
 378.666992188 112.99609375 374.333984375 126.663085938 367.000976562 153.99609375 c 2
 356.000976562 195.99609375 l 1
 329.000976562 167.99609375 l 2
 301.66796875 140.663085938 271.66796875 124.330078125 239.000976562 118.997070312 c 0
 228.333984375 117.6640625 220.000976562 116.997070312 214.000976562 116.997070312 c 0
 183.333984375 116.997070312 154.333984375 125.6640625 127.000976562 142.997070312 c 0
 99.66796875 160.330078125 79.3349609375 183.330078125 66.001953125 211.997070312 c 0
 60.001953125 223.997070312 56.501953125 233.330078125 55.501953125 239.997070312 c 0
 54.501953125 246.6640625 54.001953125 260.331054688 54.001953125 280.998046875 c 0
 54.001953125 301.665039062 54.501953125 315.165039062 55.501953125 321.498046875 c 0
 56.501953125 327.831054688 60.001953125 336.998046875 66.001953125 348.998046875 c 0
 73.3349609375 364.998046875 84.3349609375 380.498046875 99.001953125 395.498046875 c 0
 113.668945312 410.498046875 128.668945312 421.665039062 144.001953125 428.998046875 c 0
 159.334960938 435.665039062 180.001953125 439.33203125 206.001953125 439.999023438 c 2
 219.001953125 439.999023438 l 2
 270.334960938 439.999023438 310.66796875 420.666015625 340.000976562 381.999023438 c 2
 357.000976562 359.999023438 l 1
 362.000976562 379.999023438 l 2
 362.66796875 381.999023438 364.500976562 387.83203125 367.500976562 397.499023438 c 0
 370.500976562 407.166015625 372.333984375 413.999023438 373.000976562 417.999023438 c 0
EndSplineSet
Validated: 524289
Ligature2: "'rlig' Required Ligatures lookup 0 subtable" A grave grave
EndChar

StartChar: abreve
Encoding: 259 259 102
Width: 478
GlyphClass: 3
Flags: W
LayerCount: 2
Fore
SplineSet
237 549 m 0
 268.333007812 549 284 567 284 603 c 2
 284 619 l 1
 330 619 l 1
 330 595 l 2
 330 566.333007812 319 542.333007812 297 523 c 0
 279 507 258.666992188 499 236 499 c 0
 211.333007812 499 190 508 172 526 c 0
 154 544 145 566.666992188 145 594 c 2
 145 619 l 1
 191 619 l 1
 191 603 l 2
 191 567 206.333007812 549 237 549 c 0
253 389 m 0
 241.666992188 392.333007812 230.000976562 393.999023438 218.000976562 393.999023438 c 0
 200.000976562 393.999023438 183.66796875 391.33203125 169.000976562 385.999023438 c 0
 142.333984375 375.999023438 122.333984375 356.999023438 109.000976562 328.999023438 c 0
 103.000976562 316.999023438 100.000976562 300.666015625 100.000976562 279.999023438 c 0
 100.000976562 259.999023438 103.000976562 243.999023438 109.000976562 231.999023438 c 0
 114.333984375 220.666015625 123.000976562 209.333007812 135.000976562 198 c 0
 147.000976562 186.666992188 159.000976562 178.666992188 171.000976562 174 c 0
 181.000976562 169.333007812 195.000976562 167 213.000976562 167 c 0
 236.333984375 167 255.000976562 171 269.000976562 179 c 0
 291.000976562 192.333007812 308.000976562 211 320.000976562 235 c 0
 328.66796875 251.666992188 333.000976562 264.666992188 333.000976562 274 c 0
 333.000976562 282 331.000976562 292.333007812 327.000976562 305 c 0
 314.333984375 347.666992188 289.666992188 375.666992188 253 389 c 0
373.000976562 417.999023438 m 0
 376.333984375 437.33203125 380.333007812 446.997070312 385 446.997070312 c 2
 387 446.997070312 l 2
 388.333007812 446.330078125 392.333007812 445.163085938 399 443.49609375 c 0
 405.666992188 441.829101562 411.666992188 439.99609375 417 437.99609375 c 0
 422.333007812 435.99609375 425 433.663085938 425 430.99609375 c 0
 425 429.663085938 424 425.49609375 422 418.49609375 c 2
 413 386.99609375 l 2
 409 372.99609375 405.666992188 360.329101562 403 348.99609375 c 2
 384 274.99609375 l 1
 403 201.99609375 l 2
 405.666992188 189.99609375 408.666992188 177.829101562 412 165.49609375 c 0
 415.333007812 153.163085938 418 143.663085938 420 136.99609375 c 2
 423 126.99609375 l 2
 423 126.329101562 416.5 123.829101562 403.5 119.49609375 c 0
 390.5 115.163085938 382.666992188 112.99609375 380 112.99609375 c 0
 378.666992188 112.99609375 374.333984375 126.663085938 367.000976562 153.99609375 c 2
 356.000976562 195.99609375 l 1
 329.000976562 167.99609375 l 2
 301.66796875 140.663085938 271.66796875 124.330078125 239.000976562 118.997070312 c 0
 228.333984375 117.6640625 220.000976562 116.997070312 214.000976562 116.997070312 c 0
 183.333984375 116.997070312 154.333984375 125.6640625 127.000976562 142.997070312 c 0
 99.66796875 160.330078125 79.3349609375 183.330078125 66.001953125 211.997070312 c 0
 60.001953125 223.997070312 56.501953125 233.330078125 55.501953125 239.997070312 c 0
 54.501953125 246.6640625 54.001953125 260.331054688 54.001953125 280.998046875 c 0
 54.001953125 301.665039062 54.501953125 315.165039062 55.501953125 321.498046875 c 0
 56.501953125 327.831054688 60.001953125 336.998046875 66.001953125 348.998046875 c 0
 73.3349609375 364.998046875 84.3349609375 380.498046875 99.001953125 395.498046875 c 0
 113.668945312 410.498046875 128.668945312 421.665039062 144.001953125 428.998046875 c 0
 159.334960938 435.665039062 180.001953125 439.33203125 206.001953125 439.999023438 c 2
 219.001953125 439.999023438 l 2
 270.334960938 439.999023438 310.66796875 420.666015625 340.000976562 381.999023438 c 2
 357.000976562 359.999023438 l 1
 362.000976562 379.999023438 l 2
 362.66796875 381.999023438 364.500976562 387.83203125 367.500976562 397.499023438 c 0
 370.500976562 407.166015625 372.333984375 413.999023438 373.000976562 417.999023438 c 0
EndSplineSet
Validated: 524289
Ligature2: "'rlig' Required Ligatures lookup 0 subtable" a grave grave
EndChar

StartChar: Ebreve
Encoding: 276 276 103
Width: 381
GlyphClass: 3
Flags: W
LayerCount: 2
Fore
SplineSet
100 593 m 2
 98 619 l 1
 146 619 l 1
 146 606 l 2
 146 568 161.333007812 549 192 549 c 0
 223.333007812 549 239 566.333007812 239 601 c 2
 239 619 l 1
 285 619 l 1
 285 594 l 2
 285 566.666992188 275.833007812 544 257.5 526 c 0
 239.166992188 508 217.666992188 499 193 499 c 0
 171 499 151.333007812 506.333007812 134 521 c 0
 113.333007812 539.666992188 102 563.666992188 100 593 c 2
127 432 m 0
 144.333007812 438 168.669921875 440.999023438 200.002929688 440.999023438 c 0
 227.3359375 440.999023438 248.168945312 439.166015625 262.501953125 435.499023438 c 0
 276.834960938 431.83203125 292.001953125 424.665039062 308.001953125 413.998046875 c 2
 327.001953125 399.998046875 l 1
 293.001953125 365.998046875 l 1
 282.001953125 374.998046875 l 2
 264.001953125 388.331054688 237.668945312 394.998046875 203.001953125 394.998046875 c 0
 176.334960938 394.998046875 153.001953125 390.831054688 133.001953125 382.498046875 c 0
 113.001953125 374.165039062 103.001953125 363.33203125 103.001953125 349.999023438 c 0
 103.001953125 337.33203125 112.501953125 326.83203125 131.501953125 318.499023438 c 0
 150.501953125 310.166015625 174.334960938 305.999023438 203.001953125 305.999023438 c 2
 239.001953125 305.999023438 l 1
 239.001953125 255.999023438 l 1
 205.001953125 255.999023438 l 2
 176.334960938 255.999023438 152.16796875 251.83203125 132.500976562 243.499023438 c 0
 112.833984375 235.166015625 103.000976562 224.666015625 103.000976562 211.999023438 c 0
 103.000976562 204.666015625 104.833984375 198.833007812 108.500976562 194.5 c 0
 112.16796875 190.166992188 120.000976562 185 132.000976562 179 c 0
 140.66796875 174.333007812 148.16796875 171.5 154.500976562 170.5 c 0
 160.833984375 169.5 175.333984375 169 198.000976562 169 c 0
 220.66796875 169 235.16796875 169.5 241.500976562 170.5 c 0
 247.833984375 171.5 257.000976562 175 269.000976562 181 c 2
 295.000976562 193 l 1
 309.000976562 180 l 2
 318.333984375 170.666992188 323.000976562 164.333984375 323.000976562 161.000976562 c 0
 323.000976562 154.333984375 308.66796875 144.666992188 280.000976562 132 c 0
 257.333984375 122 231.666992188 117 203 117 c 0
 171.666992188 117 142.5 122.666992188 115.5 134 c 0
 88.5 145.333007812 70.3330078125 160 61 178 c 0
 55.6669921875 190 53 200.666992188 53 210 c 0
 53 230 62.3330078125 248.333007812 81 265 c 2
 98 280 l 1
 84 291 l 2
 64 305.666992188 54 325.333984375 54 350.000976562 c 0
 54 360.66796875 55.6669921875 369.66796875 59 377.000976562 c 0
 63 386.333984375 71.8330078125 396.666992188 85.5 408 c 0
 99.1669921875 419.333007812 113 427.333007812 127 432 c 0
EndSplineSet
Validated: 524289
Ligature2: "'rlig' Required Ligatures lookup 0 subtable" E grave grave
EndChar

StartChar: ebreve
Encoding: 277 277 104
Width: 381
GlyphClass: 3
Flags: W
LayerCount: 2
Fore
SplineSet
100 593 m 2
 98 619 l 1
 146 619 l 1
 146 606 l 2
 146 568 161.333007812 549 192 549 c 0
 223.333007812 549 239 566.333007812 239 601 c 2
 239 619 l 1
 285 619 l 1
 285 594 l 2
 285 566.666992188 275.833007812 544 257.5 526 c 0
 239.166992188 508 217.666992188 499 193 499 c 0
 171 499 151.333007812 506.333007812 134 521 c 0
 113.333007812 539.666992188 102 563.666992188 100 593 c 2
127 432 m 0
 144.333007812 438 168.669921875 440.999023438 200.002929688 440.999023438 c 0
 227.3359375 440.999023438 248.168945312 439.166015625 262.501953125 435.499023438 c 0
 276.834960938 431.83203125 292.001953125 424.665039062 308.001953125 413.998046875 c 2
 327.001953125 399.998046875 l 1
 293.001953125 365.998046875 l 1
 282.001953125 374.998046875 l 2
 264.001953125 388.331054688 237.668945312 394.998046875 203.001953125 394.998046875 c 0
 176.334960938 394.998046875 153.001953125 390.831054688 133.001953125 382.498046875 c 0
 113.001953125 374.165039062 103.001953125 363.33203125 103.001953125 349.999023438 c 0
 103.001953125 337.33203125 112.501953125 326.83203125 131.501953125 318.499023438 c 0
 150.501953125 310.166015625 174.334960938 305.999023438 203.001953125 305.999023438 c 2
 239.001953125 305.999023438 l 1
 239.001953125 255.999023438 l 1
 205.001953125 255.999023438 l 2
 176.334960938 255.999023438 152.16796875 251.83203125 132.500976562 243.499023438 c 0
 112.833984375 235.166015625 103.000976562 224.666015625 103.000976562 211.999023438 c 0
 103.000976562 204.666015625 104.833984375 198.833007812 108.500976562 194.5 c 0
 112.16796875 190.166992188 120.000976562 185 132.000976562 179 c 0
 140.66796875 174.333007812 148.16796875 171.5 154.500976562 170.5 c 0
 160.833984375 169.5 175.333984375 169 198.000976562 169 c 0
 220.66796875 169 235.16796875 169.5 241.500976562 170.5 c 0
 247.833984375 171.5 257.000976562 175 269.000976562 181 c 2
 295.000976562 193 l 1
 309.000976562 180 l 2
 318.333984375 170.666992188 323.000976562 164.333984375 323.000976562 161.000976562 c 0
 323.000976562 154.333984375 308.66796875 144.666992188 280.000976562 132 c 0
 257.333984375 122 231.666992188 117 203 117 c 0
 171.666992188 117 142.5 122.666992188 115.5 134 c 0
 88.5 145.333007812 70.3330078125 160 61 178 c 0
 55.6669921875 190 53 200.666992188 53 210 c 0
 53 230 62.3330078125 248.333007812 81 265 c 2
 98 280 l 1
 84 291 l 2
 64 305.666992188 54 325.333984375 54 350.000976562 c 0
 54 360.66796875 55.6669921875 369.66796875 59 377.000976562 c 0
 63 386.333984375 71.8330078125 396.666992188 85.5 408 c 0
 99.1669921875 419.333007812 113 427.333007812 127 432 c 0
EndSplineSet
Validated: 524289
Ligature2: "'rlig' Required Ligatures lookup 0 subtable" e grave grave
EndChar

StartChar: Gbreve
Encoding: 286 286 105
Width: 624
GlyphClass: 3
Flags: W
LayerCount: 2
Fore
SplineSet
219 549 m 0
 249.666992188 549 265 567 265 603 c 2
 265 619 l 1
 311 619 l 1
 311 595 l 2
 311 565.666992188 300.333007812 541.666992188 279 523 c 0
 261 507 240.666992188 499 218 499 c 0
 193.333007812 499 171.833007812 508 153.5 526 c 0
 135.166992188 544 126 566.666992188 126 594 c 2
 126 619 l 1
 172 619 l 1
 172 603 l 2
 172 567 187.666992188 549 219 549 c 0
416 -18 m 0
 416 -14.6669921875 412.833007812 0.166015625 406.5 26.4990234375 c 0
 400.166992188 52.83203125 396 65.9990234375 394 65.9990234375 c 0
 393.333007812 65.9990234375 387 43.666015625 375 -1.0009765625 c 0
 372.333007812 -14.333984375 371 -21.333984375 371 -22.0009765625 c 0
 371 -24.0009765625 372.333007812 -27.66796875 375 -33.0009765625 c 0
 379 -39.0009765625 384.666992188 -42.0009765625 392 -42.0009765625 c 0
 398 -42.0009765625 403.5 -39.66796875 408.5 -35.0009765625 c 0
 413.5 -30.333984375 416 -24.6669921875 416 -18 c 0
160 434 m 0
 169.333007812 438 183.33203125 439.999023438 201.999023438 439.999023438 c 2
 220.999023438 439.999023438 l 2
 247.666015625 439.33203125 268.999023438 435.665039062 284.999023438 428.998046875 c 0
 330.999023438 407.665039062 362.999023438 363.998046875 380.999023438 297.998046875 c 2
 393.999023438 252.998046875 l 1
 395.999023438 257.998046875 l 2
 396.666015625 261.998046875 397.999023438 267.498046875 399.999023438 274.498046875 c 0
 401.999023438 281.498046875 403.999023438 287.998046875 405.999023438 293.998046875 c 0
 429.999023438 385.331054688 476.666015625 433.998046875 545.999023438 439.998046875 c 2
 569.999023438 441.998046875 l 1
 569.999023438 417.998046875 l 2
 569.999023438 406.665039062 569.499023438 399.998046875 568.499023438 397.998046875 c 0
 567.499023438 395.998046875 564.33203125 394.998046875 558.999023438 394.998046875 c 0
 542.33203125 394.998046875 525.33203125 388.831054688 507.999023438 376.498046875 c 0
 490.666015625 364.165039062 477.666015625 349.33203125 468.999023438 331.999023438 c 0
 462.999023438 321.33203125 452.999023438 288.999023438 438.999023438 234.999023438 c 2
 418.999023438 158.999023438 l 1
 439.999023438 79.9990234375 l 2
 454.666015625 27.33203125 461.999023438 -7.66796875 461.999023438 -25.0009765625 c 0
 461.999023438 -37.66796875 457.999023438 -49.66796875 449.999023438 -61.0009765625 c 0
 435.999023438 -81.0009765625 416.999023438 -91.0009765625 392.999023438 -91.0009765625 c 0
 380.33203125 -91.0009765625 367.33203125 -87.0009765625 353.999023438 -79.0009765625 c 0
 333.33203125 -64.333984375 322.999023438 -46.0009765625 322.999023438 -24.0009765625 c 0
 322.999023438 -14.0009765625 330.666015625 18.666015625 345.999023438 73.9990234375 c 2
 369.999023438 158.999023438 l 1
 347.999023438 240.999023438 l 2
 333.999023438 293.666015625 324.666015625 324.666015625 319.999023438 333.999023438 c 0
 315.33203125 343.999023438 306.499023438 354.666015625 293.499023438 365.999023438 c 0
 280.499023438 377.33203125 268.999023438 384.665039062 258.999023438 387.998046875 c 0
 243.666015625 392.665039062 229.999023438 394.998046875 217.999023438 394.998046875 c 0
 199.33203125 394.998046875 181.999023438 390.998046875 165.999023438 382.998046875 c 0
 145.999023438 373.665039062 130.33203125 359.83203125 118.999023438 341.499023438 c 0
 107.666015625 323.166015625 101.999023438 303.333007812 101.999023438 282 c 0
 101.999023438 264 106.33203125 246.666992188 114.999023438 230 c 0
 133.666015625 193.333007812 161.666015625 172.333007812 198.999023438 167 c 2
 216.999023438 165 l 1
 216.999023438 119 l 1
 195.999023438 120 l 2
 162.666015625 122 132.333007812 136.333007812 105 163 c 0
 71 195 54 234 54 280 c 0
 54 322 68.3330078125 358.666992188 97 390 c 0
 114.333007812 409.333007812 135.333007812 424 160 434 c 0
EndSplineSet
Validated: 524289
Ligature2: "'rlig' Required Ligatures lookup 0 subtable" G grave grave
EndChar

StartChar: gbreve
Encoding: 287 287 106
Width: 624
GlyphClass: 3
Flags: W
LayerCount: 2
Fore
SplineSet
219 549 m 0
 249.666992188 549 265 567 265 603 c 2
 265 619 l 1
 311 619 l 1
 311 595 l 2
 311 565.666992188 300.333007812 541.666992188 279 523 c 0
 261 507 240.666992188 499 218 499 c 0
 193.333007812 499 171.833007812 508 153.5 526 c 0
 135.166992188 544 126 566.666992188 126 594 c 2
 126 619 l 1
 172 619 l 1
 172 603 l 2
 172 567 187.666992188 549 219 549 c 0
416 -18 m 0
 416 -14.6669921875 412.833007812 0.166015625 406.5 26.4990234375 c 0
 400.166992188 52.83203125 396 65.9990234375 394 65.9990234375 c 0
 393.333007812 65.9990234375 387 43.666015625 375 -1.0009765625 c 0
 372.333007812 -14.333984375 371 -21.333984375 371 -22.0009765625 c 0
 371 -24.0009765625 372.333007812 -27.66796875 375 -33.0009765625 c 0
 379 -39.0009765625 384.666992188 -42.0009765625 392 -42.0009765625 c 0
 398 -42.0009765625 403.5 -39.66796875 408.5 -35.0009765625 c 0
 413.5 -30.333984375 416 -24.6669921875 416 -18 c 0
160 434 m 0
 169.333007812 438 183.33203125 439.999023438 201.999023438 439.999023438 c 2
 220.999023438 439.999023438 l 2
 247.666015625 439.33203125 268.999023438 435.665039062 284.999023438 428.998046875 c 0
 330.999023438 407.665039062 362.999023438 363.998046875 380.999023438 297.998046875 c 2
 393.999023438 252.998046875 l 1
 395.999023438 257.998046875 l 2
 396.666015625 261.998046875 397.999023438 267.498046875 399.999023438 274.498046875 c 0
 401.999023438 281.498046875 403.999023438 287.998046875 405.999023438 293.998046875 c 0
 429.999023438 385.331054688 476.666015625 433.998046875 545.999023438 439.998046875 c 2
 569.999023438 441.998046875 l 1
 569.999023438 417.998046875 l 2
 569.999023438 406.665039062 569.499023438 399.998046875 568.499023438 397.998046875 c 0
 567.499023438 395.998046875 564.33203125 394.998046875 558.999023438 394.998046875 c 0
 542.33203125 394.998046875 525.33203125 388.831054688 507.999023438 376.498046875 c 0
 490.666015625 364.165039062 477.666015625 349.33203125 468.999023438 331.999023438 c 0
 462.999023438 321.33203125 452.999023438 288.999023438 438.999023438 234.999023438 c 2
 418.999023438 158.999023438 l 1
 439.999023438 79.9990234375 l 2
 454.666015625 27.33203125 461.999023438 -7.66796875 461.999023438 -25.0009765625 c 0
 461.999023438 -37.66796875 457.999023438 -49.66796875 449.999023438 -61.0009765625 c 0
 435.999023438 -81.0009765625 416.999023438 -91.0009765625 392.999023438 -91.0009765625 c 0
 380.33203125 -91.0009765625 367.33203125 -87.0009765625 353.999023438 -79.0009765625 c 0
 333.33203125 -64.333984375 322.999023438 -46.0009765625 322.999023438 -24.0009765625 c 0
 322.999023438 -14.0009765625 330.666015625 18.666015625 345.999023438 73.9990234375 c 2
 369.999023438 158.999023438 l 1
 347.999023438 240.999023438 l 2
 333.999023438 293.666015625 324.666015625 324.666015625 319.999023438 333.999023438 c 0
 315.33203125 343.999023438 306.499023438 354.666015625 293.499023438 365.999023438 c 0
 280.499023438 377.33203125 268.999023438 384.665039062 258.999023438 387.998046875 c 0
 243.666015625 392.665039062 229.999023438 394.998046875 217.999023438 394.998046875 c 0
 199.33203125 394.998046875 181.999023438 390.998046875 165.999023438 382.998046875 c 0
 145.999023438 373.665039062 130.33203125 359.83203125 118.999023438 341.499023438 c 0
 107.666015625 323.166015625 101.999023438 303.333007812 101.999023438 282 c 0
 101.999023438 264 106.33203125 246.666992188 114.999023438 230 c 0
 133.666015625 193.333007812 161.666015625 172.333007812 198.999023438 167 c 2
 216.999023438 165 l 1
 216.999023438 119 l 1
 195.999023438 120 l 2
 162.666015625 122 132.333007812 136.333007812 105 163 c 0
 71 195 54 234 54 280 c 0
 54 322 68.3330078125 358.666992188 97 390 c 0
 114.333007812 409.333007812 135.333007812 424 160 434 c 0
EndSplineSet
Validated: 524289
Ligature2: "'rlig' Required Ligatures lookup 0 subtable" g grave grave
EndChar

StartChar: Obreve
Encoding: 334 334 107
Width: 428
GlyphClass: 3
Flags: W
LayerCount: 2
Fore
SplineSet
123 592 m 2
 121.000976562 618 l 1
 168.000976562 618 l 1
 168.000976562 605 l 2
 168.000976562 567 183.333984375 548 214.000976562 548 c 0
 245.333984375 548 261.000976562 565.333007812 261.000976562 600 c 2
 261.000976562 618 l 1
 308.000976562 618 l 1
 308.000976562 593 l 2
 308.000976562 565.666992188 298.833984375 543 280.500976562 525 c 0
 262.16796875 507 240.66796875 498 216.000976562 498 c 0
 193.333984375 498 173.666992188 505.333007812 157 520 c 0
 136.333007812 538.666992188 125 562.666992188 123 592 c 2
268.000976562 382 m 0
 255.333984375 388.666992188 238 392.001953125 216 392.001953125 c 0
 197.333007812 392.001953125 182.333007812 389.668945312 171 385.001953125 c 0
 143.666992188 373.668945312 123.666992188 354.668945312 111 328.001953125 c 0
 103.666992188 312.001953125 100 296.001953125 100 280.001953125 c 0
 100 249.334960938 110 223.334960938 130 202.001953125 c 0
 150 179.334960938 176.333007812 167.001953125 209 165.001953125 c 0
 211.666992188 165.001953125 214.833984375 164.834960938 218.500976562 164.501953125 c 0
 222.16796875 164.168945312 224.66796875 164.001953125 226.000976562 164.001953125 c 0
 236.66796875 164.001953125 249.000976562 167.334960938 263.000976562 174.001953125 c 0
 276.333984375 180.668945312 289.000976562 190.501953125 301.000976562 203.501953125 c 0
 313.000976562 216.501953125 321.000976562 229.001953125 325.000976562 241.001953125 c 0
 329.000976562 253.001953125 331.000976562 265.668945312 331.000976562 279.001953125 c 0
 331.000976562 292.334960938 329.000976562 305.001953125 325.000976562 317.001953125 c 0
 321.66796875 328.334960938 314.000976562 340.66796875 302.000976562 354.000976562 c 0
 290.000976562 367.333984375 278.66796875 376.666992188 268.000976562 382 c 0
158 432.001953125 m 0
 168.666992188 436.001953125 183.333984375 438.002929688 202.000976562 438.002929688 c 2
 221.000976562 438.002929688 l 2
 250.333984375 437.3359375 272.000976562 433.668945312 286.000976562 427.001953125 c 0
 300.000976562 420.334960938 314.16796875 409.66796875 328.500976562 395.000976562 c 0
 342.833984375 380.333984375 354.333984375 365.000976562 363.000976562 349.000976562 c 0
 369.000976562 337.000976562 372.66796875 327.833984375 374.000976562 321.500976562 c 0
 375.333984375 315.16796875 376.000976562 301.000976562 376.000976562 279.000976562 c 0
 376.000976562 257.000976562 375.333984375 242.66796875 374.000976562 236.000976562 c 0
 372.66796875 229.333984375 369.334960938 220.333984375 364.001953125 209.000976562 c 0
 357.334960938 195.66796875 347.16796875 181.66796875 333.500976562 167.000976562 c 0
 319.833984375 152.333984375 306.666992188 141.333984375 294 134.000976562 c 0
 271.333007812 120.66796875 245 114.000976562 215 114.000976562 c 0
 195 114.000976562 175.666992188 117.66796875 157 125.000976562 c 0
 136.333007812 133.000976562 116.833007812 146.333984375 98.5 165.000976562 c 0
 80.1669921875 183.66796875 67.6669921875 203.334960938 61 224.001953125 c 0
 56.3330078125 240.001953125 54 258.334960938 54 279.001953125 c 0
 54 299.668945312 56.3330078125 318.001953125 61 334.001953125 c 0
 68.3330078125 356.001953125 80.8330078125 375.834960938 98.5 393.501953125 c 0
 116.166992188 411.168945312 136 424.001953125 158 432.001953125 c 0
EndSplineSet
Validated: 524289
Ligature2: "'rlig' Required Ligatures lookup 0 subtable" O grave grave
EndChar

StartChar: obreve
Encoding: 335 335 108
Width: 428
GlyphClass: 3
Flags: W
LayerCount: 2
Fore
SplineSet
123 592 m 2
 121.000976562 618 l 1
 168.000976562 618 l 1
 168.000976562 605 l 2
 168.000976562 567 183.333984375 548 214.000976562 548 c 0
 245.333984375 548 261.000976562 565.333007812 261.000976562 600 c 2
 261.000976562 618 l 1
 308.000976562 618 l 1
 308.000976562 593 l 2
 308.000976562 565.666992188 298.833984375 543 280.500976562 525 c 0
 262.16796875 507 240.66796875 498 216.000976562 498 c 0
 193.333984375 498 173.666992188 505.333007812 157 520 c 0
 136.333007812 538.666992188 125 562.666992188 123 592 c 2
268.000976562 382 m 0
 255.333984375 388.666992188 238 392.001953125 216 392.001953125 c 0
 197.333007812 392.001953125 182.333007812 389.668945312 171 385.001953125 c 0
 143.666992188 373.668945312 123.666992188 354.668945312 111 328.001953125 c 0
 103.666992188 312.001953125 100 296.001953125 100 280.001953125 c 0
 100 249.334960938 110 223.334960938 130 202.001953125 c 0
 150 179.334960938 176.333007812 167.001953125 209 165.001953125 c 0
 211.666992188 165.001953125 214.833984375 164.834960938 218.500976562 164.501953125 c 0
 222.16796875 164.168945312 224.66796875 164.001953125 226.000976562 164.001953125 c 0
 236.66796875 164.001953125 249.000976562 167.334960938 263.000976562 174.001953125 c 0
 276.333984375 180.668945312 289.000976562 190.501953125 301.000976562 203.501953125 c 0
 313.000976562 216.501953125 321.000976562 229.001953125 325.000976562 241.001953125 c 0
 329.000976562 253.001953125 331.000976562 265.668945312 331.000976562 279.001953125 c 0
 331.000976562 292.334960938 329.000976562 305.001953125 325.000976562 317.001953125 c 0
 321.66796875 328.334960938 314.000976562 340.66796875 302.000976562 354.000976562 c 0
 290.000976562 367.333984375 278.66796875 376.666992188 268.000976562 382 c 0
158 432.001953125 m 0
 168.666992188 436.001953125 183.333984375 438.002929688 202.000976562 438.002929688 c 2
 221.000976562 438.002929688 l 2
 250.333984375 437.3359375 272.000976562 433.668945312 286.000976562 427.001953125 c 0
 300.000976562 420.334960938 314.16796875 409.66796875 328.500976562 395.000976562 c 0
 342.833984375 380.333984375 354.333984375 365.000976562 363.000976562 349.000976562 c 0
 369.000976562 337.000976562 372.66796875 327.833984375 374.000976562 321.500976562 c 0
 375.333984375 315.16796875 376.000976562 301.000976562 376.000976562 279.000976562 c 0
 376.000976562 257.000976562 375.333984375 242.66796875 374.000976562 236.000976562 c 0
 372.66796875 229.333984375 369.334960938 220.333984375 364.001953125 209.000976562 c 0
 357.334960938 195.66796875 347.16796875 181.66796875 333.500976562 167.000976562 c 0
 319.833984375 152.333984375 306.666992188 141.333984375 294 134.000976562 c 0
 271.333007812 120.66796875 245 114.000976562 215 114.000976562 c 0
 195 114.000976562 175.666992188 117.66796875 157 125.000976562 c 0
 136.333007812 133.000976562 116.833007812 146.333984375 98.5 165.000976562 c 0
 80.1669921875 183.66796875 67.6669921875 203.334960938 61 224.001953125 c 0
 56.3330078125 240.001953125 54 258.334960938 54 279.001953125 c 0
 54 299.668945312 56.3330078125 318.001953125 61 334.001953125 c 0
 68.3330078125 356.001953125 80.8330078125 375.834960938 98.5 393.501953125 c 0
 116.166992188 411.168945312 136 424.001953125 158 432.001953125 c 0
EndSplineSet
Validated: 524289
Ligature2: "'rlig' Required Ligatures lookup 0 subtable" o grave grave
EndChar

StartChar: Ubreve
Encoding: 364 364 109
Width: 359
GlyphClass: 3
Flags: W
LayerCount: 2
Fore
SplineSet
86 596 m 2
 83.9990234375 621.998046875 l 1
 134.999023438 621.998046875 l 1
 134.999023438 602.998046875 l 2
 134.999023438 580.998046875 141.666015625 566.331054688 154.999023438 558.998046875 c 0
 161.666015625 554.998046875 169.333007812 552.998046875 178 552.998046875 c 0
 189.333007812 552.998046875 199.666015625 556.665039062 208.999023438 563.998046875 c 0
 217.666015625 571.998046875 222.666015625 583.331054688 223.999023438 597.998046875 c 2
 225.999023438 619.998046875 l 1
 248.999023438 619.998046875 l 2
 256.999023438 619.998046875 262.499023438 619.831054688 265.499023438 619.498046875 c 0
 268.499023438 619.165039062 270.499023438 618.33203125 271.499023438 616.999023438 c 0
 272.499023438 615.666015625 273.33203125 613.333007812 273.999023438 610 c 2
 273.999023438 604 l 2
 273.999023438 578.666992188 267.666015625 558 254.999023438 542 c 0
 246.999023438 531.333007812 236.999023438 522.333007812 224.999023438 515 c 0
 213.666015625 508.333007812 198.666015625 505 179.999023438 505 c 0
 152.666015625 505 130.833007812 513 114.5 529 c 0
 98.1669921875 545 88.6669921875 567.333007812 86 596 c 2
50.9990234375 333.998046875 m 2
 49.9990234375 448.997070312 l 1
 100.999023438 448.997070312 l 1
 100.999023438 339.997070312 l 2
 100.999023438 265.997070312 103.33203125 224.330078125 107.999023438 214.997070312 c 0
 121.999023438 185.6640625 145.33203125 170.997070312 177.999023438 170.997070312 c 2
 186.999023438 170.997070312 l 2
 202.999023438 171.6640625 215.999023438 176.331054688 225.999023438 184.998046875 c 0
 240.666015625 196.331054688 249.333007812 205.331054688 252 211.998046875 c 0
 255.333007812 222.665039062 257.666015625 262.665039062 258.999023438 331.998046875 c 2
 260.999023438 446.998046875 l 1
 266.33203125 447.665039062 274.33203125 447.998046875 284.999023438 447.998046875 c 0
 295.666015625 447.998046875 303.666015625 448.331054688 308.999023438 448.998046875 c 1
 307.999023438 333.998046875 l 2
 307.33203125 280.665039062 306.499023438 247.33203125 305.499023438 233.999023438 c 0
 304.499023438 220.666015625 301.999023438 209.333007812 297.999023438 200 c 0
 284.666015625 170.666992188 263.999023438 149 235.999023438 135 c 0
 218.666015625 126.333007812 199.999023438 122 179.999023438 122 c 0
 159.33203125 122 140.33203125 126.333007812 122.999023438 135 c 0
 94.9990234375 149 74.33203125 170.666992188 60.9990234375 200 c 0
 56.9990234375 209.333007812 54.4990234375 220.666015625 53.4990234375 233.999023438 c 0
 52.4990234375 247.33203125 51.666015625 280.665039062 50.9990234375 333.998046875 c 2
EndSplineSet
Validated: 524289
Ligature2: "'rlig' Required Ligatures lookup 0 subtable" U grave grave
EndChar

